<ttFont>
    <TTGlyph name="A" xMin="25" yMin="0" xMax="831" yMax="700">
      <contour>
        <pt x="236" y="0" on="1"/>
        <pt x="47" y="0" on="1"/>
        <pt x="38" y="0" on="0"/>
        <pt x="25" y="13" on="0"/>
        <pt x="25" y="25" on="0"/>
        <pt x="26" y="28" on="1"/>
        <pt x="244" y="667" on="1"/>
        <pt x="253" y="700" on="0"/>
        <pt x="289" y="700" on="1"/>
        <pt x="567" y="700" on="1"/>
        <pt x="603" y="700" on="0"/>
        <pt x="612" y="667" on="1"/>
        <pt x="830" y="28" on="1"/>
        <pt x="831" y="25" on="0"/>
        <pt x="831" y="13" on="0"/>
        <pt x="818" y="0" on="0"/>
        <pt x="809" y="0" on="1"/>
        <pt x="620" y="0" on="1"/>
        <pt x="588" y="0" on="0"/>
        <pt x="575" y="34" on="1"/>
        <pt x="550" y="104" on="1"/>
        <pt x="306" y="104" on="1"/>
        <pt x="281" y="34" on="1"/>
        <pt x="268" y="0" on="0"/>
      </contour>
      <contour>
        <pt x="499" y="299" on="1"/>
        <pt x="428" y="507" on="1"/>
        <pt x="357" y="299" on="1"/>
      </contour>
    </TTGlyph>
    <TTGlyph name="AE" xMin="9" yMin="0" xMax="841" yMax="700">
      <contour>
        <pt x="210" y="0" on="1"/>
        <pt x="31" y="0" on="1"/>
        <pt x="22" y="0" on="0"/>
        <pt x="9" y="13" on="0"/>
        <pt x="9" y="25" on="0"/>
        <pt x="10" y="28" on="1"/>
        <pt x="238" y="667" on="1"/>
        <pt x="249" y="700" on="0"/>
        <pt x="283" y="700" on="1"/>
        <pt x="804" y="700" on="1"/>
        <pt x="815" y="700" on="0"/>
        <pt x="831" y="684" on="0"/>
        <pt x="831" y="673" on="1"/>
        <pt x="831" y="532" on="1"/>
        <pt x="831" y="521" on="0"/>
        <pt x="815" y="505" on="0"/>
        <pt x="804" y="505" on="1"/>
        <pt x="672" y="505" on="1"/>
        <pt x="672" y="442" on="1"/>
        <pt x="780" y="442" on="1"/>
        <pt x="791" y="442" on="0"/>
        <pt x="807" y="426" on="0"/>
        <pt x="807" y="415" on="1"/>
        <pt x="807" y="285" on="1"/>
        <pt x="807" y="274" on="0"/>
        <pt x="791" y="258" on="0"/>
        <pt x="780" y="258" on="1"/>
        <pt x="672" y="258" on="1"/>
        <pt x="672" y="195" on="1"/>
        <pt x="814" y="195" on="1"/>
        <pt x="825" y="195" on="0"/>
        <pt x="841" y="179" on="0"/>
        <pt x="841" y="168" on="1"/>
        <pt x="841" y="27" on="1"/>
        <pt x="841" y="16" on="0"/>
        <pt x="825" y="0" on="0"/>
        <pt x="814" y="0" on="1"/>
        <pt x="449" y="0" on="1"/>
        <pt x="438" y="0" on="0"/>
        <pt x="422" y="16" on="0"/>
        <pt x="422" y="27" on="1"/>
        <pt x="422" y="104" on="1"/>
        <pt x="280" y="104" on="1"/>
        <pt x="255" y="34" on="1"/>
        <pt x="242" y="0" on="0"/>
      </contour>
      <contour>
        <pt x="422" y="299" on="1"/>
        <pt x="422" y="507" on="1"/>
        <pt x="402" y="507" on="1"/>
        <pt x="331" y="299" on="1"/>
      </contour>
    </TTGlyph>
    <TTGlyph name="AEacute" xMin="9" yMin="0" xMax="841" yMax="850">
      <contour>
        <pt x="210" y="0" on="1"/>
        <pt x="31" y="0" on="1"/>
        <pt x="22" y="0" on="0"/>
        <pt x="9" y="13" on="0"/>
        <pt x="9" y="25" on="0"/>
        <pt x="10" y="28" on="1"/>
        <pt x="238" y="667" on="1"/>
        <pt x="249" y="700" on="0"/>
        <pt x="283" y="700" on="1"/>
        <pt x="804" y="700" on="1"/>
        <pt x="815" y="700" on="0"/>
        <pt x="831" y="684" on="0"/>
        <pt x="831" y="673" on="1"/>
        <pt x="831" y="532" on="1"/>
        <pt x="831" y="521" on="0"/>
        <pt x="815" y="505" on="0"/>
        <pt x="804" y="505" on="1"/>
        <pt x="672" y="505" on="1"/>
        <pt x="672" y="442" on="1"/>
        <pt x="780" y="442" on="1"/>
        <pt x="791" y="442" on="0"/>
        <pt x="807" y="426" on="0"/>
        <pt x="807" y="415" on="1"/>
        <pt x="807" y="285" on="1"/>
        <pt x="807" y="274" on="0"/>
        <pt x="791" y="258" on="0"/>
        <pt x="780" y="258" on="1"/>
        <pt x="672" y="258" on="1"/>
        <pt x="672" y="195" on="1"/>
        <pt x="814" y="195" on="1"/>
        <pt x="825" y="195" on="0"/>
        <pt x="841" y="179" on="0"/>
        <pt x="841" y="168" on="1"/>
        <pt x="841" y="27" on="1"/>
        <pt x="841" y="16" on="0"/>
        <pt x="825" y="0" on="0"/>
        <pt x="814" y="0" on="1"/>
        <pt x="449" y="0" on="1"/>
        <pt x="438" y="0" on="0"/>
        <pt x="422" y="16" on="0"/>
        <pt x="422" y="27" on="1"/>
        <pt x="422" y="104" on="1"/>
        <pt x="280" y="104" on="1"/>
        <pt x="255" y="34" on="1"/>
        <pt x="242" y="0" on="0"/>
      </contour>
      <contour>
        <pt x="422" y="299" on="1"/>
        <pt x="422" y="507" on="1"/>
        <pt x="402" y="507" on="1"/>
        <pt x="331" y="299" on="1"/>
      </contour>
      <contour>
        <pt x="654" y="850" on="1"/>
        <pt x="673" y="850" on="0"/>
        <pt x="673" y="830" on="1"/>
        <pt x="673" y="823" on="0"/>
        <pt x="668" y="818" on="1"/>
        <pt x="573" y="738" on="1"/>
        <pt x="564" y="731" on="0"/>
        <pt x="545" y="731" on="1"/>
        <pt x="412" y="731" on="1"/>
        <pt x="396" y="731" on="0"/>
        <pt x="396" y="747" on="1"/>
        <pt x="396" y="755" on="0"/>
        <pt x="401" y="760" on="1"/>
        <pt x="459" y="831" on="1"/>
        <pt x="473" y="848" on="0"/>
        <pt x="496" y="850" on="1"/>
      </contour>
    </TTGlyph>
    <TTGlyph name="Aacute" xMin="25" yMin="0" xMax="831" yMax="850">
      <contour>
        <pt x="620" y="0" on="1"/>
        <pt x="588" y="0" on="0"/>
        <pt x="575" y="34" on="1"/>
        <pt x="575" y="34" on="0"/>
        <pt x="550" y="104" on="1"/>
        <pt x="306" y="104" on="1"/>
        <pt x="281" y="34" on="1"/>
        <pt x="268" y="0" on="0"/>
        <pt x="236" y="0" on="1"/>
        <pt x="47" y="0" on="1"/>
        <pt x="38" y="0" on="0"/>
        <pt x="25" y="13" on="0"/>
        <pt x="25" y="25" on="0"/>
        <pt x="26" y="28" on="1"/>
        <pt x="244" y="667" on="1"/>
        <pt x="253" y="700" on="0"/>
        <pt x="289" y="700" on="1"/>
        <pt x="567" y="700" on="1"/>
        <pt x="603" y="700" on="0"/>
        <pt x="612" y="667" on="1"/>
        <pt x="830" y="28" on="1"/>
        <pt x="831" y="25" on="0"/>
        <pt x="831" y="13" on="0"/>
        <pt x="818" y="0" on="0"/>
        <pt x="809" y="0" on="1"/>
      </contour>
      <contour>
        <pt x="428" y="507" on="1"/>
        <pt x="357" y="299" on="1"/>
        <pt x="499" y="299" on="1"/>
      </contour>
      <contour>
        <pt x="602" y="850" on="1"/>
        <pt x="621" y="850" on="0"/>
        <pt x="621" y="830" on="1"/>
        <pt x="621" y="823" on="0"/>
        <pt x="616" y="818" on="1"/>
        <pt x="521" y="738" on="1"/>
        <pt x="512" y="731" on="0"/>
        <pt x="493" y="731" on="1"/>
        <pt x="360" y="731" on="1"/>
        <pt x="344" y="731" on="0"/>
        <pt x="344" y="747" on="1"/>
        <pt x="344" y="755" on="0"/>
        <pt x="349" y="760" on="1"/>
        <pt x="407" y="831" on="1"/>
        <pt x="421" y="848" on="0"/>
        <pt x="444" y="850" on="1"/>
      </contour>
    </TTGlyph>
    <TTGlyph name="Abreve" xMin="25" yMin="0" xMax="831" yMax="855">
      <contour>
        <pt x="236" y="0" on="1"/>
        <pt x="47" y="0" on="1"/>
        <pt x="38" y="0" on="0"/>
        <pt x="25" y="13" on="0"/>
        <pt x="25" y="25" on="0"/>
        <pt x="26" y="28" on="1"/>
        <pt x="244" y="667" on="1"/>
        <pt x="253" y="700" on="0"/>
        <pt x="289" y="700" on="1"/>
        <pt x="567" y="700" on="1"/>
        <pt x="603" y="700" on="0"/>
        <pt x="612" y="667" on="1"/>
        <pt x="830" y="28" on="1"/>
        <pt x="831" y="25" on="0"/>
        <pt x="831" y="13" on="0"/>
        <pt x="818" y="0" on="0"/>
        <pt x="809" y="0" on="1"/>
        <pt x="620" y="0" on="1"/>
        <pt x="588" y="0" on="0"/>
        <pt x="575" y="34" on="1"/>
        <pt x="550" y="104" on="1"/>
        <pt x="306" y="104" on="1"/>
        <pt x="281" y="34" on="1"/>
        <pt x="268" y="0" on="0"/>
      </contour>
      <contour>
        <pt x="499" y="299" on="1"/>
        <pt x="428" y="507" on="1"/>
        <pt x="357" y="299" on="1"/>
      </contour>
      <contour>
        <pt x="488" y="855" on="1"/>
        <pt x="587" y="855" on="1"/>
        <pt x="606" y="855" on="0"/>
        <pt x="606" y="842" on="1"/>
        <pt x="606" y="795" on="0"/>
        <pt x="514" y="730" on="0"/>
        <pt x="343" y="730" on="0"/>
        <pt x="251" y="795" on="0"/>
        <pt x="251" y="842" on="1"/>
        <pt x="251" y="855" on="0"/>
        <pt x="270" y="855" on="1"/>
        <pt x="369" y="855" on="1"/>
        <pt x="384" y="855" on="0"/>
        <pt x="388" y="842" on="1"/>
        <pt x="394" y="817" on="0"/>
        <pt x="458" y="817" on="0"/>
        <pt x="469" y="842" on="1"/>
        <pt x="476" y="855" on="0"/>
      </contour>
    </TTGlyph>
    <TTGlyph name="Acircumflex" xMin="25" yMin="0" xMax="831" yMax="850">
      <contour>
        <pt x="620" y="0" on="1"/>
        <pt x="588" y="0" on="0"/>
        <pt x="575" y="34" on="1"/>
        <pt x="575" y="34" on="0"/>
        <pt x="550" y="104" on="1"/>
        <pt x="306" y="104" on="1"/>
        <pt x="281" y="34" on="1"/>
        <pt x="268" y="0" on="0"/>
        <pt x="236" y="0" on="1"/>
        <pt x="47" y="0" on="1"/>
        <pt x="38" y="0" on="0"/>
        <pt x="25" y="13" on="0"/>
        <pt x="25" y="25" on="0"/>
        <pt x="26" y="28" on="1"/>
        <pt x="244" y="667" on="1"/>
        <pt x="253" y="700" on="0"/>
        <pt x="289" y="700" on="1"/>
        <pt x="567" y="700" on="1"/>
        <pt x="603" y="700" on="0"/>
        <pt x="612" y="667" on="1"/>
        <pt x="830" y="28" on="1"/>
        <pt x="831" y="25" on="0"/>
        <pt x="831" y="13" on="0"/>
        <pt x="818" y="0" on="0"/>
        <pt x="809" y="0" on="1"/>
      </contour>
      <contour>
        <pt x="428" y="507" on="1"/>
        <pt x="357" y="299" on="1"/>
        <pt x="499" y="299" on="1"/>
      </contour>
      <contour>
        <pt x="330" y="731" on="1"/>
        <pt x="249" y="731" on="1"/>
        <pt x="233" y="731" on="0"/>
        <pt x="233" y="747" on="1"/>
        <pt x="233" y="756" on="0"/>
        <pt x="241" y="761" on="1"/>
        <pt x="324" y="831" on="1"/>
        <pt x="351" y="850" on="0"/>
        <pt x="371" y="850" on="1"/>
        <pt x="483" y="850" on="1"/>
        <pt x="503" y="850" on="0"/>
        <pt x="530" y="831" on="1"/>
        <pt x="613" y="761" on="1"/>
        <pt x="621" y="756" on="0"/>
        <pt x="621" y="747" on="1"/>
        <pt x="621" y="731" on="0"/>
        <pt x="605" y="731" on="1"/>
        <pt x="524" y="731" on="1"/>
        <pt x="506" y="731" on="0"/>
        <pt x="484" y="738" on="1"/>
        <pt x="427" y="760" on="1"/>
        <pt x="370" y="738" on="1"/>
        <pt x="348" y="731" on="0"/>
      </contour>
    </TTGlyph>
    <TTGlyph name="Acute" xMin="286" yMin="731" xMax="563" yMax="850">
      <contour>
        <pt x="544" y="850" on="1"/>
        <pt x="563" y="850" on="0"/>
        <pt x="563" y="830" on="1"/>
        <pt x="563" y="823" on="0"/>
        <pt x="558" y="818" on="1"/>
        <pt x="463" y="738" on="1"/>
        <pt x="454" y="731" on="0"/>
        <pt x="435" y="731" on="1"/>
        <pt x="302" y="731" on="1"/>
        <pt x="286" y="731" on="0"/>
        <pt x="286" y="747" on="1"/>
        <pt x="286" y="755" on="0"/>
        <pt x="291" y="760" on="1"/>
        <pt x="349" y="831" on="1"/>
        <pt x="363" y="848" on="0"/>
        <pt x="386" y="850" on="1"/>
      </contour>
    </TTGlyph>
    <TTGlyph name="Adieresis" xMin="25" yMin="0" xMax="831" yMax="850">
      <contour>
        <pt x="236" y="0" on="1"/>
        <pt x="47" y="0" on="1"/>
        <pt x="38" y="0" on="0"/>
        <pt x="25" y="13" on="0"/>
        <pt x="25" y="25" on="0"/>
        <pt x="26" y="28" on="1"/>
        <pt x="244" y="667" on="1"/>
        <pt x="253" y="700" on="0"/>
        <pt x="289" y="700" on="1"/>
        <pt x="567" y="700" on="1"/>
        <pt x="603" y="700" on="0"/>
        <pt x="612" y="667" on="1"/>
        <pt x="830" y="28" on="1"/>
        <pt x="831" y="25" on="0"/>
        <pt x="831" y="13" on="0"/>
        <pt x="818" y="0" on="0"/>
        <pt x="809" y="0" on="1"/>
        <pt x="620" y="0" on="1"/>
        <pt x="588" y="0" on="0"/>
        <pt x="575" y="34" on="1"/>
        <pt x="550" y="104" on="1"/>
        <pt x="306" y="104" on="1"/>
        <pt x="281" y="34" on="1"/>
        <pt x="268" y="0" on="0"/>
      </contour>
      <contour>
        <pt x="499" y="299" on="1"/>
        <pt x="428" y="507" on="1"/>
        <pt x="357" y="299" on="1"/>
      </contour>
      <contour>
        <pt x="508" y="747" on="1"/>
        <pt x="508" y="731" on="0"/>
        <pt x="492" y="731" on="1"/>
        <pt x="359" y="731" on="1"/>
        <pt x="340" y="731" on="0"/>
        <pt x="331" y="738" on="1"/>
        <pt x="236" y="818" on="1"/>
        <pt x="231" y="823" on="0"/>
        <pt x="231" y="830" on="1"/>
        <pt x="231" y="850" on="0"/>
        <pt x="250" y="850" on="1"/>
        <pt x="408" y="850" on="1"/>
        <pt x="431" y="848" on="0"/>
        <pt x="445" y="831" on="1"/>
        <pt x="503" y="760" on="1"/>
        <pt x="508" y="755" on="0"/>
      </contour>
    </TTGlyph>
    <TTGlyph name="Agrave" xMin="25" yMin="0" xMax="831" yMax="850">
      <contour>
        <pt x="620" y="0" on="1"/>
        <pt x="588" y="0" on="0"/>
        <pt x="575" y="34" on="1"/>
        <pt x="575" y="34" on="0"/>
        <pt x="550" y="104" on="1"/>
        <pt x="306" y="104" on="1"/>
        <pt x="281" y="34" on="1"/>
        <pt x="268" y="0" on="0"/>
        <pt x="236" y="0" on="1"/>
        <pt x="47" y="0" on="1"/>
        <pt x="38" y="0" on="0"/>
        <pt x="25" y="13" on="0"/>
        <pt x="25" y="25" on="0"/>
        <pt x="26" y="28" on="1"/>
        <pt x="244" y="667" on="1"/>
        <pt x="253" y="700" on="0"/>
        <pt x="289" y="700" on="1"/>
        <pt x="567" y="700" on="1"/>
        <pt x="603" y="700" on="0"/>
        <pt x="612" y="667" on="1"/>
        <pt x="830" y="28" on="1"/>
        <pt x="831" y="25" on="0"/>
        <pt x="831" y="13" on="0"/>
        <pt x="818" y="0" on="0"/>
        <pt x="809" y="0" on="1"/>
      </contour>
      <contour>
        <pt x="428" y="507" on="1"/>
        <pt x="357" y="299" on="1"/>
        <pt x="499" y="299" on="1"/>
      </contour>
      <contour>
        <pt x="496" y="850" on="1"/>
        <pt x="612" y="850" on="1"/>
        <pt x="622" y="850" on="0"/>
        <pt x="635" y="837" on="0"/>
        <pt x="635" y="827" on="1"/>
        <pt x="635" y="754" on="1"/>
        <pt x="635" y="744" on="0"/>
        <pt x="622" y="731" on="0"/>
        <pt x="612" y="731" on="1"/>
        <pt x="496" y="731" on="1"/>
        <pt x="486" y="731" on="0"/>
        <pt x="473" y="744" on="0"/>
        <pt x="473" y="754" on="1"/>
        <pt x="473" y="827" on="1"/>
        <pt x="473" y="837" on="0"/>
        <pt x="486" y="850" on="0"/>
      </contour>
      <contour>
        <pt x="245" y="850" on="1"/>
        <pt x="361" y="850" on="1"/>
        <pt x="371" y="850" on="0"/>
        <pt x="384" y="837" on="0"/>
        <pt x="384" y="827" on="1"/>
        <pt x="384" y="754" on="1"/>
        <pt x="384" y="744" on="0"/>
        <pt x="371" y="731" on="0"/>
        <pt x="361" y="731" on="1"/>
        <pt x="245" y="731" on="1"/>
        <pt x="235" y="731" on="0"/>
        <pt x="222" y="744" on="0"/>
        <pt x="222" y="754" on="1"/>
        <pt x="222" y="827" on="1"/>
        <pt x="222" y="837" on="0"/>
        <pt x="235" y="850" on="0"/>
      </contour>
    </TTGlyph>
    <TTGlyph name="Amacron" xMin="25" yMin="0" xMax="831" yMax="850">
      <contour>
        <pt x="620" y="0" on="1"/>
        <pt x="588" y="0" on="0"/>
        <pt x="575" y="34" on="1"/>
        <pt x="575" y="34" on="0"/>
        <pt x="550" y="104" on="1"/>
        <pt x="306" y="104" on="1"/>
        <pt x="281" y="34" on="1"/>
        <pt x="268" y="0" on="0"/>
        <pt x="236" y="0" on="1"/>
        <pt x="47" y="0" on="1"/>
        <pt x="38" y="0" on="0"/>
        <pt x="25" y="13" on="0"/>
        <pt x="25" y="25" on="0"/>
        <pt x="26" y="28" on="1"/>
        <pt x="244" y="667" on="1"/>
        <pt x="253" y="700" on="0"/>
        <pt x="289" y="700" on="1"/>
        <pt x="567" y="700" on="1"/>
        <pt x="603" y="700" on="0"/>
        <pt x="612" y="667" on="1"/>
        <pt x="830" y="28" on="1"/>
        <pt x="831" y="25" on="0"/>
        <pt x="831" y="13" on="0"/>
        <pt x="818" y="0" on="0"/>
        <pt x="809" y="0" on="1"/>
      </contour>
      <contour>
        <pt x="428" y="507" on="1"/>
        <pt x="357" y="299" on="1"/>
        <pt x="499" y="299" on="1"/>
      </contour>
      <contour>
        <pt x="242" y="850" on="1"/>
        <pt x="609" y="850" on="1"/>
        <pt x="619" y="850" on="0"/>
        <pt x="632" y="837" on="0"/>
        <pt x="632" y="827" on="1"/>
        <pt x="632" y="754" on="1"/>
        <pt x="632" y="744" on="0"/>
        <pt x="619" y="731" on="0"/>
        <pt x="609" y="731" on="1"/>
        <pt x="242" y="731" on="1"/>
        <pt x="232" y="731" on="0"/>
        <pt x="219" y="744" on="0"/>
        <pt x="219" y="754" on="1"/>
        <pt x="219" y="827" on="1"/>
        <pt x="219" y="837" on="0"/>
        <pt x="232" y="850" on="0"/>
      </contour>
    </TTGlyph>
    <TTGlyph name="Aogonek" xMin="25" yMin="-142" xMax="836" yMax="700">
      <contour>
        <pt x="236" y="0" on="1"/>
        <pt x="47" y="0" on="1"/>
        <pt x="38" y="0" on="0"/>
        <pt x="25" y="13" on="0"/>
        <pt x="25" y="25" on="0"/>
        <pt x="26" y="28" on="1"/>
        <pt x="244" y="667" on="1"/>
        <pt x="253" y="700" on="0"/>
        <pt x="289" y="700" on="1"/>
        <pt x="567" y="700" on="1"/>
        <pt x="603" y="700" on="0"/>
        <pt x="612" y="667" on="1"/>
        <pt x="830" y="28" on="1"/>
        <pt x="831" y="25" on="0"/>
        <pt x="831" y="13" on="0"/>
        <pt x="818" y="0" on="0"/>
        <pt x="809" y="0" on="1"/>
        <pt x="795" y="0" on="1"/>
        <pt x="759" y="-1" on="0"/>
        <pt x="759" y="-52" on="0"/>
        <pt x="802" y="-52" on="1"/>
        <pt x="809" y="-52" on="1"/>
        <pt x="836" y="-52" on="0"/>
        <pt x="836" y="-77" on="1"/>
        <pt x="836" y="-118" on="1"/>
        <pt x="836" y="-129" on="0"/>
        <pt x="821" y="-142" on="0"/>
        <pt x="809" y="-142" on="1"/>
        <pt x="795" y="-142" on="1"/>
        <pt x="643" y="-142" on="0"/>
        <pt x="643" y="-26" on="1"/>
        <pt x="643" y="-8" on="0"/>
        <pt x="645" y="0" on="1"/>
        <pt x="620" y="0" on="1"/>
        <pt x="588" y="0" on="0"/>
        <pt x="575" y="34" on="1"/>
        <pt x="550" y="104" on="1"/>
        <pt x="306" y="104" on="1"/>
        <pt x="281" y="34" on="1"/>
        <pt x="268" y="0" on="0"/>
      </contour>
      <contour>
        <pt x="499" y="299" on="1"/>
        <pt x="428" y="507" on="1"/>
        <pt x="357" y="299" on="1"/>
      </contour>
    </TTGlyph>
    <TTGlyph name="Aring" xMin="25" yMin="0" xMax="831" yMax="855">
      <contour>
        <pt x="620" y="0" on="1"/>
        <pt x="588" y="0" on="0"/>
        <pt x="575" y="34" on="1"/>
        <pt x="575" y="34" on="0"/>
        <pt x="550" y="104" on="1"/>
        <pt x="306" y="104" on="1"/>
        <pt x="281" y="34" on="1"/>
        <pt x="268" y="0" on="0"/>
        <pt x="236" y="0" on="1"/>
        <pt x="47" y="0" on="1"/>
        <pt x="38" y="0" on="0"/>
        <pt x="25" y="13" on="0"/>
        <pt x="25" y="25" on="0"/>
        <pt x="26" y="28" on="1"/>
        <pt x="244" y="667" on="1"/>
        <pt x="253" y="700" on="0"/>
        <pt x="289" y="700" on="1"/>
        <pt x="567" y="700" on="1"/>
        <pt x="603" y="700" on="0"/>
        <pt x="612" y="667" on="1"/>
        <pt x="830" y="28" on="1"/>
        <pt x="831" y="25" on="0"/>
        <pt x="831" y="13" on="0"/>
        <pt x="818" y="0" on="0"/>
        <pt x="809" y="0" on="1"/>
      </contour>
      <contour>
        <pt x="428" y="507" on="1"/>
        <pt x="357" y="299" on="1"/>
        <pt x="499" y="299" on="1"/>
      </contour>
      <contour>
        <pt x="393" y="807" on="0"/>
        <pt x="393" y="767" on="0"/>
        <pt x="454" y="767" on="0"/>
        <pt x="454" y="807" on="0"/>
      </contour>
      <contour>
        <pt x="323" y="756" on="0"/>
        <pt x="323" y="818" on="0"/>
        <pt x="381" y="855" on="0"/>
        <pt x="467" y="855" on="0"/>
        <pt x="525" y="818" on="0"/>
        <pt x="525" y="756" on="0"/>
        <pt x="467" y="719" on="0"/>
        <pt x="381" y="719" on="0"/>
      </contour>
    </TTGlyph>
    <TTGlyph name="Atilde" xMin="25" yMin="0" xMax="831" yMax="855">
      <contour>
        <pt x="620" y="0" on="1"/>
        <pt x="588" y="0" on="0"/>
        <pt x="575" y="34" on="1"/>
        <pt x="575" y="34" on="0"/>
        <pt x="550" y="104" on="1"/>
        <pt x="306" y="104" on="1"/>
        <pt x="281" y="34" on="1"/>
        <pt x="268" y="0" on="0"/>
        <pt x="236" y="0" on="1"/>
        <pt x="47" y="0" on="1"/>
        <pt x="38" y="0" on="0"/>
        <pt x="25" y="13" on="0"/>
        <pt x="25" y="25" on="0"/>
        <pt x="26" y="28" on="1"/>
        <pt x="244" y="667" on="1"/>
        <pt x="253" y="700" on="0"/>
        <pt x="289" y="700" on="1"/>
        <pt x="567" y="700" on="1"/>
        <pt x="603" y="700" on="0"/>
        <pt x="612" y="667" on="1"/>
        <pt x="830" y="28" on="1"/>
        <pt x="831" y="25" on="0"/>
        <pt x="831" y="13" on="0"/>
        <pt x="818" y="0" on="0"/>
        <pt x="809" y="0" on="1"/>
      </contour>
      <contour>
        <pt x="428" y="507" on="1"/>
        <pt x="357" y="299" on="1"/>
        <pt x="499" y="299" on="1"/>
      </contour>
      <contour>
        <pt x="487" y="730" on="1"/>
        <pt x="459" y="730" on="0"/>
        <pt x="393" y="754" on="0"/>
        <pt x="363" y="754" on="0"/>
        <pt x="340" y="735" on="0"/>
        <pt x="329" y="735" on="1"/>
        <pt x="245" y="735" on="1"/>
        <pt x="237" y="735" on="0"/>
        <pt x="226" y="746" on="0"/>
        <pt x="226" y="765" on="0"/>
        <pt x="239" y="795" on="0"/>
        <pt x="266" y="831" on="0"/>
        <pt x="324" y="855" on="0"/>
        <pt x="390" y="855" on="0"/>
        <pt x="456" y="831" on="0"/>
        <pt x="485" y="831" on="0"/>
        <pt x="509" y="850" on="0"/>
        <pt x="520" y="850" on="1"/>
        <pt x="604" y="850" on="1"/>
        <pt x="623" y="850" on="0"/>
        <pt x="623" y="831" on="1"/>
        <pt x="623" y="801" on="0"/>
        <pt x="558" y="730" on="0"/>
      </contour>
    </TTGlyph>
    <TTGlyph name="B" xMin="85" yMin="0" xMax="806" yMax="700">
      <contour>
        <pt x="806" y="220" on="1"/>
        <pt x="806" y="0" on="0"/>
        <pt x="524" y="0" on="1"/>
        <pt x="112" y="0" on="1"/>
        <pt x="101" y="0" on="0"/>
        <pt x="85" y="16" on="0"/>
        <pt x="85" y="27" on="1"/>
        <pt x="85" y="673" on="1"/>
        <pt x="85" y="684" on="0"/>
        <pt x="101" y="700" on="0"/>
        <pt x="112" y="700" on="1"/>
        <pt x="514" y="700" on="1"/>
        <pt x="656" y="700" on="0"/>
        <pt x="791" y="597" on="0"/>
        <pt x="791" y="493" on="1"/>
        <pt x="791" y="490" on="1"/>
        <pt x="791" y="442" on="0"/>
        <pt x="739" y="374" on="0"/>
        <pt x="711" y="365" on="1"/>
        <pt x="750" y="353" on="0"/>
        <pt x="806" y="272" on="0"/>
      </contour>
      <contour>
        <pt x="345" y="270" on="1"/>
        <pt x="345" y="172" on="1"/>
        <pt x="490" y="172" on="1"/>
        <pt x="513" y="172" on="0"/>
        <pt x="536" y="203" on="0"/>
        <pt x="536" y="222" on="1"/>
        <pt x="536" y="223" on="1"/>
        <pt x="536" y="242" on="0"/>
        <pt x="511" y="270" on="0"/>
        <pt x="490" y="270" on="1"/>
      </contour>
      <contour>
        <pt x="520" y="466" on="0"/>
        <pt x="520" y="502" on="0"/>
        <pt x="499" y="528" on="0"/>
        <pt x="479" y="528" on="1"/>
        <pt x="345" y="528" on="1"/>
        <pt x="345" y="437" on="1"/>
        <pt x="479" y="437" on="1"/>
        <pt x="499" y="437" on="0"/>
      </contour>
    </TTGlyph>
    <TTGlyph name="Breve" xMin="247" yMin="730" xMax="602" yMax="855">
      <contour>
        <pt x="484" y="855" on="1"/>
        <pt x="583" y="855" on="1"/>
        <pt x="602" y="855" on="0"/>
        <pt x="602" y="842" on="1"/>
        <pt x="602" y="795" on="0"/>
        <pt x="510" y="730" on="0"/>
        <pt x="339" y="730" on="0"/>
        <pt x="247" y="795" on="0"/>
        <pt x="247" y="842" on="1"/>
        <pt x="247" y="855" on="0"/>
        <pt x="266" y="855" on="1"/>
        <pt x="365" y="855" on="1"/>
        <pt x="380" y="855" on="0"/>
        <pt x="384" y="842" on="1"/>
        <pt x="390" y="817" on="0"/>
        <pt x="454" y="817" on="0"/>
        <pt x="465" y="842" on="1"/>
        <pt x="472" y="855" on="0"/>
      </contour>
    </TTGlyph>
    <TTGlyph name="C" xMin="63" yMin="-10" xMax="804" yMax="710">
      <contour>
        <pt x="333" y="430" on="1"/>
        <pt x="333" y="270" on="1"/>
        <pt x="333" y="229" on="0"/>
        <pt x="388" y="185" on="0"/>
        <pt x="477" y="185" on="0"/>
        <pt x="517" y="213" on="0"/>
        <pt x="544" y="267" on="0"/>
        <pt x="566" y="267" on="1"/>
        <pt x="782" y="267" on="1"/>
        <pt x="791" y="267" on="0"/>
        <pt x="804" y="254" on="0"/>
        <pt x="804" y="245" on="1"/>
        <pt x="804" y="152" on="0"/>
        <pt x="716" y="75" on="1"/>
        <pt x="672" y="37" on="0"/>
        <pt x="526" y="-10" on="0"/>
        <pt x="328" y="-10" on="0"/>
        <pt x="165" y="51" on="0"/>
        <pt x="63" y="190" on="0"/>
        <pt x="63" y="291" on="1"/>
        <pt x="63" y="409" on="1"/>
        <pt x="63" y="510" on="0"/>
        <pt x="114" y="580" on="1"/>
        <pt x="210" y="710" on="0"/>
        <pt x="435" y="710" on="1"/>
        <pt x="526" y="710" on="0"/>
        <pt x="672" y="663" on="0"/>
        <pt x="716" y="625" on="1"/>
        <pt x="804" y="548" on="0"/>
        <pt x="804" y="455" on="1"/>
        <pt x="804" y="446" on="0"/>
        <pt x="791" y="433" on="0"/>
        <pt x="782" y="433" on="1"/>
        <pt x="566" y="433" on="1"/>
        <pt x="544" y="433" on="0"/>
        <pt x="517" y="487" on="0"/>
        <pt x="477" y="515" on="0"/>
        <pt x="388" y="515" on="0"/>
        <pt x="333" y="471" on="0"/>
      </contour>
    </TTGlyph>
    <TTGlyph name="Cacute" xMin="63" yMin="-10" xMax="804" yMax="850">
      <contour>
        <pt x="333" y="430" on="1"/>
        <pt x="333" y="270" on="1"/>
        <pt x="333" y="229" on="0"/>
        <pt x="388" y="185" on="0"/>
        <pt x="477" y="185" on="0"/>
        <pt x="517" y="213" on="0"/>
        <pt x="544" y="267" on="0"/>
        <pt x="566" y="267" on="1"/>
        <pt x="782" y="267" on="1"/>
        <pt x="791" y="267" on="0"/>
        <pt x="804" y="254" on="0"/>
        <pt x="804" y="245" on="1"/>
        <pt x="804" y="152" on="0"/>
        <pt x="716" y="75" on="1"/>
        <pt x="672" y="37" on="0"/>
        <pt x="526" y="-10" on="0"/>
        <pt x="328" y="-10" on="0"/>
        <pt x="165" y="51" on="0"/>
        <pt x="63" y="190" on="0"/>
        <pt x="63" y="291" on="1"/>
        <pt x="63" y="409" on="1"/>
        <pt x="63" y="510" on="0"/>
        <pt x="114" y="580" on="1"/>
        <pt x="210" y="710" on="0"/>
        <pt x="435" y="710" on="1"/>
        <pt x="526" y="710" on="0"/>
        <pt x="672" y="663" on="0"/>
        <pt x="716" y="625" on="1"/>
        <pt x="804" y="548" on="0"/>
        <pt x="804" y="455" on="1"/>
        <pt x="804" y="446" on="0"/>
        <pt x="791" y="433" on="0"/>
        <pt x="782" y="433" on="1"/>
        <pt x="566" y="433" on="1"/>
        <pt x="544" y="433" on="0"/>
        <pt x="517" y="487" on="0"/>
        <pt x="477" y="515" on="0"/>
        <pt x="388" y="515" on="0"/>
        <pt x="333" y="471" on="0"/>
      </contour>
      <contour>
        <pt x="592" y="850" on="1"/>
        <pt x="611" y="850" on="0"/>
        <pt x="611" y="830" on="1"/>
        <pt x="611" y="823" on="0"/>
        <pt x="606" y="818" on="1"/>
        <pt x="511" y="738" on="1"/>
        <pt x="502" y="731" on="0"/>
        <pt x="483" y="731" on="1"/>
        <pt x="350" y="731" on="1"/>
        <pt x="334" y="731" on="0"/>
        <pt x="334" y="747" on="1"/>
        <pt x="334" y="755" on="0"/>
        <pt x="339" y="760" on="1"/>
        <pt x="397" y="831" on="1"/>
        <pt x="411" y="848" on="0"/>
        <pt x="434" y="850" on="1"/>
      </contour>
    </TTGlyph>
    <TTGlyph name="Caron" xMin="231" yMin="731" xMax="619" yMax="850">
      <contour>
        <pt x="522" y="850" on="1"/>
        <pt x="603" y="850" on="1"/>
        <pt x="619" y="850" on="0"/>
        <pt x="619" y="834" on="1"/>
        <pt x="619" y="825" on="0"/>
        <pt x="611" y="820" on="1"/>
        <pt x="528" y="750" on="1"/>
        <pt x="501" y="731" on="0"/>
        <pt x="481" y="731" on="1"/>
        <pt x="369" y="731" on="1"/>
        <pt x="349" y="731" on="0"/>
        <pt x="322" y="750" on="1"/>
        <pt x="239" y="820" on="1"/>
        <pt x="231" y="825" on="0"/>
        <pt x="231" y="834" on="1"/>
        <pt x="231" y="850" on="0"/>
        <pt x="247" y="850" on="1"/>
        <pt x="328" y="850" on="1"/>
        <pt x="346" y="850" on="0"/>
        <pt x="368" y="843" on="1"/>
        <pt x="425" y="821" on="1"/>
        <pt x="482" y="843" on="1"/>
        <pt x="504" y="850" on="0"/>
      </contour>
    </TTGlyph>
    <TTGlyph name="Ccaron" xMin="63" yMin="-10" xMax="804" yMax="850">
      <contour>
        <pt x="333" y="430" on="1"/>
        <pt x="333" y="270" on="1"/>
        <pt x="333" y="229" on="0"/>
        <pt x="388" y="185" on="0"/>
        <pt x="477" y="185" on="0"/>
        <pt x="517" y="213" on="0"/>
        <pt x="544" y="267" on="0"/>
        <pt x="566" y="267" on="1"/>
        <pt x="782" y="267" on="1"/>
        <pt x="791" y="267" on="0"/>
        <pt x="804" y="254" on="0"/>
        <pt x="804" y="245" on="1"/>
        <pt x="804" y="152" on="0"/>
        <pt x="716" y="75" on="1"/>
        <pt x="672" y="37" on="0"/>
        <pt x="526" y="-10" on="0"/>
        <pt x="328" y="-10" on="0"/>
        <pt x="165" y="51" on="0"/>
        <pt x="63" y="190" on="0"/>
        <pt x="63" y="291" on="1"/>
        <pt x="63" y="409" on="1"/>
        <pt x="63" y="510" on="0"/>
        <pt x="114" y="580" on="1"/>
        <pt x="210" y="710" on="0"/>
        <pt x="435" y="710" on="1"/>
        <pt x="526" y="710" on="0"/>
        <pt x="672" y="663" on="0"/>
        <pt x="716" y="625" on="1"/>
        <pt x="804" y="548" on="0"/>
        <pt x="804" y="455" on="1"/>
        <pt x="804" y="446" on="0"/>
        <pt x="791" y="433" on="0"/>
        <pt x="782" y="433" on="1"/>
        <pt x="566" y="433" on="1"/>
        <pt x="544" y="433" on="0"/>
        <pt x="517" y="487" on="0"/>
        <pt x="477" y="515" on="0"/>
        <pt x="388" y="515" on="0"/>
        <pt x="333" y="471" on="0"/>
      </contour>
      <contour>
        <pt x="526" y="850" on="1"/>
        <pt x="607" y="850" on="1"/>
        <pt x="623" y="850" on="0"/>
        <pt x="623" y="834" on="1"/>
        <pt x="623" y="825" on="0"/>
        <pt x="615" y="820" on="1"/>
        <pt x="532" y="750" on="1"/>
        <pt x="505" y="731" on="0"/>
        <pt x="485" y="731" on="1"/>
        <pt x="373" y="731" on="1"/>
        <pt x="353" y="731" on="0"/>
        <pt x="326" y="750" on="1"/>
        <pt x="243" y="820" on="1"/>
        <pt x="235" y="825" on="0"/>
        <pt x="235" y="834" on="1"/>
        <pt x="235" y="850" on="0"/>
        <pt x="251" y="850" on="1"/>
        <pt x="332" y="850" on="1"/>
        <pt x="350" y="850" on="0"/>
        <pt x="372" y="843" on="1"/>
        <pt x="429" y="821" on="1"/>
        <pt x="486" y="843" on="1"/>
        <pt x="508" y="850" on="0"/>
      </contour>
    </TTGlyph>
    <TTGlyph name="Ccedilla" xMin="63" yMin="-150" xMax="804" yMax="710">
      <contour>
        <pt x="333" y="430" on="1"/>
        <pt x="333" y="270" on="1"/>
        <pt x="333" y="229" on="0"/>
        <pt x="388" y="185" on="0"/>
        <pt x="477" y="185" on="0"/>
        <pt x="517" y="213" on="0"/>
        <pt x="544" y="267" on="0"/>
        <pt x="566" y="267" on="1"/>
        <pt x="782" y="267" on="1"/>
        <pt x="791" y="267" on="0"/>
        <pt x="804" y="254" on="0"/>
        <pt x="804" y="245" on="1"/>
        <pt x="804" y="157" on="0"/>
        <pt x="722" y="80" on="1"/>
        <pt x="681" y="43" on="0"/>
        <pt x="546" y="-6" on="0"/>
        <pt x="461" y="-9" on="1"/>
        <pt x="455" y="-26" on="1"/>
        <pt x="464" y="-22" on="0"/>
        <pt x="532" y="-22" on="0"/>
        <pt x="583" y="-54" on="0"/>
        <pt x="583" y="-117" on="0"/>
        <pt x="512" y="-150" on="0"/>
        <pt x="417" y="-150" on="0"/>
        <pt x="341" y="-124" on="0"/>
        <pt x="341" y="-100" on="1"/>
        <pt x="341" y="-89" on="0"/>
        <pt x="354" y="-89" on="1"/>
        <pt x="415" y="-89" on="1"/>
        <pt x="426" y="-89" on="0"/>
        <pt x="448" y="-102" on="0"/>
        <pt x="496" y="-102" on="0"/>
        <pt x="496" y="-83" on="1"/>
        <pt x="496" y="-66" on="0"/>
        <pt x="468" y="-66" on="1"/>
        <pt x="454" y="-66" on="0"/>
        <pt x="428" y="-75" on="0"/>
        <pt x="420" y="-75" on="1"/>
        <pt x="376" y="-75" on="1"/>
        <pt x="361" y="-75" on="0"/>
        <pt x="361" y="-62" on="1"/>
        <pt x="361" y="-59" on="0"/>
        <pt x="363" y="-53" on="1"/>
        <pt x="378" y="-7" on="1"/>
        <pt x="236" y="5" on="0"/>
        <pt x="63" y="155" on="0"/>
        <pt x="63" y="291" on="1"/>
        <pt x="63" y="409" on="1"/>
        <pt x="63" y="510" on="0"/>
        <pt x="114" y="580" on="1"/>
        <pt x="210" y="710" on="0"/>
        <pt x="435" y="710" on="1"/>
        <pt x="526" y="710" on="0"/>
        <pt x="672" y="663" on="0"/>
        <pt x="716" y="625" on="1"/>
        <pt x="804" y="548" on="0"/>
        <pt x="804" y="455" on="1"/>
        <pt x="804" y="446" on="0"/>
        <pt x="791" y="433" on="0"/>
        <pt x="782" y="433" on="1"/>
        <pt x="566" y="433" on="1"/>
        <pt x="544" y="433" on="0"/>
        <pt x="517" y="487" on="0"/>
        <pt x="477" y="515" on="0"/>
        <pt x="388" y="515" on="0"/>
        <pt x="333" y="471" on="0"/>
      </contour>
    </TTGlyph>
    <TTGlyph name="Ccircumflex" xMin="63" yMin="-10" xMax="804" yMax="850">
      <contour>
        <pt x="333" y="430" on="1"/>
        <pt x="333" y="270" on="1"/>
        <pt x="333" y="229" on="0"/>
        <pt x="388" y="185" on="0"/>
        <pt x="477" y="185" on="0"/>
        <pt x="517" y="213" on="0"/>
        <pt x="544" y="267" on="0"/>
        <pt x="566" y="267" on="1"/>
        <pt x="782" y="267" on="1"/>
        <pt x="791" y="267" on="0"/>
        <pt x="804" y="254" on="0"/>
        <pt x="804" y="245" on="1"/>
        <pt x="804" y="152" on="0"/>
        <pt x="716" y="75" on="1"/>
        <pt x="672" y="37" on="0"/>
        <pt x="526" y="-10" on="0"/>
        <pt x="328" y="-10" on="0"/>
        <pt x="165" y="51" on="0"/>
        <pt x="63" y="190" on="0"/>
        <pt x="63" y="291" on="1"/>
        <pt x="63" y="409" on="1"/>
        <pt x="63" y="510" on="0"/>
        <pt x="114" y="580" on="1"/>
        <pt x="210" y="710" on="0"/>
        <pt x="435" y="710" on="1"/>
        <pt x="526" y="710" on="0"/>
        <pt x="672" y="663" on="0"/>
        <pt x="716" y="625" on="1"/>
        <pt x="804" y="548" on="0"/>
        <pt x="804" y="455" on="1"/>
        <pt x="804" y="446" on="0"/>
        <pt x="791" y="433" on="0"/>
        <pt x="782" y="433" on="1"/>
        <pt x="566" y="433" on="1"/>
        <pt x="544" y="433" on="0"/>
        <pt x="517" y="487" on="0"/>
        <pt x="477" y="515" on="0"/>
        <pt x="388" y="515" on="0"/>
        <pt x="333" y="471" on="0"/>
      </contour>
      <contour>
        <pt x="335" y="731" on="1"/>
        <pt x="254" y="731" on="1"/>
        <pt x="238" y="731" on="0"/>
        <pt x="238" y="747" on="1"/>
        <pt x="238" y="756" on="0"/>
        <pt x="246" y="761" on="1"/>
        <pt x="329" y="831" on="1"/>
        <pt x="356" y="850" on="0"/>
        <pt x="376" y="850" on="1"/>
        <pt x="488" y="850" on="1"/>
        <pt x="508" y="850" on="0"/>
        <pt x="535" y="831" on="1"/>
        <pt x="618" y="761" on="1"/>
        <pt x="626" y="756" on="0"/>
        <pt x="626" y="747" on="1"/>
        <pt x="626" y="731" on="0"/>
        <pt x="610" y="731" on="1"/>
        <pt x="529" y="731" on="1"/>
        <pt x="511" y="731" on="0"/>
        <pt x="489" y="738" on="1"/>
        <pt x="432" y="760" on="1"/>
        <pt x="375" y="738" on="1"/>
        <pt x="353" y="731" on="0"/>
      </contour>
    </TTGlyph>
    <TTGlyph name="Cdotaccent" xMin="63" yMin="-10" xMax="804" yMax="850">
      <contour>
        <pt x="333" y="430" on="1"/>
        <pt x="333" y="270" on="1"/>
        <pt x="333" y="229" on="0"/>
        <pt x="388" y="185" on="0"/>
        <pt x="477" y="185" on="0"/>
        <pt x="517" y="213" on="0"/>
        <pt x="544" y="267" on="0"/>
        <pt x="566" y="267" on="1"/>
        <pt x="782" y="267" on="1"/>
        <pt x="791" y="267" on="0"/>
        <pt x="804" y="254" on="0"/>
        <pt x="804" y="245" on="1"/>
        <pt x="804" y="152" on="0"/>
        <pt x="716" y="75" on="1"/>
        <pt x="672" y="37" on="0"/>
        <pt x="526" y="-10" on="0"/>
        <pt x="328" y="-10" on="0"/>
        <pt x="165" y="51" on="0"/>
        <pt x="63" y="190" on="0"/>
        <pt x="63" y="291" on="1"/>
        <pt x="63" y="409" on="1"/>
        <pt x="63" y="510" on="0"/>
        <pt x="114" y="580" on="1"/>
        <pt x="210" y="710" on="0"/>
        <pt x="435" y="710" on="1"/>
        <pt x="526" y="710" on="0"/>
        <pt x="672" y="663" on="0"/>
        <pt x="716" y="625" on="1"/>
        <pt x="804" y="548" on="0"/>
        <pt x="804" y="455" on="1"/>
        <pt x="804" y="446" on="0"/>
        <pt x="791" y="433" on="0"/>
        <pt x="782" y="433" on="1"/>
        <pt x="566" y="433" on="1"/>
        <pt x="544" y="433" on="0"/>
        <pt x="517" y="487" on="0"/>
        <pt x="477" y="515" on="0"/>
        <pt x="388" y="515" on="0"/>
        <pt x="333" y="471" on="0"/>
      </contour>
      <contour>
        <pt x="359" y="850" on="1"/>
        <pt x="495" y="850" on="1"/>
        <pt x="505" y="850" on="0"/>
        <pt x="518" y="837" on="0"/>
        <pt x="518" y="827" on="1"/>
        <pt x="518" y="754" on="1"/>
        <pt x="518" y="744" on="0"/>
        <pt x="505" y="731" on="0"/>
        <pt x="495" y="731" on="1"/>
        <pt x="359" y="731" on="1"/>
        <pt x="349" y="731" on="0"/>
        <pt x="336" y="744" on="0"/>
        <pt x="336" y="754" on="1"/>
        <pt x="336" y="827" on="1"/>
        <pt x="336" y="837" on="0"/>
        <pt x="349" y="850" on="0"/>
      </contour>
    </TTGlyph>
    <TTGlyph name="Cedilla" xMin="341" yMin="-150" xMax="583" yMax="45">
      <contour>
        <pt x="424" y="45" on="1"/>
        <pt x="452" y="45" on="1"/>
        <pt x="475" y="45" on="0"/>
        <pt x="475" y="34" on="1"/>
        <pt x="475" y="29" on="0"/>
        <pt x="473" y="25" on="1"/>
        <pt x="455" y="-26" on="1"/>
        <pt x="464" y="-22" on="0"/>
        <pt x="532" y="-22" on="0"/>
        <pt x="583" y="-54" on="0"/>
        <pt x="583" y="-117" on="0"/>
        <pt x="512" y="-150" on="0"/>
        <pt x="417" y="-150" on="0"/>
        <pt x="341" y="-124" on="0"/>
        <pt x="341" y="-100" on="1"/>
        <pt x="341" y="-89" on="0"/>
        <pt x="354" y="-89" on="1"/>
        <pt x="415" y="-89" on="1"/>
        <pt x="426" y="-89" on="0"/>
        <pt x="448" y="-102" on="0"/>
        <pt x="496" y="-102" on="0"/>
        <pt x="496" y="-83" on="1"/>
        <pt x="496" y="-66" on="0"/>
        <pt x="468" y="-66" on="1"/>
        <pt x="454" y="-66" on="0"/>
        <pt x="428" y="-75" on="0"/>
        <pt x="420" y="-75" on="1"/>
        <pt x="376" y="-75" on="1"/>
        <pt x="361" y="-75" on="0"/>
        <pt x="361" y="-62" on="1"/>
        <pt x="361" y="-59" on="0"/>
        <pt x="363" y="-53" on="1"/>
        <pt x="391" y="33" on="1"/>
        <pt x="395" y="45" on="0"/>
      </contour>
    </TTGlyph>
    <TTGlyph name="Circumflex" xMin="231" yMin="731" xMax="619" yMax="850">
      <contour>
        <pt x="328" y="731" on="1"/>
        <pt x="247" y="731" on="1"/>
        <pt x="231" y="731" on="0"/>
        <pt x="231" y="747" on="1"/>
        <pt x="231" y="756" on="0"/>
        <pt x="239" y="761" on="1"/>
        <pt x="322" y="831" on="1"/>
        <pt x="349" y="850" on="0"/>
        <pt x="369" y="850" on="1"/>
        <pt x="481" y="850" on="1"/>
        <pt x="501" y="850" on="0"/>
        <pt x="528" y="831" on="1"/>
        <pt x="611" y="761" on="1"/>
        <pt x="619" y="756" on="0"/>
        <pt x="619" y="747" on="1"/>
        <pt x="619" y="731" on="0"/>
        <pt x="603" y="731" on="1"/>
        <pt x="522" y="731" on="1"/>
        <pt x="504" y="731" on="0"/>
        <pt x="482" y="738" on="1"/>
        <pt x="425" y="760" on="1"/>
        <pt x="368" y="738" on="1"/>
        <pt x="346" y="731" on="0"/>
      </contour>
    </TTGlyph>
    <TTGlyph name="D" xMin="76" yMin="0" xMax="794" yMax="700">
      <contour>
        <pt x="103" y="700" on="1"/>
        <pt x="422" y="700" on="1"/>
        <pt x="532" y="700" on="0"/>
        <pt x="694" y="642" on="0"/>
        <pt x="794" y="504" on="0"/>
        <pt x="794" y="401" on="1"/>
        <pt x="794" y="299" on="1"/>
        <pt x="794" y="139" on="0"/>
        <pt x="686" y="66" on="1"/>
        <pt x="587" y="0" on="0"/>
        <pt x="422" y="0" on="1"/>
        <pt x="103" y="0" on="1"/>
        <pt x="92" y="0" on="0"/>
        <pt x="76" y="16" on="0"/>
        <pt x="76" y="27" on="1"/>
        <pt x="76" y="673" on="1"/>
        <pt x="76" y="684" on="0"/>
        <pt x="92" y="700" on="0"/>
      </contour>
      <contour>
        <pt x="336" y="505" on="1"/>
        <pt x="336" y="195" on="1"/>
        <pt x="427" y="195" on="1"/>
        <pt x="474" y="195" on="0"/>
        <pt x="529" y="240" on="0"/>
        <pt x="529" y="281" on="1"/>
        <pt x="529" y="419" on="1"/>
        <pt x="529" y="460" on="0"/>
        <pt x="474" y="505" on="0"/>
        <pt x="427" y="505" on="1"/>
      </contour>
    </TTGlyph>
    <TTGlyph name="Dcaron" xMin="76" yMin="0" xMax="794" yMax="850">
      <contour>
        <pt x="103" y="700" on="1"/>
        <pt x="422" y="700" on="1"/>
        <pt x="532" y="700" on="0"/>
        <pt x="694" y="642" on="0"/>
        <pt x="794" y="504" on="0"/>
        <pt x="794" y="401" on="1"/>
        <pt x="794" y="299" on="1"/>
        <pt x="794" y="139" on="0"/>
        <pt x="686" y="66" on="1"/>
        <pt x="587" y="0" on="0"/>
        <pt x="422" y="0" on="1"/>
        <pt x="103" y="0" on="1"/>
        <pt x="92" y="0" on="0"/>
        <pt x="76" y="16" on="0"/>
        <pt x="76" y="27" on="1"/>
        <pt x="76" y="673" on="1"/>
        <pt x="76" y="684" on="0"/>
        <pt x="92" y="700" on="0"/>
      </contour>
      <contour>
        <pt x="336" y="505" on="1"/>
        <pt x="336" y="195" on="1"/>
        <pt x="427" y="195" on="1"/>
        <pt x="474" y="195" on="0"/>
        <pt x="529" y="240" on="0"/>
        <pt x="529" y="281" on="1"/>
        <pt x="529" y="419" on="1"/>
        <pt x="529" y="460" on="0"/>
        <pt x="474" y="505" on="0"/>
        <pt x="427" y="505" on="1"/>
      </contour>
      <contour>
        <pt x="482" y="850" on="1"/>
        <pt x="563" y="850" on="1"/>
        <pt x="579" y="850" on="0"/>
        <pt x="579" y="834" on="1"/>
        <pt x="579" y="825" on="0"/>
        <pt x="571" y="820" on="1"/>
        <pt x="488" y="750" on="1"/>
        <pt x="461" y="731" on="0"/>
        <pt x="441" y="731" on="1"/>
        <pt x="329" y="731" on="1"/>
        <pt x="309" y="731" on="0"/>
        <pt x="282" y="750" on="1"/>
        <pt x="199" y="820" on="1"/>
        <pt x="191" y="825" on="0"/>
        <pt x="191" y="834" on="1"/>
        <pt x="191" y="850" on="0"/>
        <pt x="207" y="850" on="1"/>
        <pt x="288" y="850" on="1"/>
        <pt x="306" y="850" on="0"/>
        <pt x="328" y="843" on="1"/>
        <pt x="385" y="821" on="1"/>
        <pt x="442" y="843" on="1"/>
        <pt x="464" y="850" on="0"/>
      </contour>
    </TTGlyph>
    <TTGlyph name="Dcroat" xMin="0" yMin="0" xMax="794" yMax="700">
      <contour>
        <pt x="103" y="700" on="1"/>
        <pt x="422" y="700" on="1"/>
        <pt x="532" y="700" on="0"/>
        <pt x="694" y="642" on="0"/>
        <pt x="794" y="504" on="0"/>
        <pt x="794" y="401" on="1"/>
        <pt x="794" y="299" on="1"/>
        <pt x="794" y="139" on="0"/>
        <pt x="686" y="66" on="1"/>
        <pt x="587" y="0" on="0"/>
        <pt x="422" y="0" on="1"/>
        <pt x="103" y="0" on="1"/>
        <pt x="92" y="0" on="0"/>
        <pt x="76" y="16" on="0"/>
        <pt x="76" y="27" on="1"/>
        <pt x="76" y="274" on="1"/>
        <pt x="27" y="274" on="1"/>
        <pt x="16" y="274" on="0"/>
        <pt x="0" y="290" on="0"/>
        <pt x="0" y="301" on="1"/>
        <pt x="0" y="402" on="1"/>
        <pt x="0" y="413" on="0"/>
        <pt x="16" y="429" on="0"/>
        <pt x="27" y="429" on="1"/>
        <pt x="76" y="429" on="1"/>
        <pt x="76" y="673" on="1"/>
        <pt x="76" y="684" on="0"/>
        <pt x="92" y="700" on="0"/>
      </contour>
      <contour>
        <pt x="336" y="505" on="1"/>
        <pt x="336" y="429" on="1"/>
        <pt x="371" y="429" on="1"/>
        <pt x="382" y="429" on="0"/>
        <pt x="398" y="413" on="0"/>
        <pt x="398" y="402" on="1"/>
        <pt x="398" y="301" on="1"/>
        <pt x="398" y="290" on="0"/>
        <pt x="382" y="274" on="0"/>
        <pt x="371" y="274" on="1"/>
        <pt x="336" y="274" on="1"/>
        <pt x="336" y="195" on="1"/>
        <pt x="427" y="195" on="1"/>
        <pt x="474" y="195" on="0"/>
        <pt x="529" y="240" on="0"/>
        <pt x="529" y="281" on="1"/>
        <pt x="529" y="419" on="1"/>
        <pt x="529" y="460" on="0"/>
        <pt x="474" y="505" on="0"/>
        <pt x="427" y="505" on="1"/>
      </contour>
    </TTGlyph>
    <TTGlyph name="Dieresis" xMin="219" yMin="731" xMax="632" yMax="850">
      <contour>
        <pt x="493" y="850" on="1"/>
        <pt x="609" y="850" on="1"/>
        <pt x="619" y="850" on="0"/>
        <pt x="632" y="837" on="0"/>
        <pt x="632" y="827" on="1"/>
        <pt x="632" y="754" on="1"/>
        <pt x="632" y="744" on="0"/>
        <pt x="619" y="731" on="0"/>
        <pt x="609" y="731" on="1"/>
        <pt x="493" y="731" on="1"/>
        <pt x="483" y="731" on="0"/>
        <pt x="470" y="744" on="0"/>
        <pt x="470" y="754" on="1"/>
        <pt x="470" y="827" on="1"/>
        <pt x="470" y="837" on="0"/>
        <pt x="483" y="850" on="0"/>
      </contour>
      <contour>
        <pt x="242" y="850" on="1"/>
        <pt x="358" y="850" on="1"/>
        <pt x="368" y="850" on="0"/>
        <pt x="381" y="837" on="0"/>
        <pt x="381" y="827" on="1"/>
        <pt x="381" y="754" on="1"/>
        <pt x="381" y="744" on="0"/>
        <pt x="368" y="731" on="0"/>
        <pt x="358" y="731" on="1"/>
        <pt x="242" y="731" on="1"/>
        <pt x="232" y="731" on="0"/>
        <pt x="219" y="744" on="0"/>
        <pt x="219" y="754" on="1"/>
        <pt x="219" y="827" on="1"/>
        <pt x="219" y="837" on="0"/>
        <pt x="232" y="850" on="0"/>
      </contour>
    </TTGlyph>
    <TTGlyph name="Dotaccent" xMin="334" yMin="731" xMax="516" yMax="850">
      <contour>
        <pt x="357" y="850" on="1"/>
        <pt x="493" y="850" on="1"/>
        <pt x="503" y="850" on="0"/>
        <pt x="516" y="837" on="0"/>
        <pt x="516" y="827" on="1"/>
        <pt x="516" y="754" on="1"/>
        <pt x="516" y="744" on="0"/>
        <pt x="503" y="731" on="0"/>
        <pt x="493" y="731" on="1"/>
        <pt x="357" y="731" on="1"/>
        <pt x="347" y="731" on="0"/>
        <pt x="334" y="744" on="0"/>
        <pt x="334" y="754" on="1"/>
        <pt x="334" y="827" on="1"/>
        <pt x="334" y="837" on="0"/>
        <pt x="347" y="850" on="0"/>
      </contour>
    </TTGlyph>
    <TTGlyph name="E" xMin="90" yMin="0" xMax="776" yMax="700">
      <contour>
        <pt x="350" y="195" on="1"/>
        <pt x="749" y="195" on="1"/>
        <pt x="760" y="195" on="0"/>
        <pt x="776" y="179" on="0"/>
        <pt x="776" y="168" on="1"/>
        <pt x="776" y="27" on="1"/>
        <pt x="776" y="16" on="0"/>
        <pt x="760" y="0" on="0"/>
        <pt x="749" y="0" on="1"/>
        <pt x="117" y="0" on="1"/>
        <pt x="106" y="0" on="0"/>
        <pt x="90" y="16" on="0"/>
        <pt x="90" y="27" on="1"/>
        <pt x="90" y="673" on="1"/>
        <pt x="90" y="684" on="0"/>
        <pt x="106" y="700" on="0"/>
        <pt x="117" y="700" on="1"/>
        <pt x="739" y="700" on="1"/>
        <pt x="750" y="700" on="0"/>
        <pt x="766" y="684" on="0"/>
        <pt x="766" y="673" on="1"/>
        <pt x="766" y="532" on="1"/>
        <pt x="766" y="521" on="0"/>
        <pt x="750" y="505" on="0"/>
        <pt x="739" y="505" on="1"/>
        <pt x="350" y="505" on="1"/>
        <pt x="350" y="442" on="1"/>
        <pt x="684" y="442" on="1"/>
        <pt x="695" y="442" on="0"/>
        <pt x="711" y="426" on="0"/>
        <pt x="711" y="415" on="1"/>
        <pt x="711" y="285" on="1"/>
        <pt x="711" y="274" on="0"/>
        <pt x="695" y="258" on="0"/>
        <pt x="684" y="258" on="1"/>
        <pt x="350" y="258" on="1"/>
      </contour>
    </TTGlyph>
    <TTGlyph name="Eacute" xMin="100" yMin="0" xMax="786" yMax="854">
      <contour>
        <pt x="601" y="854" on="1"/>
        <pt x="620" y="854" on="0"/>
        <pt x="620" y="834" on="1"/>
        <pt x="620" y="827" on="0"/>
        <pt x="615" y="822" on="1"/>
        <pt x="520" y="742" on="1"/>
        <pt x="511" y="735" on="0"/>
        <pt x="492" y="735" on="1"/>
        <pt x="359" y="735" on="1"/>
        <pt x="343" y="735" on="0"/>
        <pt x="343" y="751" on="1"/>
        <pt x="343" y="759" on="0"/>
        <pt x="348" y="764" on="1"/>
        <pt x="406" y="835" on="1"/>
        <pt x="420" y="852" on="0"/>
        <pt x="443" y="854" on="1"/>
      </contour>
      <contour>
        <pt x="360" y="195" on="1"/>
        <pt x="759" y="195" on="1"/>
        <pt x="770" y="195" on="0"/>
        <pt x="786" y="179" on="0"/>
        <pt x="786" y="168" on="1"/>
        <pt x="786" y="27" on="1"/>
        <pt x="786" y="16" on="0"/>
        <pt x="770" y="0" on="0"/>
        <pt x="759" y="0" on="1"/>
        <pt x="127" y="0" on="1"/>
        <pt x="116" y="0" on="0"/>
        <pt x="100" y="16" on="0"/>
        <pt x="100" y="27" on="1"/>
        <pt x="100" y="673" on="1"/>
        <pt x="100" y="684" on="0"/>
        <pt x="116" y="700" on="0"/>
        <pt x="127" y="700" on="1"/>
        <pt x="749" y="700" on="1"/>
        <pt x="760" y="700" on="0"/>
        <pt x="776" y="684" on="0"/>
        <pt x="776" y="673" on="1"/>
        <pt x="776" y="532" on="1"/>
        <pt x="776" y="521" on="0"/>
        <pt x="760" y="505" on="0"/>
        <pt x="749" y="505" on="1"/>
        <pt x="360" y="505" on="1"/>
        <pt x="360" y="442" on="1"/>
        <pt x="694" y="442" on="1"/>
        <pt x="705" y="442" on="0"/>
        <pt x="721" y="426" on="0"/>
        <pt x="721" y="415" on="1"/>
        <pt x="721" y="285" on="1"/>
        <pt x="721" y="274" on="0"/>
        <pt x="705" y="258" on="0"/>
        <pt x="694" y="258" on="1"/>
        <pt x="360" y="258" on="1"/>
      </contour>
    </TTGlyph>
    <TTGlyph name="Ebreve" xMin="90" yMin="0" xMax="776" yMax="855">
      <contour>
        <pt x="350" y="195" on="1"/>
        <pt x="749" y="195" on="1"/>
        <pt x="760" y="195" on="0"/>
        <pt x="776" y="179" on="0"/>
        <pt x="776" y="168" on="1"/>
        <pt x="776" y="27" on="1"/>
        <pt x="776" y="16" on="0"/>
        <pt x="760" y="0" on="0"/>
        <pt x="749" y="0" on="1"/>
        <pt x="117" y="0" on="1"/>
        <pt x="106" y="0" on="0"/>
        <pt x="90" y="16" on="0"/>
        <pt x="90" y="27" on="1"/>
        <pt x="90" y="673" on="1"/>
        <pt x="90" y="684" on="0"/>
        <pt x="106" y="700" on="0"/>
        <pt x="117" y="700" on="1"/>
        <pt x="739" y="700" on="1"/>
        <pt x="750" y="700" on="0"/>
        <pt x="766" y="684" on="0"/>
        <pt x="766" y="673" on="1"/>
        <pt x="766" y="532" on="1"/>
        <pt x="766" y="521" on="0"/>
        <pt x="750" y="505" on="0"/>
        <pt x="739" y="505" on="1"/>
        <pt x="350" y="505" on="1"/>
        <pt x="350" y="442" on="1"/>
        <pt x="684" y="442" on="1"/>
        <pt x="695" y="442" on="0"/>
        <pt x="711" y="426" on="0"/>
        <pt x="711" y="415" on="1"/>
        <pt x="711" y="285" on="1"/>
        <pt x="711" y="274" on="0"/>
        <pt x="695" y="258" on="0"/>
        <pt x="684" y="258" on="1"/>
        <pt x="350" y="258" on="1"/>
      </contour>
      <contour>
        <pt x="494" y="855" on="1"/>
        <pt x="593" y="855" on="1"/>
        <pt x="612" y="855" on="0"/>
        <pt x="612" y="842" on="1"/>
        <pt x="612" y="795" on="0"/>
        <pt x="520" y="730" on="0"/>
        <pt x="349" y="730" on="0"/>
        <pt x="257" y="795" on="0"/>
        <pt x="257" y="842" on="1"/>
        <pt x="257" y="855" on="0"/>
        <pt x="276" y="855" on="1"/>
        <pt x="375" y="855" on="1"/>
        <pt x="390" y="855" on="0"/>
        <pt x="394" y="842" on="1"/>
        <pt x="400" y="817" on="0"/>
        <pt x="464" y="817" on="0"/>
        <pt x="475" y="842" on="1"/>
        <pt x="482" y="855" on="0"/>
      </contour>
    </TTGlyph>
    <TTGlyph name="Ecaron" xMin="90" yMin="0" xMax="776" yMax="850">
      <contour>
        <pt x="350" y="195" on="1"/>
        <pt x="749" y="195" on="1"/>
        <pt x="760" y="195" on="0"/>
        <pt x="776" y="179" on="0"/>
        <pt x="776" y="168" on="1"/>
        <pt x="776" y="27" on="1"/>
        <pt x="776" y="16" on="0"/>
        <pt x="760" y="0" on="0"/>
        <pt x="749" y="0" on="1"/>
        <pt x="117" y="0" on="1"/>
        <pt x="106" y="0" on="0"/>
        <pt x="90" y="16" on="0"/>
        <pt x="90" y="27" on="1"/>
        <pt x="90" y="673" on="1"/>
        <pt x="90" y="684" on="0"/>
        <pt x="106" y="700" on="0"/>
        <pt x="117" y="700" on="1"/>
        <pt x="739" y="700" on="1"/>
        <pt x="750" y="700" on="0"/>
        <pt x="766" y="684" on="0"/>
        <pt x="766" y="673" on="1"/>
        <pt x="766" y="532" on="1"/>
        <pt x="766" y="521" on="0"/>
        <pt x="750" y="505" on="0"/>
        <pt x="739" y="505" on="1"/>
        <pt x="350" y="505" on="1"/>
        <pt x="350" y="442" on="1"/>
        <pt x="684" y="442" on="1"/>
        <pt x="695" y="442" on="0"/>
        <pt x="711" y="426" on="0"/>
        <pt x="711" y="415" on="1"/>
        <pt x="711" y="285" on="1"/>
        <pt x="711" y="274" on="0"/>
        <pt x="695" y="258" on="0"/>
        <pt x="684" y="258" on="1"/>
        <pt x="350" y="258" on="1"/>
      </contour>
      <contour>
        <pt x="522" y="850" on="1"/>
        <pt x="603" y="850" on="1"/>
        <pt x="619" y="850" on="0"/>
        <pt x="619" y="834" on="1"/>
        <pt x="619" y="825" on="0"/>
        <pt x="611" y="820" on="1"/>
        <pt x="528" y="750" on="1"/>
        <pt x="501" y="731" on="0"/>
        <pt x="481" y="731" on="1"/>
        <pt x="369" y="731" on="1"/>
        <pt x="349" y="731" on="0"/>
        <pt x="322" y="750" on="1"/>
        <pt x="239" y="820" on="1"/>
        <pt x="231" y="825" on="0"/>
        <pt x="231" y="834" on="1"/>
        <pt x="231" y="850" on="0"/>
        <pt x="247" y="850" on="1"/>
        <pt x="328" y="850" on="1"/>
        <pt x="346" y="850" on="0"/>
        <pt x="368" y="843" on="1"/>
        <pt x="425" y="821" on="1"/>
        <pt x="482" y="843" on="1"/>
        <pt x="504" y="850" on="0"/>
      </contour>
    </TTGlyph>
    <TTGlyph name="Ecircumflex" xMin="100" yMin="0" xMax="786" yMax="850">
      <contour>
        <pt x="360" y="195" on="1"/>
        <pt x="759" y="195" on="1"/>
        <pt x="770" y="195" on="0"/>
        <pt x="786" y="179" on="0"/>
        <pt x="786" y="168" on="1"/>
        <pt x="786" y="27" on="1"/>
        <pt x="786" y="16" on="0"/>
        <pt x="770" y="0" on="0"/>
        <pt x="759" y="0" on="1"/>
        <pt x="127" y="0" on="1"/>
        <pt x="116" y="0" on="0"/>
        <pt x="100" y="16" on="0"/>
        <pt x="100" y="27" on="1"/>
        <pt x="100" y="673" on="1"/>
        <pt x="100" y="684" on="0"/>
        <pt x="116" y="700" on="0"/>
        <pt x="127" y="700" on="1"/>
        <pt x="749" y="700" on="1"/>
        <pt x="760" y="700" on="0"/>
        <pt x="776" y="684" on="0"/>
        <pt x="776" y="673" on="1"/>
        <pt x="776" y="532" on="1"/>
        <pt x="776" y="521" on="0"/>
        <pt x="760" y="505" on="0"/>
        <pt x="749" y="505" on="1"/>
        <pt x="360" y="505" on="1"/>
        <pt x="360" y="442" on="1"/>
        <pt x="694" y="442" on="1"/>
        <pt x="705" y="442" on="0"/>
        <pt x="721" y="426" on="0"/>
        <pt x="721" y="415" on="1"/>
        <pt x="721" y="285" on="1"/>
        <pt x="721" y="274" on="0"/>
        <pt x="705" y="258" on="0"/>
        <pt x="694" y="258" on="1"/>
        <pt x="360" y="258" on="1"/>
      </contour>
      <contour>
        <pt x="327" y="731" on="1"/>
        <pt x="246" y="731" on="1"/>
        <pt x="230" y="731" on="0"/>
        <pt x="230" y="747" on="1"/>
        <pt x="230" y="756" on="0"/>
        <pt x="238" y="761" on="1"/>
        <pt x="321" y="831" on="1"/>
        <pt x="348" y="850" on="0"/>
        <pt x="368" y="850" on="1"/>
        <pt x="480" y="850" on="1"/>
        <pt x="500" y="850" on="0"/>
        <pt x="527" y="831" on="1"/>
        <pt x="610" y="761" on="1"/>
        <pt x="618" y="756" on="0"/>
        <pt x="618" y="747" on="1"/>
        <pt x="618" y="731" on="0"/>
        <pt x="602" y="731" on="1"/>
        <pt x="521" y="731" on="1"/>
        <pt x="503" y="731" on="0"/>
        <pt x="481" y="738" on="1"/>
        <pt x="424" y="760" on="1"/>
        <pt x="367" y="738" on="1"/>
        <pt x="345" y="731" on="0"/>
      </contour>
    </TTGlyph>
    <TTGlyph name="Edieresis" xMin="100" yMin="0" xMax="786" yMax="850">
      <contour>
        <pt x="360" y="195" on="1"/>
        <pt x="759" y="195" on="1"/>
        <pt x="770" y="195" on="0"/>
        <pt x="786" y="179" on="0"/>
        <pt x="786" y="168" on="1"/>
        <pt x="786" y="27" on="1"/>
        <pt x="786" y="16" on="0"/>
        <pt x="770" y="0" on="0"/>
        <pt x="759" y="0" on="1"/>
        <pt x="127" y="0" on="1"/>
        <pt x="116" y="0" on="0"/>
        <pt x="100" y="16" on="0"/>
        <pt x="100" y="27" on="1"/>
        <pt x="100" y="673" on="1"/>
        <pt x="100" y="684" on="0"/>
        <pt x="116" y="700" on="0"/>
        <pt x="127" y="700" on="1"/>
        <pt x="749" y="700" on="1"/>
        <pt x="760" y="700" on="0"/>
        <pt x="776" y="684" on="0"/>
        <pt x="776" y="673" on="1"/>
        <pt x="776" y="532" on="1"/>
        <pt x="776" y="521" on="0"/>
        <pt x="760" y="505" on="0"/>
        <pt x="749" y="505" on="1"/>
        <pt x="360" y="505" on="1"/>
        <pt x="360" y="442" on="1"/>
        <pt x="694" y="442" on="1"/>
        <pt x="705" y="442" on="0"/>
        <pt x="721" y="426" on="0"/>
        <pt x="721" y="415" on="1"/>
        <pt x="721" y="285" on="1"/>
        <pt x="721" y="274" on="0"/>
        <pt x="705" y="258" on="0"/>
        <pt x="694" y="258" on="1"/>
        <pt x="360" y="258" on="1"/>
      </contour>
      <contour>
        <pt x="500" y="850" on="1"/>
        <pt x="616" y="850" on="1"/>
        <pt x="626" y="850" on="0"/>
        <pt x="639" y="837" on="0"/>
        <pt x="639" y="827" on="1"/>
        <pt x="639" y="754" on="1"/>
        <pt x="639" y="744" on="0"/>
        <pt x="626" y="731" on="0"/>
        <pt x="616" y="731" on="1"/>
        <pt x="500" y="731" on="1"/>
        <pt x="490" y="731" on="0"/>
        <pt x="477" y="744" on="0"/>
        <pt x="477" y="754" on="1"/>
        <pt x="477" y="827" on="1"/>
        <pt x="477" y="837" on="0"/>
        <pt x="490" y="850" on="0"/>
      </contour>
      <contour>
        <pt x="249" y="850" on="1"/>
        <pt x="365" y="850" on="1"/>
        <pt x="375" y="850" on="0"/>
        <pt x="388" y="837" on="0"/>
        <pt x="388" y="827" on="1"/>
        <pt x="388" y="754" on="1"/>
        <pt x="388" y="744" on="0"/>
        <pt x="375" y="731" on="0"/>
        <pt x="365" y="731" on="1"/>
        <pt x="249" y="731" on="1"/>
        <pt x="239" y="731" on="0"/>
        <pt x="226" y="744" on="0"/>
        <pt x="226" y="754" on="1"/>
        <pt x="226" y="827" on="1"/>
        <pt x="226" y="837" on="0"/>
        <pt x="239" y="850" on="0"/>
      </contour>
    </TTGlyph>
    <TTGlyph name="Edotaccent" xMin="90" yMin="0" xMax="776" yMax="850">
      <contour>
        <pt x="350" y="195" on="1"/>
        <pt x="749" y="195" on="1"/>
        <pt x="760" y="195" on="0"/>
        <pt x="776" y="179" on="0"/>
        <pt x="776" y="168" on="1"/>
        <pt x="776" y="27" on="1"/>
        <pt x="776" y="16" on="0"/>
        <pt x="760" y="0" on="0"/>
        <pt x="749" y="0" on="1"/>
        <pt x="117" y="0" on="1"/>
        <pt x="106" y="0" on="0"/>
        <pt x="90" y="16" on="0"/>
        <pt x="90" y="27" on="1"/>
        <pt x="90" y="673" on="1"/>
        <pt x="90" y="684" on="0"/>
        <pt x="106" y="700" on="0"/>
        <pt x="117" y="700" on="1"/>
        <pt x="739" y="700" on="1"/>
        <pt x="750" y="700" on="0"/>
        <pt x="766" y="684" on="0"/>
        <pt x="766" y="673" on="1"/>
        <pt x="766" y="532" on="1"/>
        <pt x="766" y="521" on="0"/>
        <pt x="750" y="505" on="0"/>
        <pt x="739" y="505" on="1"/>
        <pt x="350" y="505" on="1"/>
        <pt x="350" y="442" on="1"/>
        <pt x="684" y="442" on="1"/>
        <pt x="695" y="442" on="0"/>
        <pt x="711" y="426" on="0"/>
        <pt x="711" y="415" on="1"/>
        <pt x="711" y="285" on="1"/>
        <pt x="711" y="274" on="0"/>
        <pt x="695" y="258" on="0"/>
        <pt x="684" y="258" on="1"/>
        <pt x="350" y="258" on="1"/>
      </contour>
      <contour>
        <pt x="357" y="850" on="1"/>
        <pt x="493" y="850" on="1"/>
        <pt x="503" y="850" on="0"/>
        <pt x="516" y="837" on="0"/>
        <pt x="516" y="827" on="1"/>
        <pt x="516" y="754" on="1"/>
        <pt x="516" y="744" on="0"/>
        <pt x="503" y="731" on="0"/>
        <pt x="493" y="731" on="1"/>
        <pt x="357" y="731" on="1"/>
        <pt x="347" y="731" on="0"/>
        <pt x="334" y="744" on="0"/>
        <pt x="334" y="754" on="1"/>
        <pt x="334" y="827" on="1"/>
        <pt x="334" y="837" on="0"/>
        <pt x="347" y="850" on="0"/>
      </contour>
    </TTGlyph>
    <TTGlyph name="Egrave" xMin="100" yMin="0" xMax="786" yMax="850">
      <contour>
        <pt x="360" y="195" on="1"/>
        <pt x="759" y="195" on="1"/>
        <pt x="770" y="195" on="0"/>
        <pt x="786" y="179" on="0"/>
        <pt x="786" y="168" on="1"/>
        <pt x="786" y="27" on="1"/>
        <pt x="786" y="16" on="0"/>
        <pt x="770" y="0" on="0"/>
        <pt x="759" y="0" on="1"/>
        <pt x="127" y="0" on="1"/>
        <pt x="116" y="0" on="0"/>
        <pt x="100" y="16" on="0"/>
        <pt x="100" y="27" on="1"/>
        <pt x="100" y="673" on="1"/>
        <pt x="100" y="684" on="0"/>
        <pt x="116" y="700" on="0"/>
        <pt x="127" y="700" on="1"/>
        <pt x="749" y="700" on="1"/>
        <pt x="760" y="700" on="0"/>
        <pt x="776" y="684" on="0"/>
        <pt x="776" y="673" on="1"/>
        <pt x="776" y="532" on="1"/>
        <pt x="776" y="521" on="0"/>
        <pt x="760" y="505" on="0"/>
        <pt x="749" y="505" on="1"/>
        <pt x="360" y="505" on="1"/>
        <pt x="360" y="442" on="1"/>
        <pt x="694" y="442" on="1"/>
        <pt x="705" y="442" on="0"/>
        <pt x="721" y="426" on="0"/>
        <pt x="721" y="415" on="1"/>
        <pt x="721" y="285" on="1"/>
        <pt x="721" y="274" on="0"/>
        <pt x="705" y="258" on="0"/>
        <pt x="694" y="258" on="1"/>
        <pt x="360" y="258" on="1"/>
      </contour>
      <contour>
        <pt x="551" y="747" on="1"/>
        <pt x="551" y="731" on="0"/>
        <pt x="535" y="731" on="1"/>
        <pt x="402" y="731" on="1"/>
        <pt x="383" y="731" on="0"/>
        <pt x="374" y="738" on="1"/>
        <pt x="279" y="818" on="1"/>
        <pt x="274" y="823" on="0"/>
        <pt x="274" y="830" on="1"/>
        <pt x="274" y="850" on="0"/>
        <pt x="293" y="850" on="1"/>
        <pt x="451" y="850" on="1"/>
        <pt x="474" y="848" on="0"/>
        <pt x="488" y="831" on="1"/>
        <pt x="546" y="760" on="1"/>
        <pt x="551" y="755" on="0"/>
      </contour>
    </TTGlyph>
    <TTGlyph name="Emacron" xMin="90" yMin="0" xMax="776" yMax="850">
      <contour>
        <pt x="350" y="195" on="1"/>
        <pt x="749" y="195" on="1"/>
        <pt x="760" y="195" on="0"/>
        <pt x="776" y="179" on="0"/>
        <pt x="776" y="168" on="1"/>
        <pt x="776" y="27" on="1"/>
        <pt x="776" y="16" on="0"/>
        <pt x="760" y="0" on="0"/>
        <pt x="749" y="0" on="1"/>
        <pt x="117" y="0" on="1"/>
        <pt x="106" y="0" on="0"/>
        <pt x="90" y="16" on="0"/>
        <pt x="90" y="27" on="1"/>
        <pt x="90" y="673" on="1"/>
        <pt x="90" y="684" on="0"/>
        <pt x="106" y="700" on="0"/>
        <pt x="117" y="700" on="1"/>
        <pt x="739" y="700" on="1"/>
        <pt x="750" y="700" on="0"/>
        <pt x="766" y="684" on="0"/>
        <pt x="766" y="673" on="1"/>
        <pt x="766" y="532" on="1"/>
        <pt x="766" y="521" on="0"/>
        <pt x="750" y="505" on="0"/>
        <pt x="739" y="505" on="1"/>
        <pt x="350" y="505" on="1"/>
        <pt x="350" y="442" on="1"/>
        <pt x="684" y="442" on="1"/>
        <pt x="695" y="442" on="0"/>
        <pt x="711" y="426" on="0"/>
        <pt x="711" y="415" on="1"/>
        <pt x="711" y="285" on="1"/>
        <pt x="711" y="274" on="0"/>
        <pt x="695" y="258" on="0"/>
        <pt x="684" y="258" on="1"/>
        <pt x="350" y="258" on="1"/>
      </contour>
      <contour>
        <pt x="232" y="850" on="1"/>
        <pt x="599" y="850" on="1"/>
        <pt x="609" y="850" on="0"/>
        <pt x="622" y="837" on="0"/>
        <pt x="622" y="827" on="1"/>
        <pt x="622" y="754" on="1"/>
        <pt x="622" y="744" on="0"/>
        <pt x="609" y="731" on="0"/>
        <pt x="599" y="731" on="1"/>
        <pt x="232" y="731" on="1"/>
        <pt x="222" y="731" on="0"/>
        <pt x="209" y="744" on="0"/>
        <pt x="209" y="754" on="1"/>
        <pt x="209" y="827" on="1"/>
        <pt x="209" y="837" on="0"/>
        <pt x="222" y="850" on="0"/>
      </contour>
    </TTGlyph>
    <TTGlyph name="Eng" xMin="79" yMin="-150" xMax="765" yMax="700">
      <contour>
        <pt x="319" y="27" on="1"/>
        <pt x="319" y="16" on="0"/>
        <pt x="303" y="0" on="0"/>
        <pt x="292" y="0" on="1"/>
        <pt x="106" y="0" on="1"/>
        <pt x="95" y="0" on="0"/>
        <pt x="79" y="16" on="0"/>
        <pt x="79" y="27" on="1"/>
        <pt x="79" y="673" on="1"/>
        <pt x="79" y="684" on="0"/>
        <pt x="95" y="700" on="0"/>
        <pt x="106" y="700" on="1"/>
        <pt x="268" y="700" on="1"/>
        <pt x="292" y="700" on="0"/>
        <pt x="307" y="680" on="1"/>
        <pt x="525" y="379" on="1"/>
        <pt x="525" y="673" on="1"/>
        <pt x="525" y="684" on="0"/>
        <pt x="541" y="700" on="0"/>
        <pt x="552" y="700" on="1"/>
        <pt x="738" y="700" on="1"/>
        <pt x="749" y="700" on="0"/>
        <pt x="765" y="684" on="0"/>
        <pt x="765" y="673" on="1"/>
        <pt x="765" y="108" on="1"/>
        <pt x="765" y="-44" on="0"/>
        <pt x="684" y="-100" on="1"/>
        <pt x="612" y="-150" on="0"/>
        <pt x="493" y="-150" on="1"/>
        <pt x="423" y="-150" on="1"/>
        <pt x="412" y="-150" on="0"/>
        <pt x="396" y="-134" on="0"/>
        <pt x="396" y="-123" on="1"/>
        <pt x="396" y="-67" on="1"/>
        <pt x="396" y="-56" on="0"/>
        <pt x="412" y="-40" on="0"/>
        <pt x="423" y="-40" on="1"/>
        <pt x="445" y="-39" on="1"/>
        <pt x="519" y="-29" on="0"/>
        <pt x="524" y="36" on="1"/>
        <pt x="319" y="299" on="1"/>
      </contour>
    </TTGlyph>
    <TTGlyph name="Eogonek" xMin="90" yMin="-142" xMax="776" yMax="700">
      <contour>
        <pt x="350" y="195" on="1"/>
        <pt x="749" y="195" on="1"/>
        <pt x="760" y="195" on="0"/>
        <pt x="776" y="179" on="0"/>
        <pt x="776" y="168" on="1"/>
        <pt x="776" y="27" on="1"/>
        <pt x="776" y="16" on="0"/>
        <pt x="760" y="0" on="0"/>
        <pt x="749" y="0" on="1"/>
        <pt x="742" y="0" on="1"/>
        <pt x="699" y="0" on="0"/>
        <pt x="699" y="-52" on="0"/>
        <pt x="742" y="-52" on="1"/>
        <pt x="749" y="-52" on="1"/>
        <pt x="776" y="-52" on="0"/>
        <pt x="776" y="-77" on="1"/>
        <pt x="776" y="-118" on="1"/>
        <pt x="776" y="-129" on="0"/>
        <pt x="761" y="-142" on="0"/>
        <pt x="749" y="-142" on="1"/>
        <pt x="735" y="-142" on="1"/>
        <pt x="583" y="-142" on="0"/>
        <pt x="583" y="-26" on="1"/>
        <pt x="583" y="-8" on="0"/>
        <pt x="585" y="0" on="1"/>
        <pt x="117" y="0" on="1"/>
        <pt x="106" y="0" on="0"/>
        <pt x="90" y="16" on="0"/>
        <pt x="90" y="27" on="1"/>
        <pt x="90" y="673" on="1"/>
        <pt x="90" y="684" on="0"/>
        <pt x="106" y="700" on="0"/>
        <pt x="117" y="700" on="1"/>
        <pt x="739" y="700" on="1"/>
        <pt x="750" y="700" on="0"/>
        <pt x="766" y="684" on="0"/>
        <pt x="766" y="673" on="1"/>
        <pt x="766" y="532" on="1"/>
        <pt x="766" y="521" on="0"/>
        <pt x="750" y="505" on="0"/>
        <pt x="739" y="505" on="1"/>
        <pt x="350" y="505" on="1"/>
        <pt x="350" y="442" on="1"/>
        <pt x="684" y="442" on="1"/>
        <pt x="695" y="442" on="0"/>
        <pt x="711" y="426" on="0"/>
        <pt x="711" y="415" on="1"/>
        <pt x="711" y="285" on="1"/>
        <pt x="711" y="274" on="0"/>
        <pt x="695" y="258" on="0"/>
        <pt x="684" y="258" on="1"/>
        <pt x="350" y="258" on="1"/>
      </contour>
    </TTGlyph>
    <TTGlyph name="Eth" xMin="0" yMin="0" xMax="794" yMax="700">
      <contour>
        <pt x="103" y="700" on="1"/>
        <pt x="422" y="700" on="1"/>
        <pt x="532" y="700" on="0"/>
        <pt x="694" y="642" on="0"/>
        <pt x="794" y="504" on="0"/>
        <pt x="794" y="401" on="1"/>
        <pt x="794" y="299" on="1"/>
        <pt x="794" y="139" on="0"/>
        <pt x="686" y="66" on="1"/>
        <pt x="587" y="0" on="0"/>
        <pt x="422" y="0" on="1"/>
        <pt x="103" y="0" on="1"/>
        <pt x="92" y="0" on="0"/>
        <pt x="76" y="16" on="0"/>
        <pt x="76" y="27" on="1"/>
        <pt x="76" y="274" on="1"/>
        <pt x="27" y="274" on="1"/>
        <pt x="16" y="274" on="0"/>
        <pt x="0" y="290" on="0"/>
        <pt x="0" y="301" on="1"/>
        <pt x="0" y="402" on="1"/>
        <pt x="0" y="413" on="0"/>
        <pt x="16" y="429" on="0"/>
        <pt x="27" y="429" on="1"/>
        <pt x="76" y="429" on="1"/>
        <pt x="76" y="673" on="1"/>
        <pt x="76" y="684" on="0"/>
        <pt x="92" y="700" on="0"/>
      </contour>
      <contour>
        <pt x="336" y="505" on="1"/>
        <pt x="336" y="429" on="1"/>
        <pt x="421" y="429" on="1"/>
        <pt x="432" y="429" on="0"/>
        <pt x="448" y="413" on="0"/>
        <pt x="448" y="402" on="1"/>
        <pt x="448" y="301" on="1"/>
        <pt x="448" y="290" on="0"/>
        <pt x="432" y="274" on="0"/>
        <pt x="421" y="274" on="1"/>
        <pt x="336" y="274" on="1"/>
        <pt x="336" y="195" on="1"/>
        <pt x="427" y="195" on="1"/>
        <pt x="474" y="195" on="0"/>
        <pt x="529" y="240" on="0"/>
        <pt x="529" y="281" on="1"/>
        <pt x="529" y="419" on="1"/>
        <pt x="529" y="460" on="0"/>
        <pt x="474" y="505" on="0"/>
        <pt x="427" y="505" on="1"/>
      </contour>
    </TTGlyph>
    <TTGlyph name="Euro" xMin="0" yMin="-10" xMax="808" yMax="710">
      <contour>
        <pt x="27" y="436" on="1"/>
        <pt x="68" y="436" on="1"/>
        <pt x="78" y="572" on="0"/>
        <pt x="282" y="710" on="0"/>
        <pt x="439" y="710" on="1"/>
        <pt x="530" y="710" on="0"/>
        <pt x="676" y="663" on="0"/>
        <pt x="720" y="625" on="1"/>
        <pt x="808" y="548" on="0"/>
        <pt x="808" y="455" on="1"/>
        <pt x="808" y="446" on="0"/>
        <pt x="795" y="433" on="0"/>
        <pt x="786" y="433" on="1"/>
        <pt x="570" y="433" on="1"/>
        <pt x="548" y="433" on="0"/>
        <pt x="521" y="487" on="0"/>
        <pt x="481" y="515" on="0"/>
        <pt x="394" y="515" on="0"/>
        <pt x="339" y="474" on="0"/>
        <pt x="337" y="436" on="1"/>
        <pt x="432" y="436" on="1"/>
        <pt x="443" y="436" on="0"/>
        <pt x="459" y="420" on="0"/>
        <pt x="459" y="409" on="1"/>
        <pt x="459" y="293" on="1"/>
        <pt x="459" y="282" on="0"/>
        <pt x="443" y="266" on="0"/>
        <pt x="432" y="266" on="1"/>
        <pt x="337" y="266" on="1"/>
        <pt x="338" y="227" on="0"/>
        <pt x="393" y="185" on="0"/>
        <pt x="481" y="185" on="0"/>
        <pt x="521" y="213" on="0"/>
        <pt x="548" y="267" on="0"/>
        <pt x="570" y="267" on="1"/>
        <pt x="786" y="267" on="1"/>
        <pt x="795" y="267" on="0"/>
        <pt x="808" y="254" on="0"/>
        <pt x="808" y="245" on="1"/>
        <pt x="808" y="152" on="0"/>
        <pt x="720" y="75" on="1"/>
        <pt x="676" y="37" on="0"/>
        <pt x="530" y="-10" on="0"/>
        <pt x="337" y="-10" on="0"/>
        <pt x="178" y="46" on="0"/>
        <pt x="74" y="173" on="0"/>
        <pt x="68" y="266" on="1"/>
        <pt x="27" y="266" on="1"/>
        <pt x="16" y="266" on="0"/>
        <pt x="0" y="282" on="0"/>
        <pt x="0" y="293" on="1"/>
        <pt x="0" y="409" on="1"/>
        <pt x="0" y="420" on="0"/>
        <pt x="16" y="436" on="0"/>
      </contour>
    </TTGlyph>
    <TTGlyph name="F" xMin="100" yMin="0" xMax="790" yMax="700">
      <contour>
        <pt x="127" y="700" on="1"/>
        <pt x="763" y="700" on="1"/>
        <pt x="774" y="700" on="0"/>
        <pt x="790" y="684" on="0"/>
        <pt x="790" y="673" on="1"/>
        <pt x="790" y="521" on="1"/>
        <pt x="790" y="510" on="0"/>
        <pt x="774" y="494" on="0"/>
        <pt x="763" y="494" on="1"/>
        <pt x="370" y="494" on="1"/>
        <pt x="370" y="430" on="1"/>
        <pt x="698" y="430" on="1"/>
        <pt x="709" y="430" on="0"/>
        <pt x="725" y="414" on="0"/>
        <pt x="725" y="403" on="1"/>
        <pt x="725" y="252" on="1"/>
        <pt x="725" y="241" on="0"/>
        <pt x="709" y="225" on="0"/>
        <pt x="698" y="225" on="1"/>
        <pt x="370" y="225" on="1"/>
        <pt x="370" y="27" on="1"/>
        <pt x="370" y="16" on="0"/>
        <pt x="354" y="0" on="0"/>
        <pt x="343" y="0" on="1"/>
        <pt x="127" y="0" on="1"/>
        <pt x="116" y="0" on="0"/>
        <pt x="100" y="16" on="0"/>
        <pt x="100" y="27" on="1"/>
        <pt x="100" y="673" on="1"/>
        <pt x="100" y="684" on="0"/>
        <pt x="116" y="700" on="0"/>
      </contour>
    </TTGlyph>
    <TTGlyph name="G" xMin="58" yMin="-10" xMax="812" yMax="710">
      <contour>
        <pt x="495" y="422" on="1"/>
        <pt x="785" y="422" on="1"/>
        <pt x="796" y="422" on="0"/>
        <pt x="812" y="406" on="0"/>
        <pt x="812" y="395" on="1"/>
        <pt x="812" y="289" on="1"/>
        <pt x="812" y="137" on="0"/>
        <pt x="605" y="-10" on="0"/>
        <pt x="265" y="-10" on="0"/>
        <pt x="58" y="137" on="0"/>
        <pt x="58" y="291" on="1"/>
        <pt x="58" y="409" on="1"/>
        <pt x="58" y="486" on="0"/>
        <pt x="117" y="604" on="0"/>
        <pt x="170" y="640" on="1"/>
        <pt x="274" y="710" on="0"/>
        <pt x="435" y="710" on="1"/>
        <pt x="515" y="710" on="0"/>
        <pt x="648" y="673" on="0"/>
        <pt x="727" y="618" on="0"/>
        <pt x="755" y="586" on="1"/>
        <pt x="804" y="530" on="0"/>
        <pt x="804" y="487" on="1"/>
        <pt x="804" y="478" on="0"/>
        <pt x="791" y="465" on="0"/>
        <pt x="782" y="465" on="1"/>
        <pt x="556" y="465" on="1"/>
        <pt x="536" y="465" on="0"/>
        <pt x="527" y="476" on="1"/>
        <pt x="496" y="515" on="0"/>
        <pt x="389" y="515" on="0"/>
        <pt x="328" y="473" on="0"/>
        <pt x="328" y="440" on="1"/>
        <pt x="328" y="270" on="1"/>
        <pt x="328" y="230" on="0"/>
        <pt x="388" y="185" on="0"/>
        <pt x="497" y="185" on="0"/>
        <pt x="556" y="228" on="0"/>
        <pt x="557" y="257" on="1"/>
        <pt x="495" y="257" on="1"/>
        <pt x="484" y="257" on="0"/>
        <pt x="468" y="273" on="0"/>
        <pt x="468" y="284" on="1"/>
        <pt x="468" y="395" on="1"/>
        <pt x="468" y="406" on="0"/>
        <pt x="484" y="422" on="0"/>
      </contour>
    </TTGlyph>
    <TTGlyph name="Gbreve" xMin="58" yMin="-10" xMax="812" yMax="855">
      <contour>
        <pt x="495" y="422" on="1"/>
        <pt x="785" y="422" on="1"/>
        <pt x="796" y="422" on="0"/>
        <pt x="812" y="406" on="0"/>
        <pt x="812" y="395" on="1"/>
        <pt x="812" y="289" on="1"/>
        <pt x="812" y="137" on="0"/>
        <pt x="605" y="-10" on="0"/>
        <pt x="265" y="-10" on="0"/>
        <pt x="58" y="137" on="0"/>
        <pt x="58" y="291" on="1"/>
        <pt x="58" y="409" on="1"/>
        <pt x="58" y="486" on="0"/>
        <pt x="117" y="604" on="0"/>
        <pt x="170" y="640" on="1"/>
        <pt x="274" y="710" on="0"/>
        <pt x="435" y="710" on="1"/>
        <pt x="515" y="710" on="0"/>
        <pt x="648" y="673" on="0"/>
        <pt x="727" y="618" on="0"/>
        <pt x="755" y="586" on="1"/>
        <pt x="804" y="530" on="0"/>
        <pt x="804" y="487" on="1"/>
        <pt x="804" y="478" on="0"/>
        <pt x="791" y="465" on="0"/>
        <pt x="782" y="465" on="1"/>
        <pt x="556" y="465" on="1"/>
        <pt x="536" y="465" on="0"/>
        <pt x="527" y="476" on="1"/>
        <pt x="496" y="515" on="0"/>
        <pt x="389" y="515" on="0"/>
        <pt x="328" y="473" on="0"/>
        <pt x="328" y="440" on="1"/>
        <pt x="328" y="270" on="1"/>
        <pt x="328" y="230" on="0"/>
        <pt x="388" y="185" on="0"/>
        <pt x="497" y="185" on="0"/>
        <pt x="556" y="228" on="0"/>
        <pt x="557" y="257" on="1"/>
        <pt x="495" y="257" on="1"/>
        <pt x="484" y="257" on="0"/>
        <pt x="468" y="273" on="0"/>
        <pt x="468" y="284" on="1"/>
        <pt x="468" y="395" on="1"/>
        <pt x="468" y="406" on="0"/>
        <pt x="484" y="422" on="0"/>
      </contour>
      <contour>
        <pt x="484" y="855" on="1"/>
        <pt x="583" y="855" on="1"/>
        <pt x="602" y="855" on="0"/>
        <pt x="602" y="842" on="1"/>
        <pt x="602" y="795" on="0"/>
        <pt x="510" y="730" on="0"/>
        <pt x="339" y="730" on="0"/>
        <pt x="247" y="795" on="0"/>
        <pt x="247" y="842" on="1"/>
        <pt x="247" y="855" on="0"/>
        <pt x="266" y="855" on="1"/>
        <pt x="365" y="855" on="1"/>
        <pt x="380" y="855" on="0"/>
        <pt x="384" y="842" on="1"/>
        <pt x="390" y="817" on="0"/>
        <pt x="454" y="817" on="0"/>
        <pt x="465" y="842" on="1"/>
        <pt x="472" y="855" on="0"/>
      </contour>
    </TTGlyph>
    <TTGlyph name="Gcircumflex" xMin="58" yMin="-10" xMax="812" yMax="850">
      <contour>
        <pt x="495" y="422" on="1"/>
        <pt x="785" y="422" on="1"/>
        <pt x="796" y="422" on="0"/>
        <pt x="812" y="406" on="0"/>
        <pt x="812" y="395" on="1"/>
        <pt x="812" y="289" on="1"/>
        <pt x="812" y="137" on="0"/>
        <pt x="605" y="-10" on="0"/>
        <pt x="265" y="-10" on="0"/>
        <pt x="58" y="137" on="0"/>
        <pt x="58" y="291" on="1"/>
        <pt x="58" y="409" on="1"/>
        <pt x="58" y="486" on="0"/>
        <pt x="117" y="604" on="0"/>
        <pt x="170" y="640" on="1"/>
        <pt x="274" y="710" on="0"/>
        <pt x="435" y="710" on="1"/>
        <pt x="515" y="710" on="0"/>
        <pt x="648" y="673" on="0"/>
        <pt x="727" y="618" on="0"/>
        <pt x="755" y="586" on="1"/>
        <pt x="804" y="530" on="0"/>
        <pt x="804" y="487" on="1"/>
        <pt x="804" y="478" on="0"/>
        <pt x="791" y="465" on="0"/>
        <pt x="782" y="465" on="1"/>
        <pt x="556" y="465" on="1"/>
        <pt x="536" y="465" on="0"/>
        <pt x="527" y="476" on="1"/>
        <pt x="496" y="515" on="0"/>
        <pt x="389" y="515" on="0"/>
        <pt x="328" y="473" on="0"/>
        <pt x="328" y="440" on="1"/>
        <pt x="328" y="270" on="1"/>
        <pt x="328" y="230" on="0"/>
        <pt x="388" y="185" on="0"/>
        <pt x="497" y="185" on="0"/>
        <pt x="556" y="228" on="0"/>
        <pt x="557" y="257" on="1"/>
        <pt x="495" y="257" on="1"/>
        <pt x="484" y="257" on="0"/>
        <pt x="468" y="273" on="0"/>
        <pt x="468" y="284" on="1"/>
        <pt x="468" y="395" on="1"/>
        <pt x="468" y="406" on="0"/>
        <pt x="484" y="422" on="0"/>
      </contour>
      <contour>
        <pt x="335" y="731" on="1"/>
        <pt x="254" y="731" on="1"/>
        <pt x="238" y="731" on="0"/>
        <pt x="238" y="747" on="1"/>
        <pt x="238" y="756" on="0"/>
        <pt x="246" y="761" on="1"/>
        <pt x="329" y="831" on="1"/>
        <pt x="356" y="850" on="0"/>
        <pt x="376" y="850" on="1"/>
        <pt x="488" y="850" on="1"/>
        <pt x="508" y="850" on="0"/>
        <pt x="535" y="831" on="1"/>
        <pt x="618" y="761" on="1"/>
        <pt x="626" y="756" on="0"/>
        <pt x="626" y="747" on="1"/>
        <pt x="626" y="731" on="0"/>
        <pt x="610" y="731" on="1"/>
        <pt x="529" y="731" on="1"/>
        <pt x="511" y="731" on="0"/>
        <pt x="489" y="738" on="1"/>
        <pt x="432" y="760" on="1"/>
        <pt x="375" y="738" on="1"/>
        <pt x="353" y="731" on="0"/>
      </contour>
    </TTGlyph>
    <TTGlyph name="Gcommaaccent" xMin="58" yMin="-150" xMax="812" yMax="710">
      <contour>
        <pt x="495" y="422" on="1"/>
        <pt x="785" y="422" on="1"/>
        <pt x="796" y="422" on="0"/>
        <pt x="812" y="406" on="0"/>
        <pt x="812" y="395" on="1"/>
        <pt x="812" y="289" on="1"/>
        <pt x="812" y="137" on="0"/>
        <pt x="605" y="-10" on="0"/>
        <pt x="265" y="-10" on="0"/>
        <pt x="58" y="137" on="0"/>
        <pt x="58" y="291" on="1"/>
        <pt x="58" y="409" on="1"/>
        <pt x="58" y="486" on="0"/>
        <pt x="117" y="604" on="0"/>
        <pt x="170" y="640" on="1"/>
        <pt x="274" y="710" on="0"/>
        <pt x="435" y="710" on="1"/>
        <pt x="515" y="710" on="0"/>
        <pt x="648" y="673" on="0"/>
        <pt x="727" y="618" on="0"/>
        <pt x="755" y="586" on="1"/>
        <pt x="804" y="530" on="0"/>
        <pt x="804" y="487" on="1"/>
        <pt x="804" y="478" on="0"/>
        <pt x="791" y="465" on="0"/>
        <pt x="782" y="465" on="1"/>
        <pt x="556" y="465" on="1"/>
        <pt x="536" y="465" on="0"/>
        <pt x="527" y="476" on="1"/>
        <pt x="496" y="515" on="0"/>
        <pt x="389" y="515" on="0"/>
        <pt x="328" y="473" on="0"/>
        <pt x="328" y="440" on="1"/>
        <pt x="328" y="270" on="1"/>
        <pt x="328" y="230" on="0"/>
        <pt x="388" y="185" on="0"/>
        <pt x="497" y="185" on="0"/>
        <pt x="556" y="228" on="0"/>
        <pt x="557" y="257" on="1"/>
        <pt x="495" y="257" on="1"/>
        <pt x="484" y="257" on="0"/>
        <pt x="468" y="273" on="0"/>
        <pt x="468" y="284" on="1"/>
        <pt x="468" y="395" on="1"/>
        <pt x="468" y="406" on="0"/>
        <pt x="484" y="422" on="0"/>
      </contour>
      <contour>
        <pt x="518" y="-31" on="1"/>
        <pt x="537" y="-31" on="0"/>
        <pt x="537" y="-51" on="1"/>
        <pt x="537" y="-58" on="0"/>
        <pt x="532" y="-63" on="1"/>
        <pt x="437" y="-143" on="1"/>
        <pt x="428" y="-150" on="0"/>
        <pt x="409" y="-150" on="1"/>
        <pt x="276" y="-150" on="1"/>
        <pt x="260" y="-150" on="0"/>
        <pt x="260" y="-134" on="1"/>
        <pt x="260" y="-126" on="0"/>
        <pt x="265" y="-121" on="1"/>
        <pt x="323" y="-50" on="1"/>
        <pt x="337" y="-33" on="0"/>
        <pt x="360" y="-31" on="1"/>
      </contour>
    </TTGlyph>
    <TTGlyph name="Gdotaccent" xMin="58" yMin="-10" xMax="812" yMax="850">
      <contour>
        <pt x="495" y="422" on="1"/>
        <pt x="785" y="422" on="1"/>
        <pt x="796" y="422" on="0"/>
        <pt x="812" y="406" on="0"/>
        <pt x="812" y="395" on="1"/>
        <pt x="812" y="289" on="1"/>
        <pt x="812" y="137" on="0"/>
        <pt x="605" y="-10" on="0"/>
        <pt x="265" y="-10" on="0"/>
        <pt x="58" y="137" on="0"/>
        <pt x="58" y="291" on="1"/>
        <pt x="58" y="409" on="1"/>
        <pt x="58" y="486" on="0"/>
        <pt x="117" y="604" on="0"/>
        <pt x="170" y="640" on="1"/>
        <pt x="274" y="710" on="0"/>
        <pt x="435" y="710" on="1"/>
        <pt x="515" y="710" on="0"/>
        <pt x="648" y="673" on="0"/>
        <pt x="727" y="618" on="0"/>
        <pt x="755" y="586" on="1"/>
        <pt x="804" y="530" on="0"/>
        <pt x="804" y="487" on="1"/>
        <pt x="804" y="478" on="0"/>
        <pt x="791" y="465" on="0"/>
        <pt x="782" y="465" on="1"/>
        <pt x="556" y="465" on="1"/>
        <pt x="536" y="465" on="0"/>
        <pt x="527" y="476" on="1"/>
        <pt x="496" y="515" on="0"/>
        <pt x="389" y="515" on="0"/>
        <pt x="328" y="473" on="0"/>
        <pt x="328" y="440" on="1"/>
        <pt x="328" y="270" on="1"/>
        <pt x="328" y="230" on="0"/>
        <pt x="388" y="185" on="0"/>
        <pt x="497" y="185" on="0"/>
        <pt x="556" y="228" on="0"/>
        <pt x="557" y="257" on="1"/>
        <pt x="495" y="257" on="1"/>
        <pt x="484" y="257" on="0"/>
        <pt x="468" y="273" on="0"/>
        <pt x="468" y="284" on="1"/>
        <pt x="468" y="395" on="1"/>
        <pt x="468" y="406" on="0"/>
        <pt x="484" y="422" on="0"/>
      </contour>
      <contour>
        <pt x="357" y="850" on="1"/>
        <pt x="493" y="850" on="1"/>
        <pt x="503" y="850" on="0"/>
        <pt x="516" y="837" on="0"/>
        <pt x="516" y="827" on="1"/>
        <pt x="516" y="754" on="1"/>
        <pt x="516" y="744" on="0"/>
        <pt x="503" y="731" on="0"/>
        <pt x="493" y="731" on="1"/>
        <pt x="357" y="731" on="1"/>
        <pt x="347" y="731" on="0"/>
        <pt x="334" y="744" on="0"/>
        <pt x="334" y="754" on="1"/>
        <pt x="334" y="827" on="1"/>
        <pt x="334" y="837" on="0"/>
        <pt x="347" y="850" on="0"/>
      </contour>
    </TTGlyph>
    <TTGlyph name="Grave" xMin="287" yMin="731" xMax="564" yMax="850">
      <contour>
        <pt x="564" y="747" on="1"/>
        <pt x="564" y="731" on="0"/>
        <pt x="548" y="731" on="1"/>
        <pt x="415" y="731" on="1"/>
        <pt x="396" y="731" on="0"/>
        <pt x="387" y="738" on="1"/>
        <pt x="292" y="818" on="1"/>
        <pt x="287" y="823" on="0"/>
        <pt x="287" y="830" on="1"/>
        <pt x="287" y="850" on="0"/>
        <pt x="306" y="850" on="1"/>
        <pt x="464" y="850" on="1"/>
        <pt x="487" y="848" on="0"/>
        <pt x="501" y="831" on="1"/>
        <pt x="559" y="760" on="1"/>
        <pt x="564" y="755" on="0"/>
      </contour>
    </TTGlyph>
    <TTGlyph name="H" xMin="65" yMin="0" xMax="785" yMax="700">
      <contour>
        <pt x="552" y="700" on="1"/>
        <pt x="758" y="700" on="1"/>
        <pt x="769" y="700" on="0"/>
        <pt x="785" y="684" on="0"/>
        <pt x="785" y="673" on="1"/>
        <pt x="785" y="27" on="1"/>
        <pt x="785" y="16" on="0"/>
        <pt x="769" y="0" on="0"/>
        <pt x="758" y="0" on="1"/>
        <pt x="552" y="0" on="1"/>
        <pt x="541" y="0" on="0"/>
        <pt x="525" y="16" on="0"/>
        <pt x="525" y="27" on="1"/>
        <pt x="525" y="240" on="1"/>
        <pt x="325" y="240" on="1"/>
        <pt x="325" y="27" on="1"/>
        <pt x="325" y="16" on="0"/>
        <pt x="309" y="0" on="0"/>
        <pt x="298" y="0" on="1"/>
        <pt x="92" y="0" on="1"/>
        <pt x="81" y="0" on="0"/>
        <pt x="65" y="15" on="0"/>
        <pt x="65" y="27" on="1"/>
        <pt x="65" y="673" on="1"/>
        <pt x="65" y="684" on="0"/>
        <pt x="81" y="700" on="0"/>
        <pt x="92" y="700" on="1"/>
        <pt x="298" y="700" on="1"/>
        <pt x="309" y="700" on="0"/>
        <pt x="325" y="684" on="0"/>
        <pt x="325" y="673" on="1"/>
        <pt x="325" y="468" on="1"/>
        <pt x="525" y="468" on="1"/>
        <pt x="525" y="673" on="1"/>
        <pt x="525" y="684" on="0"/>
        <pt x="541" y="700" on="0"/>
      </contour>
    </TTGlyph>
    <TTGlyph name="Hbar" xMin="65" yMin="0" xMax="785" yMax="700">
      <contour>
        <pt x="552" y="700" on="1"/>
        <pt x="758" y="700" on="1"/>
        <pt x="769" y="700" on="0"/>
        <pt x="785" y="684" on="0"/>
        <pt x="785" y="673" on="1"/>
        <pt x="785" y="27" on="1"/>
        <pt x="785" y="16" on="0"/>
        <pt x="769" y="0" on="0"/>
        <pt x="758" y="0" on="1"/>
        <pt x="552" y="0" on="1"/>
        <pt x="541" y="0" on="0"/>
        <pt x="525" y="16" on="0"/>
        <pt x="525" y="27" on="1"/>
        <pt x="525" y="240" on="1"/>
        <pt x="325" y="240" on="1"/>
        <pt x="325" y="27" on="1"/>
        <pt x="325" y="16" on="0"/>
        <pt x="309" y="0" on="0"/>
        <pt x="298" y="0" on="1"/>
        <pt x="92" y="0" on="1"/>
        <pt x="81" y="0" on="0"/>
        <pt x="65" y="15" on="0"/>
        <pt x="65" y="27" on="1"/>
        <pt x="65" y="673" on="1"/>
        <pt x="65" y="684" on="0"/>
        <pt x="81" y="700" on="0"/>
        <pt x="92" y="700" on="1"/>
        <pt x="298" y="700" on="1"/>
        <pt x="309" y="700" on="0"/>
        <pt x="325" y="684" on="0"/>
        <pt x="325" y="673" on="1"/>
        <pt x="325" y="637" on="1"/>
        <pt x="525" y="637" on="1"/>
        <pt x="525" y="673" on="1"/>
        <pt x="525" y="684" on="0"/>
        <pt x="541" y="700" on="0"/>
      </contour>
      <contour>
        <pt x="325" y="468" on="1"/>
        <pt x="525" y="468" on="1"/>
        <pt x="525" y="512" on="1"/>
        <pt x="325" y="512" on="1"/>
      </contour>
    </TTGlyph>
    <TTGlyph name="Hcircumflex" xMin="65" yMin="0" xMax="785" yMax="850">
      <contour>
        <pt x="552" y="700" on="1"/>
        <pt x="758" y="700" on="1"/>
        <pt x="769" y="700" on="0"/>
        <pt x="785" y="684" on="0"/>
        <pt x="785" y="673" on="1"/>
        <pt x="785" y="27" on="1"/>
        <pt x="785" y="16" on="0"/>
        <pt x="769" y="0" on="0"/>
        <pt x="758" y="0" on="1"/>
        <pt x="552" y="0" on="1"/>
        <pt x="541" y="0" on="0"/>
        <pt x="525" y="16" on="0"/>
        <pt x="525" y="27" on="1"/>
        <pt x="525" y="240" on="1"/>
        <pt x="325" y="240" on="1"/>
        <pt x="325" y="27" on="1"/>
        <pt x="325" y="16" on="0"/>
        <pt x="309" y="0" on="0"/>
        <pt x="298" y="0" on="1"/>
        <pt x="92" y="0" on="1"/>
        <pt x="81" y="0" on="0"/>
        <pt x="65" y="15" on="0"/>
        <pt x="65" y="27" on="1"/>
        <pt x="65" y="673" on="1"/>
        <pt x="65" y="684" on="0"/>
        <pt x="81" y="700" on="0"/>
        <pt x="92" y="700" on="1"/>
        <pt x="298" y="700" on="1"/>
        <pt x="309" y="700" on="0"/>
        <pt x="325" y="684" on="0"/>
        <pt x="325" y="673" on="1"/>
        <pt x="325" y="468" on="1"/>
        <pt x="525" y="468" on="1"/>
        <pt x="525" y="673" on="1"/>
        <pt x="525" y="684" on="0"/>
        <pt x="541" y="700" on="0"/>
      </contour>
      <contour>
        <pt x="325" y="731" on="1"/>
        <pt x="244" y="731" on="1"/>
        <pt x="228" y="731" on="0"/>
        <pt x="228" y="747" on="1"/>
        <pt x="228" y="756" on="0"/>
        <pt x="236" y="761" on="1"/>
        <pt x="319" y="831" on="1"/>
        <pt x="346" y="850" on="0"/>
        <pt x="366" y="850" on="1"/>
        <pt x="478" y="850" on="1"/>
        <pt x="498" y="850" on="0"/>
        <pt x="525" y="831" on="1"/>
        <pt x="608" y="761" on="1"/>
        <pt x="616" y="756" on="0"/>
        <pt x="616" y="747" on="1"/>
        <pt x="616" y="731" on="0"/>
        <pt x="600" y="731" on="1"/>
        <pt x="519" y="731" on="1"/>
        <pt x="501" y="731" on="0"/>
        <pt x="479" y="738" on="1"/>
        <pt x="422" y="760" on="1"/>
        <pt x="365" y="738" on="1"/>
        <pt x="343" y="731" on="0"/>
      </contour>
    </TTGlyph>
    <TTGlyph name="Hungarumlaut" xMin="190" yMin="731" xMax="660" yMax="850">
      <contour>
        <pt x="408" y="850" on="1"/>
        <pt x="427" y="850" on="0"/>
        <pt x="427" y="830" on="1"/>
        <pt x="427" y="823" on="0"/>
        <pt x="422" y="818" on="1"/>
        <pt x="347" y="738" on="1"/>
        <pt x="338" y="731" on="0"/>
        <pt x="319" y="731" on="1"/>
        <pt x="206" y="731" on="1"/>
        <pt x="190" y="731" on="0"/>
        <pt x="190" y="747" on="1"/>
        <pt x="190" y="750" on="0"/>
        <pt x="195" y="760" on="1"/>
        <pt x="233" y="831" on="1"/>
        <pt x="247" y="848" on="0"/>
        <pt x="270" y="850" on="1"/>
      </contour>
      <contour>
        <pt x="641" y="850" on="1"/>
        <pt x="660" y="850" on="0"/>
        <pt x="660" y="830" on="1"/>
        <pt x="660" y="823" on="0"/>
        <pt x="655" y="818" on="1"/>
        <pt x="580" y="738" on="1"/>
        <pt x="571" y="731" on="0"/>
        <pt x="552" y="731" on="1"/>
        <pt x="439" y="731" on="1"/>
        <pt x="423" y="731" on="0"/>
        <pt x="423" y="747" on="1"/>
        <pt x="423" y="750" on="0"/>
        <pt x="428" y="760" on="1"/>
        <pt x="466" y="831" on="1"/>
        <pt x="480" y="848" on="0"/>
        <pt x="503" y="850" on="1"/>
      </contour>
    </TTGlyph>
    <TTGlyph name="I" xMin="81" yMin="0" xMax="769" yMax="700">
      <contour>
        <pt x="742" y="495" on="1"/>
        <pt x="561" y="495" on="1"/>
        <pt x="561" y="205" on="1"/>
        <pt x="742" y="205" on="1"/>
        <pt x="753" y="205" on="0"/>
        <pt x="769" y="189" on="0"/>
        <pt x="769" y="178" on="1"/>
        <pt x="769" y="27" on="1"/>
        <pt x="769" y="16" on="0"/>
        <pt x="753" y="0" on="0"/>
        <pt x="742" y="0" on="1"/>
        <pt x="108" y="0" on="1"/>
        <pt x="97" y="0" on="0"/>
        <pt x="81" y="16" on="0"/>
        <pt x="81" y="27" on="1"/>
        <pt x="81" y="178" on="1"/>
        <pt x="81" y="189" on="0"/>
        <pt x="97" y="205" on="0"/>
        <pt x="108" y="205" on="1"/>
        <pt x="291" y="205" on="1"/>
        <pt x="291" y="495" on="1"/>
        <pt x="108" y="495" on="1"/>
        <pt x="97" y="495" on="0"/>
        <pt x="81" y="511" on="0"/>
        <pt x="81" y="522" on="1"/>
        <pt x="81" y="673" on="1"/>
        <pt x="81" y="684" on="0"/>
        <pt x="97" y="700" on="0"/>
        <pt x="108" y="700" on="1"/>
        <pt x="742" y="700" on="1"/>
        <pt x="753" y="700" on="0"/>
        <pt x="769" y="684" on="0"/>
        <pt x="769" y="673" on="1"/>
        <pt x="769" y="522" on="1"/>
        <pt x="769" y="511" on="0"/>
        <pt x="753" y="495" on="0"/>
      </contour>
    </TTGlyph>
    <TTGlyph name="Iacute" xMin="81" yMin="0" xMax="769" yMax="850">
      <contour>
        <pt x="742" y="495" on="1"/>
        <pt x="561" y="495" on="1"/>
        <pt x="561" y="205" on="1"/>
        <pt x="742" y="205" on="1"/>
        <pt x="753" y="205" on="0"/>
        <pt x="769" y="189" on="0"/>
        <pt x="769" y="178" on="1"/>
        <pt x="769" y="27" on="1"/>
        <pt x="769" y="16" on="0"/>
        <pt x="753" y="0" on="0"/>
        <pt x="742" y="0" on="1"/>
        <pt x="108" y="0" on="1"/>
        <pt x="97" y="0" on="0"/>
        <pt x="81" y="16" on="0"/>
        <pt x="81" y="27" on="1"/>
        <pt x="81" y="178" on="1"/>
        <pt x="81" y="189" on="0"/>
        <pt x="97" y="205" on="0"/>
        <pt x="108" y="205" on="1"/>
        <pt x="291" y="205" on="1"/>
        <pt x="291" y="495" on="1"/>
        <pt x="108" y="495" on="1"/>
        <pt x="97" y="495" on="0"/>
        <pt x="81" y="511" on="0"/>
        <pt x="81" y="522" on="1"/>
        <pt x="81" y="673" on="1"/>
        <pt x="81" y="684" on="0"/>
        <pt x="97" y="700" on="0"/>
        <pt x="108" y="700" on="1"/>
        <pt x="742" y="700" on="1"/>
        <pt x="753" y="700" on="0"/>
        <pt x="769" y="684" on="0"/>
        <pt x="769" y="673" on="1"/>
        <pt x="769" y="522" on="1"/>
        <pt x="769" y="511" on="0"/>
        <pt x="753" y="495" on="0"/>
      </contour>
      <contour>
        <pt x="602" y="850" on="1"/>
        <pt x="621" y="850" on="0"/>
        <pt x="621" y="830" on="1"/>
        <pt x="621" y="823" on="0"/>
        <pt x="616" y="818" on="1"/>
        <pt x="521" y="738" on="1"/>
        <pt x="512" y="731" on="0"/>
        <pt x="493" y="731" on="1"/>
        <pt x="360" y="731" on="1"/>
        <pt x="344" y="731" on="0"/>
        <pt x="344" y="747" on="1"/>
        <pt x="344" y="755" on="0"/>
        <pt x="349" y="760" on="1"/>
        <pt x="407" y="831" on="1"/>
        <pt x="421" y="848" on="0"/>
        <pt x="444" y="850" on="1"/>
      </contour>
    </TTGlyph>
    <TTGlyph name="Ibreve" xMin="81" yMin="0" xMax="769" yMax="855">
      <contour>
        <pt x="742" y="495" on="1"/>
        <pt x="561" y="495" on="1"/>
        <pt x="561" y="205" on="1"/>
        <pt x="742" y="205" on="1"/>
        <pt x="753" y="205" on="0"/>
        <pt x="769" y="189" on="0"/>
        <pt x="769" y="178" on="1"/>
        <pt x="769" y="27" on="1"/>
        <pt x="769" y="16" on="0"/>
        <pt x="753" y="0" on="0"/>
        <pt x="742" y="0" on="1"/>
        <pt x="108" y="0" on="1"/>
        <pt x="97" y="0" on="0"/>
        <pt x="81" y="16" on="0"/>
        <pt x="81" y="27" on="1"/>
        <pt x="81" y="178" on="1"/>
        <pt x="81" y="189" on="0"/>
        <pt x="97" y="205" on="0"/>
        <pt x="108" y="205" on="1"/>
        <pt x="291" y="205" on="1"/>
        <pt x="291" y="495" on="1"/>
        <pt x="108" y="495" on="1"/>
        <pt x="97" y="495" on="0"/>
        <pt x="81" y="511" on="0"/>
        <pt x="81" y="522" on="1"/>
        <pt x="81" y="673" on="1"/>
        <pt x="81" y="684" on="0"/>
        <pt x="97" y="700" on="0"/>
        <pt x="108" y="700" on="1"/>
        <pt x="742" y="700" on="1"/>
        <pt x="753" y="700" on="0"/>
        <pt x="769" y="684" on="0"/>
        <pt x="769" y="673" on="1"/>
        <pt x="769" y="522" on="1"/>
        <pt x="769" y="511" on="0"/>
        <pt x="753" y="495" on="0"/>
      </contour>
      <contour>
        <pt x="485" y="855" on="1"/>
        <pt x="584" y="855" on="1"/>
        <pt x="603" y="855" on="0"/>
        <pt x="603" y="842" on="1"/>
        <pt x="603" y="795" on="0"/>
        <pt x="511" y="730" on="0"/>
        <pt x="340" y="730" on="0"/>
        <pt x="248" y="795" on="0"/>
        <pt x="248" y="842" on="1"/>
        <pt x="248" y="855" on="0"/>
        <pt x="267" y="855" on="1"/>
        <pt x="366" y="855" on="1"/>
        <pt x="381" y="855" on="0"/>
        <pt x="385" y="842" on="1"/>
        <pt x="391" y="817" on="0"/>
        <pt x="455" y="817" on="0"/>
        <pt x="466" y="842" on="1"/>
        <pt x="472" y="855" on="0"/>
      </contour>
    </TTGlyph>
    <TTGlyph name="Icircumflex" xMin="81" yMin="0" xMax="769" yMax="850">
      <contour>
        <pt x="742" y="495" on="1"/>
        <pt x="561" y="495" on="1"/>
        <pt x="561" y="205" on="1"/>
        <pt x="742" y="205" on="1"/>
        <pt x="753" y="205" on="0"/>
        <pt x="769" y="189" on="0"/>
        <pt x="769" y="178" on="1"/>
        <pt x="769" y="27" on="1"/>
        <pt x="769" y="16" on="0"/>
        <pt x="753" y="0" on="0"/>
        <pt x="742" y="0" on="1"/>
        <pt x="108" y="0" on="1"/>
        <pt x="97" y="0" on="0"/>
        <pt x="81" y="16" on="0"/>
        <pt x="81" y="27" on="1"/>
        <pt x="81" y="178" on="1"/>
        <pt x="81" y="189" on="0"/>
        <pt x="97" y="205" on="0"/>
        <pt x="108" y="205" on="1"/>
        <pt x="291" y="205" on="1"/>
        <pt x="291" y="495" on="1"/>
        <pt x="108" y="495" on="1"/>
        <pt x="97" y="495" on="0"/>
        <pt x="81" y="511" on="0"/>
        <pt x="81" y="522" on="1"/>
        <pt x="81" y="673" on="1"/>
        <pt x="81" y="684" on="0"/>
        <pt x="97" y="700" on="0"/>
        <pt x="108" y="700" on="1"/>
        <pt x="742" y="700" on="1"/>
        <pt x="753" y="700" on="0"/>
        <pt x="769" y="684" on="0"/>
        <pt x="769" y="673" on="1"/>
        <pt x="769" y="522" on="1"/>
        <pt x="769" y="511" on="0"/>
        <pt x="753" y="495" on="0"/>
      </contour>
      <contour>
        <pt x="328" y="731" on="1"/>
        <pt x="247" y="731" on="1"/>
        <pt x="231" y="731" on="0"/>
        <pt x="231" y="747" on="1"/>
        <pt x="231" y="756" on="0"/>
        <pt x="239" y="761" on="1"/>
        <pt x="322" y="831" on="1"/>
        <pt x="349" y="850" on="0"/>
        <pt x="369" y="850" on="1"/>
        <pt x="481" y="850" on="1"/>
        <pt x="501" y="850" on="0"/>
        <pt x="528" y="831" on="1"/>
        <pt x="611" y="761" on="1"/>
        <pt x="619" y="756" on="0"/>
        <pt x="619" y="747" on="1"/>
        <pt x="619" y="731" on="0"/>
        <pt x="603" y="731" on="1"/>
        <pt x="522" y="731" on="1"/>
        <pt x="504" y="731" on="0"/>
        <pt x="482" y="738" on="1"/>
        <pt x="425" y="760" on="1"/>
        <pt x="368" y="738" on="1"/>
        <pt x="346" y="731" on="0"/>
      </contour>
    </TTGlyph>
    <TTGlyph name="Idieresis" xMin="81" yMin="0" xMax="769" yMax="850">
      <contour>
        <pt x="742" y="495" on="1"/>
        <pt x="561" y="495" on="1"/>
        <pt x="561" y="205" on="1"/>
        <pt x="742" y="205" on="1"/>
        <pt x="753" y="205" on="0"/>
        <pt x="769" y="189" on="0"/>
        <pt x="769" y="178" on="1"/>
        <pt x="769" y="27" on="1"/>
        <pt x="769" y="16" on="0"/>
        <pt x="753" y="0" on="0"/>
        <pt x="742" y="0" on="1"/>
        <pt x="108" y="0" on="1"/>
        <pt x="97" y="0" on="0"/>
        <pt x="81" y="16" on="0"/>
        <pt x="81" y="27" on="1"/>
        <pt x="81" y="178" on="1"/>
        <pt x="81" y="189" on="0"/>
        <pt x="97" y="205" on="0"/>
        <pt x="108" y="205" on="1"/>
        <pt x="291" y="205" on="1"/>
        <pt x="291" y="495" on="1"/>
        <pt x="108" y="495" on="1"/>
        <pt x="97" y="495" on="0"/>
        <pt x="81" y="511" on="0"/>
        <pt x="81" y="522" on="1"/>
        <pt x="81" y="673" on="1"/>
        <pt x="81" y="684" on="0"/>
        <pt x="97" y="700" on="0"/>
        <pt x="108" y="700" on="1"/>
        <pt x="742" y="700" on="1"/>
        <pt x="753" y="700" on="0"/>
        <pt x="769" y="684" on="0"/>
        <pt x="769" y="673" on="1"/>
        <pt x="769" y="522" on="1"/>
        <pt x="769" y="511" on="0"/>
        <pt x="753" y="495" on="0"/>
      </contour>
      <contour>
        <pt x="492" y="850" on="1"/>
        <pt x="608" y="850" on="1"/>
        <pt x="618" y="850" on="0"/>
        <pt x="631" y="837" on="0"/>
        <pt x="631" y="827" on="1"/>
        <pt x="631" y="754" on="1"/>
        <pt x="631" y="744" on="0"/>
        <pt x="618" y="731" on="0"/>
        <pt x="608" y="731" on="1"/>
        <pt x="492" y="731" on="1"/>
        <pt x="482" y="731" on="0"/>
        <pt x="469" y="744" on="0"/>
        <pt x="469" y="754" on="1"/>
        <pt x="469" y="827" on="1"/>
        <pt x="469" y="837" on="0"/>
        <pt x="482" y="850" on="0"/>
      </contour>
      <contour>
        <pt x="241" y="850" on="1"/>
        <pt x="357" y="850" on="1"/>
        <pt x="367" y="850" on="0"/>
        <pt x="380" y="837" on="0"/>
        <pt x="380" y="827" on="1"/>
        <pt x="380" y="754" on="1"/>
        <pt x="380" y="744" on="0"/>
        <pt x="367" y="731" on="0"/>
        <pt x="357" y="731" on="1"/>
        <pt x="241" y="731" on="1"/>
        <pt x="231" y="731" on="0"/>
        <pt x="218" y="744" on="0"/>
        <pt x="218" y="754" on="1"/>
        <pt x="218" y="827" on="1"/>
        <pt x="218" y="837" on="0"/>
        <pt x="231" y="850" on="0"/>
      </contour>
    </TTGlyph>
    <TTGlyph name="Idotaccent" xMin="81" yMin="0" xMax="769" yMax="850">
      <contour>
        <pt x="742" y="495" on="1"/>
        <pt x="561" y="495" on="1"/>
        <pt x="561" y="205" on="1"/>
        <pt x="742" y="205" on="1"/>
        <pt x="753" y="205" on="0"/>
        <pt x="769" y="189" on="0"/>
        <pt x="769" y="178" on="1"/>
        <pt x="769" y="27" on="1"/>
        <pt x="769" y="16" on="0"/>
        <pt x="753" y="0" on="0"/>
        <pt x="742" y="0" on="1"/>
        <pt x="108" y="0" on="1"/>
        <pt x="97" y="0" on="0"/>
        <pt x="81" y="16" on="0"/>
        <pt x="81" y="27" on="1"/>
        <pt x="81" y="178" on="1"/>
        <pt x="81" y="189" on="0"/>
        <pt x="97" y="205" on="0"/>
        <pt x="108" y="205" on="1"/>
        <pt x="291" y="205" on="1"/>
        <pt x="291" y="495" on="1"/>
        <pt x="108" y="495" on="1"/>
        <pt x="97" y="495" on="0"/>
        <pt x="81" y="511" on="0"/>
        <pt x="81" y="522" on="1"/>
        <pt x="81" y="673" on="1"/>
        <pt x="81" y="684" on="0"/>
        <pt x="97" y="700" on="0"/>
        <pt x="108" y="700" on="1"/>
        <pt x="742" y="700" on="1"/>
        <pt x="753" y="700" on="0"/>
        <pt x="769" y="684" on="0"/>
        <pt x="769" y="673" on="1"/>
        <pt x="769" y="522" on="1"/>
        <pt x="769" y="511" on="0"/>
        <pt x="753" y="495" on="0"/>
      </contour>
      <contour>
        <pt x="357" y="850" on="1"/>
        <pt x="493" y="850" on="1"/>
        <pt x="503" y="850" on="0"/>
        <pt x="516" y="837" on="0"/>
        <pt x="516" y="827" on="1"/>
        <pt x="516" y="754" on="1"/>
        <pt x="516" y="744" on="0"/>
        <pt x="503" y="731" on="0"/>
        <pt x="493" y="731" on="1"/>
        <pt x="357" y="731" on="1"/>
        <pt x="347" y="731" on="0"/>
        <pt x="334" y="744" on="0"/>
        <pt x="334" y="754" on="1"/>
        <pt x="334" y="827" on="1"/>
        <pt x="334" y="837" on="0"/>
        <pt x="347" y="850" on="0"/>
      </contour>
    </TTGlyph>
    <TTGlyph name="Igrave" xMin="81" yMin="0" xMax="769" yMax="850">
      <contour>
        <pt x="742" y="495" on="1"/>
        <pt x="561" y="495" on="1"/>
        <pt x="561" y="205" on="1"/>
        <pt x="742" y="205" on="1"/>
        <pt x="753" y="205" on="0"/>
        <pt x="769" y="189" on="0"/>
        <pt x="769" y="178" on="1"/>
        <pt x="769" y="27" on="1"/>
        <pt x="769" y="16" on="0"/>
        <pt x="753" y="0" on="0"/>
        <pt x="742" y="0" on="1"/>
        <pt x="108" y="0" on="1"/>
        <pt x="97" y="0" on="0"/>
        <pt x="81" y="16" on="0"/>
        <pt x="81" y="27" on="1"/>
        <pt x="81" y="178" on="1"/>
        <pt x="81" y="189" on="0"/>
        <pt x="97" y="205" on="0"/>
        <pt x="108" y="205" on="1"/>
        <pt x="291" y="205" on="1"/>
        <pt x="291" y="495" on="1"/>
        <pt x="108" y="495" on="1"/>
        <pt x="97" y="495" on="0"/>
        <pt x="81" y="511" on="0"/>
        <pt x="81" y="522" on="1"/>
        <pt x="81" y="673" on="1"/>
        <pt x="81" y="684" on="0"/>
        <pt x="97" y="700" on="0"/>
        <pt x="108" y="700" on="1"/>
        <pt x="742" y="700" on="1"/>
        <pt x="753" y="700" on="0"/>
        <pt x="769" y="684" on="0"/>
        <pt x="769" y="673" on="1"/>
        <pt x="769" y="522" on="1"/>
        <pt x="769" y="511" on="0"/>
        <pt x="753" y="495" on="0"/>
      </contour>
      <contour>
        <pt x="537" y="747" on="1"/>
        <pt x="537" y="731" on="0"/>
        <pt x="521" y="731" on="1"/>
        <pt x="388" y="731" on="1"/>
        <pt x="369" y="731" on="0"/>
        <pt x="360" y="738" on="1"/>
        <pt x="265" y="818" on="1"/>
        <pt x="260" y="823" on="0"/>
        <pt x="260" y="830" on="1"/>
        <pt x="260" y="850" on="0"/>
        <pt x="279" y="850" on="1"/>
        <pt x="437" y="850" on="1"/>
        <pt x="460" y="848" on="0"/>
        <pt x="474" y="831" on="1"/>
        <pt x="532" y="760" on="1"/>
        <pt x="537" y="755" on="0"/>
      </contour>
    </TTGlyph>
    <TTGlyph name="Iogonek" xMin="81" yMin="-142" xMax="769" yMax="700">
      <contour>
        <pt x="742" y="495" on="1"/>
        <pt x="561" y="495" on="1"/>
        <pt x="561" y="205" on="1"/>
        <pt x="742" y="205" on="1"/>
        <pt x="753" y="205" on="0"/>
        <pt x="769" y="189" on="0"/>
        <pt x="769" y="178" on="1"/>
        <pt x="769" y="27" on="1"/>
        <pt x="769" y="16" on="0"/>
        <pt x="753" y="0" on="0"/>
        <pt x="742" y="0" on="1"/>
        <pt x="735" y="0" on="1"/>
        <pt x="692" y="0" on="0"/>
        <pt x="692" y="-52" on="0"/>
        <pt x="735" y="-52" on="1"/>
        <pt x="742" y="-52" on="1"/>
        <pt x="769" y="-52" on="0"/>
        <pt x="769" y="-77" on="1"/>
        <pt x="769" y="-118" on="1"/>
        <pt x="769" y="-129" on="0"/>
        <pt x="754" y="-142" on="0"/>
        <pt x="742" y="-142" on="1"/>
        <pt x="728" y="-142" on="1"/>
        <pt x="576" y="-142" on="0"/>
        <pt x="576" y="-26" on="1"/>
        <pt x="576" y="-8" on="0"/>
        <pt x="578" y="0" on="1"/>
        <pt x="108" y="0" on="1"/>
        <pt x="97" y="0" on="0"/>
        <pt x="81" y="16" on="0"/>
        <pt x="81" y="27" on="1"/>
        <pt x="81" y="178" on="1"/>
        <pt x="81" y="189" on="0"/>
        <pt x="97" y="205" on="0"/>
        <pt x="108" y="205" on="1"/>
        <pt x="291" y="205" on="1"/>
        <pt x="291" y="495" on="1"/>
        <pt x="108" y="495" on="1"/>
        <pt x="97" y="495" on="0"/>
        <pt x="81" y="511" on="0"/>
        <pt x="81" y="522" on="1"/>
        <pt x="81" y="673" on="1"/>
        <pt x="81" y="684" on="0"/>
        <pt x="97" y="700" on="0"/>
        <pt x="108" y="700" on="1"/>
        <pt x="742" y="700" on="1"/>
        <pt x="753" y="700" on="0"/>
        <pt x="769" y="684" on="0"/>
        <pt x="769" y="673" on="1"/>
        <pt x="769" y="522" on="1"/>
        <pt x="769" y="511" on="0"/>
        <pt x="753" y="495" on="0"/>
      </contour>
    </TTGlyph>
    <TTGlyph name="Itilde" xMin="81" yMin="0" xMax="769" yMax="855">
      <contour>
        <pt x="742" y="495" on="1"/>
        <pt x="561" y="495" on="1"/>
        <pt x="561" y="205" on="1"/>
        <pt x="742" y="205" on="1"/>
        <pt x="753" y="205" on="0"/>
        <pt x="769" y="189" on="0"/>
        <pt x="769" y="178" on="1"/>
        <pt x="769" y="27" on="1"/>
        <pt x="769" y="16" on="0"/>
        <pt x="753" y="0" on="0"/>
        <pt x="742" y="0" on="1"/>
        <pt x="108" y="0" on="1"/>
        <pt x="97" y="0" on="0"/>
        <pt x="81" y="16" on="0"/>
        <pt x="81" y="27" on="1"/>
        <pt x="81" y="178" on="1"/>
        <pt x="81" y="189" on="0"/>
        <pt x="97" y="205" on="0"/>
        <pt x="108" y="205" on="1"/>
        <pt x="291" y="205" on="1"/>
        <pt x="291" y="495" on="1"/>
        <pt x="108" y="495" on="1"/>
        <pt x="97" y="495" on="0"/>
        <pt x="81" y="511" on="0"/>
        <pt x="81" y="522" on="1"/>
        <pt x="81" y="673" on="1"/>
        <pt x="81" y="684" on="0"/>
        <pt x="97" y="700" on="0"/>
        <pt x="108" y="700" on="1"/>
        <pt x="742" y="700" on="1"/>
        <pt x="753" y="700" on="0"/>
        <pt x="769" y="684" on="0"/>
        <pt x="769" y="673" on="1"/>
        <pt x="769" y="522" on="1"/>
        <pt x="769" y="511" on="0"/>
        <pt x="753" y="495" on="0"/>
      </contour>
      <contour>
        <pt x="487" y="730" on="1"/>
        <pt x="459" y="730" on="0"/>
        <pt x="393" y="754" on="0"/>
        <pt x="363" y="754" on="0"/>
        <pt x="340" y="735" on="0"/>
        <pt x="329" y="735" on="1"/>
        <pt x="245" y="735" on="1"/>
        <pt x="237" y="735" on="0"/>
        <pt x="226" y="746" on="0"/>
        <pt x="226" y="765" on="0"/>
        <pt x="239" y="795" on="0"/>
        <pt x="266" y="831" on="0"/>
        <pt x="324" y="855" on="0"/>
        <pt x="390" y="855" on="0"/>
        <pt x="456" y="831" on="0"/>
        <pt x="485" y="831" on="0"/>
        <pt x="509" y="850" on="0"/>
        <pt x="520" y="850" on="1"/>
        <pt x="604" y="850" on="1"/>
        <pt x="623" y="850" on="0"/>
        <pt x="623" y="831" on="1"/>
        <pt x="623" y="801" on="0"/>
        <pt x="558" y="730" on="0"/>
      </contour>
    </TTGlyph>
    <TTGlyph name="J" xMin="27" yMin="-10" xMax="768" yMax="700">
      <contour>
        <pt x="768" y="673" on="1"/>
        <pt x="768" y="291" on="1"/>
        <pt x="768" y="139" on="0"/>
        <pt x="568" y="-10" on="0"/>
        <pt x="401" y="-10" on="1"/>
        <pt x="310" y="-10" on="0"/>
        <pt x="162" y="37" on="0"/>
        <pt x="118" y="75" on="1"/>
        <pt x="27" y="154" on="0"/>
        <pt x="27" y="245" on="1"/>
        <pt x="27" y="254" on="0"/>
        <pt x="40" y="267" on="0"/>
        <pt x="49" y="267" on="1"/>
        <pt x="275" y="267" on="1"/>
        <pt x="293" y="267" on="0"/>
        <pt x="300" y="245" on="1"/>
        <pt x="319" y="185" on="0"/>
        <pt x="396" y="185" on="1"/>
        <pt x="443" y="185" on="0"/>
        <pt x="498" y="229" on="0"/>
        <pt x="498" y="270" on="1"/>
        <pt x="498" y="495" on="1"/>
        <pt x="133" y="495" on="1"/>
        <pt x="122" y="495" on="0"/>
        <pt x="106" y="511" on="0"/>
        <pt x="106" y="522" on="1"/>
        <pt x="106" y="673" on="1"/>
        <pt x="106" y="684" on="0"/>
        <pt x="122" y="700" on="0"/>
        <pt x="133" y="700" on="1"/>
        <pt x="741" y="700" on="1"/>
        <pt x="752" y="700" on="0"/>
        <pt x="768" y="684" on="0"/>
      </contour>
    </TTGlyph>
    <TTGlyph name="Jcircumflex" xMin="27" yMin="-10" xMax="768" yMax="850">
      <contour>
        <pt x="768" y="673" on="1"/>
        <pt x="768" y="291" on="1"/>
        <pt x="768" y="139" on="0"/>
        <pt x="568" y="-10" on="0"/>
        <pt x="401" y="-10" on="1"/>
        <pt x="310" y="-10" on="0"/>
        <pt x="162" y="37" on="0"/>
        <pt x="118" y="75" on="1"/>
        <pt x="27" y="154" on="0"/>
        <pt x="27" y="245" on="1"/>
        <pt x="27" y="254" on="0"/>
        <pt x="40" y="267" on="0"/>
        <pt x="49" y="267" on="1"/>
        <pt x="275" y="267" on="1"/>
        <pt x="293" y="267" on="0"/>
        <pt x="300" y="245" on="1"/>
        <pt x="319" y="185" on="0"/>
        <pt x="396" y="185" on="1"/>
        <pt x="443" y="185" on="0"/>
        <pt x="498" y="229" on="0"/>
        <pt x="498" y="270" on="1"/>
        <pt x="498" y="495" on="1"/>
        <pt x="133" y="495" on="1"/>
        <pt x="122" y="495" on="0"/>
        <pt x="106" y="511" on="0"/>
        <pt x="106" y="522" on="1"/>
        <pt x="106" y="673" on="1"/>
        <pt x="106" y="684" on="0"/>
        <pt x="122" y="700" on="0"/>
        <pt x="133" y="700" on="1"/>
        <pt x="741" y="700" on="1"/>
        <pt x="752" y="700" on="0"/>
        <pt x="768" y="684" on="0"/>
      </contour>
      <contour>
        <pt x="338" y="731" on="1"/>
        <pt x="257" y="731" on="1"/>
        <pt x="241" y="731" on="0"/>
        <pt x="241" y="747" on="1"/>
        <pt x="241" y="756" on="0"/>
        <pt x="249" y="761" on="1"/>
        <pt x="332" y="831" on="1"/>
        <pt x="359" y="850" on="0"/>
        <pt x="379" y="850" on="1"/>
        <pt x="491" y="850" on="1"/>
        <pt x="511" y="850" on="0"/>
        <pt x="538" y="831" on="1"/>
        <pt x="621" y="761" on="1"/>
        <pt x="629" y="756" on="0"/>
        <pt x="629" y="747" on="1"/>
        <pt x="629" y="731" on="0"/>
        <pt x="613" y="731" on="1"/>
        <pt x="532" y="731" on="1"/>
        <pt x="514" y="731" on="0"/>
        <pt x="492" y="738" on="1"/>
        <pt x="435" y="760" on="1"/>
        <pt x="378" y="738" on="1"/>
        <pt x="356" y="731" on="0"/>
      </contour>
    </TTGlyph>
    <TTGlyph name="K" xMin="92" yMin="0" xMax="842" yMax="700">
      <contour>
        <pt x="838" y="35" on="1"/>
        <pt x="842" y="29" on="0"/>
        <pt x="842" y="13" on="0"/>
        <pt x="829" y="0" on="0"/>
        <pt x="820" y="0" on="1"/>
        <pt x="562" y="0" on="1"/>
        <pt x="539" y="0" on="0"/>
        <pt x="526" y="16" on="1"/>
        <pt x="352" y="231" on="1"/>
        <pt x="352" y="27" on="1"/>
        <pt x="352" y="16" on="0"/>
        <pt x="336" y="0" on="0"/>
        <pt x="325" y="0" on="1"/>
        <pt x="119" y="0" on="1"/>
        <pt x="108" y="0" on="0"/>
        <pt x="92" y="16" on="0"/>
        <pt x="92" y="27" on="1"/>
        <pt x="92" y="673" on="1"/>
        <pt x="92" y="684" on="0"/>
        <pt x="108" y="700" on="0"/>
        <pt x="119" y="700" on="1"/>
        <pt x="325" y="700" on="1"/>
        <pt x="336" y="700" on="0"/>
        <pt x="352" y="684" on="0"/>
        <pt x="352" y="673" on="1"/>
        <pt x="352" y="485" on="1"/>
        <pt x="510" y="683" on="1"/>
        <pt x="525" y="700" on="0"/>
        <pt x="547" y="700" on="1"/>
        <pt x="788" y="700" on="1"/>
        <pt x="797" y="700" on="0"/>
        <pt x="810" y="687" on="0"/>
        <pt x="810" y="670" on="0"/>
        <pt x="805" y="664" on="1"/>
        <pt x="568" y="375" on="1"/>
      </contour>
    </TTGlyph>
    <TTGlyph name="Kcommaaccent" xMin="92" yMin="-150" xMax="842" yMax="700">
      <contour>
        <pt x="838" y="35" on="1"/>
        <pt x="842" y="29" on="0"/>
        <pt x="842" y="13" on="0"/>
        <pt x="829" y="0" on="0"/>
        <pt x="820" y="0" on="1"/>
        <pt x="562" y="0" on="1"/>
        <pt x="539" y="0" on="0"/>
        <pt x="526" y="16" on="1"/>
        <pt x="352" y="231" on="1"/>
        <pt x="352" y="27" on="1"/>
        <pt x="352" y="16" on="0"/>
        <pt x="336" y="0" on="0"/>
        <pt x="325" y="0" on="1"/>
        <pt x="119" y="0" on="1"/>
        <pt x="108" y="0" on="0"/>
        <pt x="92" y="16" on="0"/>
        <pt x="92" y="27" on="1"/>
        <pt x="92" y="673" on="1"/>
        <pt x="92" y="684" on="0"/>
        <pt x="108" y="700" on="0"/>
        <pt x="119" y="700" on="1"/>
        <pt x="325" y="700" on="1"/>
        <pt x="336" y="700" on="0"/>
        <pt x="352" y="684" on="0"/>
        <pt x="352" y="673" on="1"/>
        <pt x="352" y="485" on="1"/>
        <pt x="510" y="683" on="1"/>
        <pt x="525" y="700" on="0"/>
        <pt x="547" y="700" on="1"/>
        <pt x="788" y="700" on="1"/>
        <pt x="797" y="700" on="0"/>
        <pt x="810" y="687" on="0"/>
        <pt x="810" y="670" on="0"/>
        <pt x="805" y="664" on="1"/>
        <pt x="568" y="375" on="1"/>
      </contour>
      <contour>
        <pt x="514" y="-31" on="1"/>
        <pt x="533" y="-31" on="0"/>
        <pt x="533" y="-51" on="1"/>
        <pt x="533" y="-58" on="0"/>
        <pt x="528" y="-63" on="1"/>
        <pt x="433" y="-143" on="1"/>
        <pt x="424" y="-150" on="0"/>
        <pt x="405" y="-150" on="1"/>
        <pt x="272" y="-150" on="1"/>
        <pt x="256" y="-150" on="0"/>
        <pt x="256" y="-134" on="1"/>
        <pt x="256" y="-126" on="0"/>
        <pt x="261" y="-121" on="1"/>
        <pt x="319" y="-50" on="1"/>
        <pt x="333" y="-33" on="0"/>
        <pt x="356" y="-31" on="1"/>
      </contour>
    </TTGlyph>
    <TTGlyph name="L" xMin="140" yMin="0" xMax="778" yMax="700">
      <contour>
        <pt x="410" y="205" on="1"/>
        <pt x="751" y="205" on="1"/>
        <pt x="762" y="205" on="0"/>
        <pt x="778" y="189" on="0"/>
        <pt x="778" y="178" on="1"/>
        <pt x="778" y="27" on="1"/>
        <pt x="778" y="16" on="0"/>
        <pt x="762" y="0" on="0"/>
        <pt x="751" y="0" on="1"/>
        <pt x="167" y="0" on="1"/>
        <pt x="156" y="0" on="0"/>
        <pt x="140" y="16" on="0"/>
        <pt x="140" y="27" on="1"/>
        <pt x="140" y="673" on="1"/>
        <pt x="140" y="684" on="0"/>
        <pt x="156" y="700" on="0"/>
        <pt x="167" y="700" on="1"/>
        <pt x="383" y="700" on="1"/>
        <pt x="394" y="700" on="0"/>
        <pt x="410" y="684" on="0"/>
        <pt x="410" y="673" on="1"/>
      </contour>
    </TTGlyph>
    <TTGlyph name="Lacute" xMin="140" yMin="0" xMax="778" yMax="850">
      <contour>
        <pt x="410" y="205" on="1"/>
        <pt x="751" y="205" on="1"/>
        <pt x="762" y="205" on="0"/>
        <pt x="778" y="189" on="0"/>
        <pt x="778" y="178" on="1"/>
        <pt x="778" y="27" on="1"/>
        <pt x="778" y="16" on="0"/>
        <pt x="762" y="0" on="0"/>
        <pt x="751" y="0" on="1"/>
        <pt x="167" y="0" on="1"/>
        <pt x="156" y="0" on="0"/>
        <pt x="140" y="16" on="0"/>
        <pt x="140" y="27" on="1"/>
        <pt x="140" y="673" on="1"/>
        <pt x="140" y="684" on="0"/>
        <pt x="156" y="700" on="0"/>
        <pt x="167" y="700" on="1"/>
        <pt x="383" y="700" on="1"/>
        <pt x="394" y="700" on="0"/>
        <pt x="410" y="684" on="0"/>
        <pt x="410" y="673" on="1"/>
      </contour>
      <contour>
        <pt x="435" y="850" on="1"/>
        <pt x="454" y="850" on="0"/>
        <pt x="454" y="830" on="1"/>
        <pt x="454" y="823" on="0"/>
        <pt x="449" y="818" on="1"/>
        <pt x="354" y="738" on="1"/>
        <pt x="345" y="731" on="0"/>
        <pt x="326" y="731" on="1"/>
        <pt x="193" y="731" on="1"/>
        <pt x="177" y="731" on="0"/>
        <pt x="177" y="747" on="1"/>
        <pt x="177" y="755" on="0"/>
        <pt x="182" y="760" on="1"/>
        <pt x="240" y="831" on="1"/>
        <pt x="254" y="848" on="0"/>
        <pt x="277" y="850" on="1"/>
      </contour>
    </TTGlyph>
    <TTGlyph name="Lcaron" xMin="140" yMin="0" xMax="778" yMax="711">
      <contour>
        <pt x="556" y="711" on="1"/>
        <pt x="691" y="711" on="1"/>
        <pt x="700" y="711" on="0"/>
        <pt x="713" y="698" on="0"/>
        <pt x="713" y="685" on="0"/>
        <pt x="712" y="682" on="1"/>
        <pt x="631" y="542" on="1"/>
        <pt x="612" y="510" on="0"/>
        <pt x="585" y="510" on="1"/>
        <pt x="507" y="510" on="1"/>
        <pt x="498" y="510" on="0"/>
        <pt x="485" y="523" on="0"/>
        <pt x="485" y="532" on="1"/>
        <pt x="485" y="534" on="1"/>
        <pt x="508" y="672" on="1"/>
        <pt x="510" y="687" on="0"/>
        <pt x="537" y="711" on="0"/>
      </contour>
      <contour>
        <pt x="410" y="205" on="1"/>
        <pt x="751" y="205" on="1"/>
        <pt x="762" y="205" on="0"/>
        <pt x="778" y="189" on="0"/>
        <pt x="778" y="178" on="1"/>
        <pt x="778" y="27" on="1"/>
        <pt x="778" y="16" on="0"/>
        <pt x="762" y="0" on="0"/>
        <pt x="751" y="0" on="1"/>
        <pt x="167" y="0" on="1"/>
        <pt x="156" y="0" on="0"/>
        <pt x="140" y="16" on="0"/>
        <pt x="140" y="27" on="1"/>
        <pt x="140" y="673" on="1"/>
        <pt x="140" y="684" on="0"/>
        <pt x="156" y="700" on="0"/>
        <pt x="167" y="700" on="1"/>
        <pt x="383" y="700" on="1"/>
        <pt x="394" y="700" on="0"/>
        <pt x="410" y="684" on="0"/>
        <pt x="410" y="673" on="1"/>
      </contour>
    </TTGlyph>
    <TTGlyph name="Lcommaaccent" xMin="140" yMin="-150" xMax="778" yMax="700">
      <contour>
        <pt x="410" y="205" on="1"/>
        <pt x="751" y="205" on="1"/>
        <pt x="762" y="205" on="0"/>
        <pt x="778" y="189" on="0"/>
        <pt x="778" y="178" on="1"/>
        <pt x="778" y="27" on="1"/>
        <pt x="778" y="16" on="0"/>
        <pt x="762" y="0" on="0"/>
        <pt x="751" y="0" on="1"/>
        <pt x="167" y="0" on="1"/>
        <pt x="156" y="0" on="0"/>
        <pt x="140" y="16" on="0"/>
        <pt x="140" y="27" on="1"/>
        <pt x="140" y="673" on="1"/>
        <pt x="140" y="684" on="0"/>
        <pt x="156" y="700" on="0"/>
        <pt x="167" y="700" on="1"/>
        <pt x="383" y="700" on="1"/>
        <pt x="394" y="700" on="0"/>
        <pt x="410" y="684" on="0"/>
        <pt x="410" y="673" on="1"/>
      </contour>
      <contour>
        <pt x="536" y="-31" on="1"/>
        <pt x="555" y="-31" on="0"/>
        <pt x="555" y="-51" on="1"/>
        <pt x="555" y="-58" on="0"/>
        <pt x="550" y="-63" on="1"/>
        <pt x="455" y="-143" on="1"/>
        <pt x="446" y="-150" on="0"/>
        <pt x="427" y="-150" on="1"/>
        <pt x="294" y="-150" on="1"/>
        <pt x="278" y="-150" on="0"/>
        <pt x="278" y="-134" on="1"/>
        <pt x="278" y="-126" on="0"/>
        <pt x="283" y="-121" on="1"/>
        <pt x="341" y="-50" on="1"/>
        <pt x="355" y="-33" on="0"/>
        <pt x="378" y="-31" on="1"/>
      </contour>
    </TTGlyph>
    <TTGlyph name="Ldot" xMin="140" yMin="0" xMax="778" yMax="700">
      <contour>
        <pt x="508" y="496" on="1"/>
        <pt x="644" y="496" on="1"/>
        <pt x="654" y="496" on="0"/>
        <pt x="667" y="483" on="0"/>
        <pt x="667" y="473" on="1"/>
        <pt x="667" y="337" on="1"/>
        <pt x="667" y="327" on="0"/>
        <pt x="654" y="314" on="0"/>
        <pt x="644" y="314" on="1"/>
        <pt x="508" y="314" on="1"/>
        <pt x="498" y="314" on="0"/>
        <pt x="485" y="327" on="0"/>
        <pt x="485" y="337" on="1"/>
        <pt x="485" y="473" on="1"/>
        <pt x="485" y="483" on="0"/>
        <pt x="498" y="496" on="0"/>
      </contour>
      <contour>
        <pt x="410" y="205" on="1"/>
        <pt x="751" y="205" on="1"/>
        <pt x="762" y="205" on="0"/>
        <pt x="778" y="189" on="0"/>
        <pt x="778" y="178" on="1"/>
        <pt x="778" y="27" on="1"/>
        <pt x="778" y="16" on="0"/>
        <pt x="762" y="0" on="0"/>
        <pt x="751" y="0" on="1"/>
        <pt x="167" y="0" on="1"/>
        <pt x="156" y="0" on="0"/>
        <pt x="140" y="16" on="0"/>
        <pt x="140" y="27" on="1"/>
        <pt x="140" y="673" on="1"/>
        <pt x="140" y="684" on="0"/>
        <pt x="156" y="700" on="0"/>
        <pt x="167" y="700" on="1"/>
        <pt x="383" y="700" on="1"/>
        <pt x="394" y="700" on="0"/>
        <pt x="410" y="684" on="0"/>
        <pt x="410" y="673" on="1"/>
      </contour>
    </TTGlyph>
    <TTGlyph name="Lslash" xMin="85" yMin="0" xMax="778" yMax="700">
      <contour>
        <pt x="410" y="205" on="1"/>
        <pt x="751" y="205" on="1"/>
        <pt x="762" y="205" on="0"/>
        <pt x="778" y="189" on="0"/>
        <pt x="778" y="178" on="1"/>
        <pt x="778" y="27" on="1"/>
        <pt x="778" y="16" on="0"/>
        <pt x="762" y="0" on="0"/>
        <pt x="751" y="0" on="1"/>
        <pt x="167" y="0" on="1"/>
        <pt x="156" y="0" on="0"/>
        <pt x="140" y="16" on="0"/>
        <pt x="140" y="27" on="1"/>
        <pt x="140" y="217" on="1"/>
        <pt x="117" y="208" on="1"/>
        <pt x="110" y="205" on="0"/>
        <pt x="97" y="205" on="0"/>
        <pt x="85" y="217" on="0"/>
        <pt x="85" y="226" on="1"/>
        <pt x="85" y="334" on="1"/>
        <pt x="85" y="359" on="0"/>
        <pt x="107" y="367" on="1"/>
        <pt x="140" y="380" on="1"/>
        <pt x="140" y="673" on="1"/>
        <pt x="140" y="684" on="0"/>
        <pt x="156" y="700" on="0"/>
        <pt x="167" y="700" on="1"/>
        <pt x="383" y="700" on="1"/>
        <pt x="394" y="700" on="0"/>
        <pt x="410" y="684" on="0"/>
        <pt x="410" y="673" on="1"/>
        <pt x="410" y="487" on="1"/>
        <pt x="584" y="557" on="1"/>
        <pt x="592" y="560" on="0"/>
        <pt x="604" y="560" on="0"/>
        <pt x="616" y="548" on="0"/>
        <pt x="616" y="539" on="1"/>
        <pt x="616" y="431" on="1"/>
        <pt x="616" y="406" on="0"/>
        <pt x="594" y="398" on="1"/>
        <pt x="410" y="324" on="1"/>
      </contour>
    </TTGlyph>
    <TTGlyph name="M" xMin="41" yMin="0" xMax="809" yMax="700">
      <contour>
        <pt x="599" y="700" on="1"/>
        <pt x="782" y="700" on="1"/>
        <pt x="793" y="700" on="0"/>
        <pt x="809" y="684" on="0"/>
        <pt x="809" y="673" on="1"/>
        <pt x="809" y="27" on="1"/>
        <pt x="809" y="16" on="0"/>
        <pt x="793" y="0" on="0"/>
        <pt x="782" y="0" on="1"/>
        <pt x="601" y="0" on="1"/>
        <pt x="590" y="0" on="0"/>
        <pt x="574" y="16" on="0"/>
        <pt x="574" y="27" on="1"/>
        <pt x="574" y="337" on="1"/>
        <pt x="501" y="193" on="1"/>
        <pt x="495" y="181" on="0"/>
        <pt x="471" y="168" on="0"/>
        <pt x="459" y="168" on="1"/>
        <pt x="391" y="168" on="1"/>
        <pt x="374" y="168" on="0"/>
        <pt x="352" y="186" on="0"/>
        <pt x="349" y="193" on="1"/>
        <pt x="276" y="337" on="1"/>
        <pt x="276" y="27" on="1"/>
        <pt x="276" y="16" on="0"/>
        <pt x="260" y="0" on="0"/>
        <pt x="249" y="0" on="1"/>
        <pt x="68" y="0" on="1"/>
        <pt x="57" y="0" on="0"/>
        <pt x="41" y="16" on="0"/>
        <pt x="41" y="27" on="1"/>
        <pt x="41" y="673" on="1"/>
        <pt x="41" y="684" on="0"/>
        <pt x="57" y="700" on="0"/>
        <pt x="68" y="700" on="1"/>
        <pt x="251" y="700" on="1"/>
        <pt x="279" y="700" on="0"/>
        <pt x="294" y="673" on="1"/>
        <pt x="425" y="433" on="1"/>
        <pt x="556" y="673" on="1"/>
        <pt x="571" y="700" on="0"/>
      </contour>
    </TTGlyph>
    <TTGlyph name="Macron" xMin="219" yMin="731" xMax="632" yMax="850">
      <contour>
        <pt x="242" y="850" on="1"/>
        <pt x="609" y="850" on="1"/>
        <pt x="619" y="850" on="0"/>
        <pt x="632" y="837" on="0"/>
        <pt x="632" y="827" on="1"/>
        <pt x="632" y="754" on="1"/>
        <pt x="632" y="744" on="0"/>
        <pt x="619" y="731" on="0"/>
        <pt x="609" y="731" on="1"/>
        <pt x="242" y="731" on="1"/>
        <pt x="232" y="731" on="0"/>
        <pt x="219" y="744" on="0"/>
        <pt x="219" y="754" on="1"/>
        <pt x="219" y="827" on="1"/>
        <pt x="219" y="837" on="0"/>
        <pt x="232" y="850" on="0"/>
      </contour>
    </TTGlyph>
    <TTGlyph name="N" xMin="79" yMin="0" xMax="765" yMax="700">
      <contour>
        <pt x="552" y="700" on="1"/>
        <pt x="738" y="700" on="1"/>
        <pt x="749" y="700" on="0"/>
        <pt x="765" y="684" on="0"/>
        <pt x="765" y="673" on="1"/>
        <pt x="765" y="27" on="1"/>
        <pt x="765" y="16" on="0"/>
        <pt x="749" y="0" on="0"/>
        <pt x="738" y="0" on="1"/>
        <pt x="577" y="0" on="1"/>
        <pt x="553" y="0" on="0"/>
        <pt x="537" y="21" on="1"/>
        <pt x="319" y="299" on="1"/>
        <pt x="319" y="27" on="1"/>
        <pt x="319" y="16" on="0"/>
        <pt x="303" y="0" on="0"/>
        <pt x="292" y="0" on="1"/>
        <pt x="106" y="0" on="1"/>
        <pt x="95" y="0" on="0"/>
        <pt x="79" y="16" on="0"/>
        <pt x="79" y="27" on="1"/>
        <pt x="79" y="673" on="1"/>
        <pt x="79" y="684" on="0"/>
        <pt x="95" y="700" on="0"/>
        <pt x="106" y="700" on="1"/>
        <pt x="268" y="700" on="1"/>
        <pt x="292" y="700" on="0"/>
        <pt x="307" y="680" on="1"/>
        <pt x="525" y="379" on="1"/>
        <pt x="525" y="673" on="1"/>
        <pt x="525" y="684" on="0"/>
        <pt x="541" y="700" on="0"/>
      </contour>
    </TTGlyph>
    <TTGlyph name="Nacute" xMin="79" yMin="0" xMax="765" yMax="850">
      <contour>
        <pt x="552" y="700" on="1"/>
        <pt x="738" y="700" on="1"/>
        <pt x="749" y="700" on="0"/>
        <pt x="765" y="684" on="0"/>
        <pt x="765" y="673" on="1"/>
        <pt x="765" y="27" on="1"/>
        <pt x="765" y="16" on="0"/>
        <pt x="749" y="0" on="0"/>
        <pt x="738" y="0" on="1"/>
        <pt x="577" y="0" on="1"/>
        <pt x="553" y="0" on="0"/>
        <pt x="537" y="21" on="1"/>
        <pt x="319" y="299" on="1"/>
        <pt x="319" y="27" on="1"/>
        <pt x="319" y="16" on="0"/>
        <pt x="303" y="0" on="0"/>
        <pt x="292" y="0" on="1"/>
        <pt x="106" y="0" on="1"/>
        <pt x="95" y="0" on="0"/>
        <pt x="79" y="16" on="0"/>
        <pt x="79" y="27" on="1"/>
        <pt x="79" y="673" on="1"/>
        <pt x="79" y="684" on="0"/>
        <pt x="95" y="700" on="0"/>
        <pt x="106" y="700" on="1"/>
        <pt x="268" y="700" on="1"/>
        <pt x="292" y="700" on="0"/>
        <pt x="307" y="680" on="1"/>
        <pt x="525" y="379" on="1"/>
        <pt x="525" y="673" on="1"/>
        <pt x="525" y="684" on="0"/>
        <pt x="541" y="700" on="0"/>
      </contour>
      <contour>
        <pt x="584" y="850" on="1"/>
        <pt x="603" y="850" on="0"/>
        <pt x="603" y="830" on="1"/>
        <pt x="603" y="823" on="0"/>
        <pt x="598" y="818" on="1"/>
        <pt x="503" y="738" on="1"/>
        <pt x="494" y="731" on="0"/>
        <pt x="475" y="731" on="1"/>
        <pt x="342" y="731" on="1"/>
        <pt x="326" y="731" on="0"/>
        <pt x="326" y="747" on="1"/>
        <pt x="326" y="755" on="0"/>
        <pt x="331" y="760" on="1"/>
        <pt x="389" y="831" on="1"/>
        <pt x="403" y="848" on="0"/>
        <pt x="426" y="850" on="1"/>
      </contour>
    </TTGlyph>
    <TTGlyph name="Ncaron" xMin="79" yMin="0" xMax="765" yMax="850">
      <contour>
        <pt x="552" y="700" on="1"/>
        <pt x="738" y="700" on="1"/>
        <pt x="749" y="700" on="0"/>
        <pt x="765" y="684" on="0"/>
        <pt x="765" y="673" on="1"/>
        <pt x="765" y="27" on="1"/>
        <pt x="765" y="16" on="0"/>
        <pt x="749" y="0" on="0"/>
        <pt x="738" y="0" on="1"/>
        <pt x="577" y="0" on="1"/>
        <pt x="553" y="0" on="0"/>
        <pt x="537" y="21" on="1"/>
        <pt x="319" y="299" on="1"/>
        <pt x="319" y="27" on="1"/>
        <pt x="319" y="16" on="0"/>
        <pt x="303" y="0" on="0"/>
        <pt x="292" y="0" on="1"/>
        <pt x="106" y="0" on="1"/>
        <pt x="95" y="0" on="0"/>
        <pt x="79" y="16" on="0"/>
        <pt x="79" y="27" on="1"/>
        <pt x="79" y="673" on="1"/>
        <pt x="79" y="684" on="0"/>
        <pt x="95" y="700" on="0"/>
        <pt x="106" y="700" on="1"/>
        <pt x="268" y="700" on="1"/>
        <pt x="292" y="700" on="0"/>
        <pt x="307" y="680" on="1"/>
        <pt x="525" y="379" on="1"/>
        <pt x="525" y="673" on="1"/>
        <pt x="525" y="684" on="0"/>
        <pt x="541" y="700" on="0"/>
      </contour>
      <contour>
        <pt x="522" y="850" on="1"/>
        <pt x="603" y="850" on="1"/>
        <pt x="619" y="850" on="0"/>
        <pt x="619" y="834" on="1"/>
        <pt x="619" y="825" on="0"/>
        <pt x="611" y="820" on="1"/>
        <pt x="528" y="750" on="1"/>
        <pt x="501" y="731" on="0"/>
        <pt x="481" y="731" on="1"/>
        <pt x="369" y="731" on="1"/>
        <pt x="349" y="731" on="0"/>
        <pt x="322" y="750" on="1"/>
        <pt x="239" y="820" on="1"/>
        <pt x="231" y="825" on="0"/>
        <pt x="231" y="834" on="1"/>
        <pt x="231" y="850" on="0"/>
        <pt x="247" y="850" on="1"/>
        <pt x="328" y="850" on="1"/>
        <pt x="346" y="850" on="0"/>
        <pt x="368" y="843" on="1"/>
        <pt x="425" y="821" on="1"/>
        <pt x="482" y="843" on="1"/>
        <pt x="504" y="850" on="0"/>
      </contour>
    </TTGlyph>
    <TTGlyph name="Ncommaaccent" xMin="79" yMin="-150" xMax="765" yMax="700">
      <contour>
        <pt x="552" y="700" on="1"/>
        <pt x="738" y="700" on="1"/>
        <pt x="749" y="700" on="0"/>
        <pt x="765" y="684" on="0"/>
        <pt x="765" y="673" on="1"/>
        <pt x="765" y="27" on="1"/>
        <pt x="765" y="16" on="0"/>
        <pt x="749" y="0" on="0"/>
        <pt x="738" y="0" on="1"/>
        <pt x="577" y="0" on="1"/>
        <pt x="553" y="0" on="0"/>
        <pt x="537" y="21" on="1"/>
        <pt x="319" y="299" on="1"/>
        <pt x="319" y="27" on="1"/>
        <pt x="319" y="16" on="0"/>
        <pt x="303" y="0" on="0"/>
        <pt x="292" y="0" on="1"/>
        <pt x="106" y="0" on="1"/>
        <pt x="95" y="0" on="0"/>
        <pt x="79" y="16" on="0"/>
        <pt x="79" y="27" on="1"/>
        <pt x="79" y="673" on="1"/>
        <pt x="79" y="684" on="0"/>
        <pt x="95" y="700" on="0"/>
        <pt x="106" y="700" on="1"/>
        <pt x="268" y="700" on="1"/>
        <pt x="292" y="700" on="0"/>
        <pt x="307" y="680" on="1"/>
        <pt x="525" y="379" on="1"/>
        <pt x="525" y="673" on="1"/>
        <pt x="525" y="684" on="0"/>
        <pt x="541" y="700" on="0"/>
      </contour>
      <contour>
        <pt x="514" y="-31" on="1"/>
        <pt x="533" y="-31" on="0"/>
        <pt x="533" y="-51" on="1"/>
        <pt x="533" y="-58" on="0"/>
        <pt x="528" y="-63" on="1"/>
        <pt x="433" y="-143" on="1"/>
        <pt x="424" y="-150" on="0"/>
        <pt x="405" y="-150" on="1"/>
        <pt x="272" y="-150" on="1"/>
        <pt x="256" y="-150" on="0"/>
        <pt x="256" y="-134" on="1"/>
        <pt x="256" y="-126" on="0"/>
        <pt x="261" y="-121" on="1"/>
        <pt x="319" y="-50" on="1"/>
        <pt x="333" y="-33" on="0"/>
        <pt x="356" y="-31" on="1"/>
      </contour>
    </TTGlyph>
    <TTGlyph name="Ntilde" xMin="79" yMin="0" xMax="765" yMax="858">
      <contour>
        <pt x="585" y="757" on="0"/>
        <pt x="528" y="733" on="0"/>
        <pt x="462" y="733" on="0"/>
        <pt x="396" y="757" on="0"/>
        <pt x="356" y="757" on="0"/>
        <pt x="347" y="745" on="1"/>
        <pt x="342" y="736" on="0"/>
        <pt x="332" y="736" on="1"/>
        <pt x="248" y="736" on="1"/>
        <pt x="240" y="736" on="0"/>
        <pt x="229" y="747" on="0"/>
        <pt x="229" y="766" on="0"/>
        <pt x="242" y="797" on="0"/>
        <pt x="269" y="833" on="0"/>
        <pt x="327" y="858" on="0"/>
        <pt x="393" y="858" on="0"/>
        <pt x="459" y="834" on="0"/>
        <pt x="500" y="834" on="0"/>
        <pt x="513" y="855" on="0"/>
        <pt x="523" y="855" on="1"/>
        <pt x="607" y="855" on="1"/>
        <pt x="626" y="855" on="0"/>
        <pt x="626" y="836" on="1"/>
        <pt x="626" y="811" on="0"/>
        <pt x="599" y="776" on="1"/>
      </contour>
      <contour>
        <pt x="552" y="700" on="1"/>
        <pt x="738" y="700" on="1"/>
        <pt x="749" y="700" on="0"/>
        <pt x="765" y="684" on="0"/>
        <pt x="765" y="673" on="1"/>
        <pt x="765" y="27" on="1"/>
        <pt x="765" y="16" on="0"/>
        <pt x="749" y="0" on="0"/>
        <pt x="738" y="0" on="1"/>
        <pt x="577" y="0" on="1"/>
        <pt x="553" y="0" on="0"/>
        <pt x="537" y="21" on="1"/>
        <pt x="319" y="299" on="1"/>
        <pt x="319" y="27" on="1"/>
        <pt x="319" y="16" on="0"/>
        <pt x="303" y="0" on="0"/>
        <pt x="292" y="0" on="1"/>
        <pt x="106" y="0" on="1"/>
        <pt x="95" y="0" on="0"/>
        <pt x="79" y="16" on="0"/>
        <pt x="79" y="27" on="1"/>
        <pt x="79" y="673" on="1"/>
        <pt x="79" y="684" on="0"/>
        <pt x="95" y="700" on="0"/>
        <pt x="106" y="700" on="1"/>
        <pt x="268" y="700" on="1"/>
        <pt x="292" y="700" on="0"/>
        <pt x="307" y="680" on="1"/>
        <pt x="525" y="379" on="1"/>
        <pt x="525" y="673" on="1"/>
        <pt x="525" y="684" on="0"/>
        <pt x="541" y="700" on="0"/>
      </contour>
    </TTGlyph>
    <TTGlyph name="O" xMin="53" yMin="-10" xMax="797" yMax="710">
      <contour>
        <pt x="797" y="411" on="1"/>
        <pt x="797" y="289" on="1"/>
        <pt x="797" y="186" on="0"/>
        <pt x="697" y="48" on="0"/>
        <pt x="535" y="-10" on="0"/>
        <pt x="315" y="-10" on="0"/>
        <pt x="153" y="48" on="0"/>
        <pt x="53" y="186" on="0"/>
        <pt x="53" y="291" on="1"/>
        <pt x="53" y="409" on="1"/>
        <pt x="53" y="560" on="0"/>
        <pt x="260" y="710" on="0"/>
        <pt x="590" y="710" on="0"/>
        <pt x="797" y="560" on="0"/>
      </contour>
      <contour>
        <pt x="323" y="430" on="1"/>
        <pt x="323" y="270" on="1"/>
        <pt x="323" y="229" on="0"/>
        <pt x="378" y="185" on="0"/>
        <pt x="472" y="185" on="0"/>
        <pt x="527" y="230" on="0"/>
        <pt x="527" y="271" on="1"/>
        <pt x="527" y="429" on="1"/>
        <pt x="527" y="470" on="0"/>
        <pt x="472" y="515" on="0"/>
        <pt x="378" y="515" on="0"/>
        <pt x="323" y="471" on="0"/>
      </contour>
    </TTGlyph>
    <TTGlyph name="OE" xMin="54" yMin="0" xMax="805" yMax="700">
      <contour>
        <pt x="778" y="0" on="1"/>
        <pt x="396" y="0" on="1"/>
        <pt x="54" y="0" on="0"/>
        <pt x="54" y="300" on="1"/>
        <pt x="54" y="399" on="1"/>
        <pt x="54" y="553" on="0"/>
        <pt x="235" y="700" on="0"/>
        <pt x="396" y="700" on="1"/>
        <pt x="768" y="700" on="1"/>
        <pt x="779" y="700" on="0"/>
        <pt x="795" y="684" on="0"/>
        <pt x="795" y="673" on="1"/>
        <pt x="795" y="532" on="1"/>
        <pt x="795" y="521" on="0"/>
        <pt x="779" y="505" on="0"/>
        <pt x="768" y="505" on="1"/>
        <pt x="636" y="505" on="1"/>
        <pt x="636" y="442" on="1"/>
        <pt x="744" y="442" on="1"/>
        <pt x="755" y="442" on="0"/>
        <pt x="771" y="426" on="0"/>
        <pt x="771" y="415" on="1"/>
        <pt x="771" y="285" on="1"/>
        <pt x="771" y="274" on="0"/>
        <pt x="755" y="258" on="0"/>
        <pt x="744" y="258" on="1"/>
        <pt x="636" y="258" on="1"/>
        <pt x="636" y="195" on="1"/>
        <pt x="778" y="195" on="1"/>
        <pt x="789" y="195" on="0"/>
        <pt x="805" y="179" on="0"/>
        <pt x="805" y="168" on="1"/>
        <pt x="805" y="27" on="1"/>
        <pt x="805" y="16" on="0"/>
        <pt x="789" y="0" on="0"/>
      </contour>
      <contour>
        <pt x="294" y="420" on="1"/>
        <pt x="294" y="279" on="1"/>
        <pt x="294" y="239" on="0"/>
        <pt x="349" y="195" on="0"/>
        <pt x="396" y="195" on="1"/>
        <pt x="396" y="505" on="1"/>
        <pt x="349" y="505" on="0"/>
        <pt x="294" y="461" on="0"/>
      </contour>
    </TTGlyph>
    <TTGlyph name="Oacute" xMin="53" yMin="-10" xMax="797" yMax="850">
      <contour>
        <pt x="797" y="411" on="1"/>
        <pt x="797" y="289" on="1"/>
        <pt x="797" y="186" on="0"/>
        <pt x="697" y="48" on="0"/>
        <pt x="535" y="-10" on="0"/>
        <pt x="315" y="-10" on="0"/>
        <pt x="153" y="48" on="0"/>
        <pt x="53" y="186" on="0"/>
        <pt x="53" y="291" on="1"/>
        <pt x="53" y="409" on="1"/>
        <pt x="53" y="560" on="0"/>
        <pt x="260" y="710" on="0"/>
        <pt x="590" y="710" on="0"/>
        <pt x="797" y="560" on="0"/>
      </contour>
      <contour>
        <pt x="323" y="430" on="1"/>
        <pt x="323" y="270" on="1"/>
        <pt x="323" y="229" on="0"/>
        <pt x="378" y="185" on="0"/>
        <pt x="472" y="185" on="0"/>
        <pt x="527" y="230" on="0"/>
        <pt x="527" y="271" on="1"/>
        <pt x="527" y="429" on="1"/>
        <pt x="527" y="470" on="0"/>
        <pt x="472" y="515" on="0"/>
        <pt x="378" y="515" on="0"/>
        <pt x="323" y="471" on="0"/>
      </contour>
      <contour>
        <pt x="582" y="850" on="1"/>
        <pt x="601" y="850" on="0"/>
        <pt x="601" y="830" on="1"/>
        <pt x="601" y="823" on="0"/>
        <pt x="596" y="818" on="1"/>
        <pt x="501" y="738" on="1"/>
        <pt x="492" y="731" on="0"/>
        <pt x="473" y="731" on="1"/>
        <pt x="340" y="731" on="1"/>
        <pt x="324" y="731" on="0"/>
        <pt x="324" y="747" on="1"/>
        <pt x="324" y="755" on="0"/>
        <pt x="329" y="760" on="1"/>
        <pt x="387" y="831" on="1"/>
        <pt x="401" y="848" on="0"/>
        <pt x="424" y="850" on="1"/>
      </contour>
    </TTGlyph>
    <TTGlyph name="Obreve" xMin="53" yMin="-10" xMax="797" yMax="855">
      <contour>
        <pt x="797" y="411" on="1"/>
        <pt x="797" y="289" on="1"/>
        <pt x="797" y="186" on="0"/>
        <pt x="697" y="48" on="0"/>
        <pt x="535" y="-10" on="0"/>
        <pt x="315" y="-10" on="0"/>
        <pt x="153" y="48" on="0"/>
        <pt x="53" y="186" on="0"/>
        <pt x="53" y="291" on="1"/>
        <pt x="53" y="409" on="1"/>
        <pt x="53" y="560" on="0"/>
        <pt x="260" y="710" on="0"/>
        <pt x="590" y="710" on="0"/>
        <pt x="797" y="560" on="0"/>
      </contour>
      <contour>
        <pt x="323" y="430" on="1"/>
        <pt x="323" y="270" on="1"/>
        <pt x="323" y="229" on="0"/>
        <pt x="378" y="185" on="0"/>
        <pt x="472" y="185" on="0"/>
        <pt x="527" y="230" on="0"/>
        <pt x="527" y="271" on="1"/>
        <pt x="527" y="429" on="1"/>
        <pt x="527" y="470" on="0"/>
        <pt x="472" y="515" on="0"/>
        <pt x="378" y="515" on="0"/>
        <pt x="323" y="471" on="0"/>
      </contour>
      <contour>
        <pt x="483" y="855" on="1"/>
        <pt x="582" y="855" on="1"/>
        <pt x="601" y="855" on="0"/>
        <pt x="601" y="842" on="1"/>
        <pt x="601" y="795" on="0"/>
        <pt x="509" y="730" on="0"/>
        <pt x="338" y="730" on="0"/>
        <pt x="246" y="795" on="0"/>
        <pt x="246" y="842" on="1"/>
        <pt x="246" y="855" on="0"/>
        <pt x="265" y="855" on="1"/>
        <pt x="364" y="855" on="1"/>
        <pt x="379" y="855" on="0"/>
        <pt x="383" y="842" on="1"/>
        <pt x="389" y="817" on="0"/>
        <pt x="453" y="817" on="0"/>
        <pt x="464" y="842" on="1"/>
        <pt x="470" y="855" on="0"/>
      </contour>
    </TTGlyph>
    <TTGlyph name="Ocircumflex" xMin="53" yMin="-10" xMax="797" yMax="850">
      <contour>
        <pt x="797" y="411" on="1"/>
        <pt x="797" y="289" on="1"/>
        <pt x="797" y="186" on="0"/>
        <pt x="697" y="48" on="0"/>
        <pt x="535" y="-10" on="0"/>
        <pt x="315" y="-10" on="0"/>
        <pt x="153" y="48" on="0"/>
        <pt x="53" y="186" on="0"/>
        <pt x="53" y="291" on="1"/>
        <pt x="53" y="409" on="1"/>
        <pt x="53" y="560" on="0"/>
        <pt x="260" y="710" on="0"/>
        <pt x="590" y="710" on="0"/>
        <pt x="797" y="560" on="0"/>
      </contour>
      <contour>
        <pt x="323" y="430" on="1"/>
        <pt x="323" y="270" on="1"/>
        <pt x="323" y="229" on="0"/>
        <pt x="378" y="185" on="0"/>
        <pt x="472" y="185" on="0"/>
        <pt x="527" y="230" on="0"/>
        <pt x="527" y="271" on="1"/>
        <pt x="527" y="429" on="1"/>
        <pt x="527" y="470" on="0"/>
        <pt x="472" y="515" on="0"/>
        <pt x="378" y="515" on="0"/>
        <pt x="323" y="471" on="0"/>
      </contour>
      <contour>
        <pt x="329" y="731" on="1"/>
        <pt x="248" y="731" on="1"/>
        <pt x="232" y="731" on="0"/>
        <pt x="232" y="747" on="1"/>
        <pt x="232" y="756" on="0"/>
        <pt x="240" y="761" on="1"/>
        <pt x="323" y="831" on="1"/>
        <pt x="350" y="850" on="0"/>
        <pt x="370" y="850" on="1"/>
        <pt x="482" y="850" on="1"/>
        <pt x="502" y="850" on="0"/>
        <pt x="529" y="831" on="1"/>
        <pt x="612" y="761" on="1"/>
        <pt x="620" y="756" on="0"/>
        <pt x="620" y="747" on="1"/>
        <pt x="620" y="731" on="0"/>
        <pt x="604" y="731" on="1"/>
        <pt x="523" y="731" on="1"/>
        <pt x="505" y="731" on="0"/>
        <pt x="483" y="738" on="1"/>
        <pt x="426" y="760" on="1"/>
        <pt x="369" y="738" on="1"/>
        <pt x="347" y="731" on="0"/>
      </contour>
    </TTGlyph>
    <TTGlyph name="Odieresis" xMin="53" yMin="-10" xMax="797" yMax="854">
      <contour>
        <pt x="493" y="854" on="1"/>
        <pt x="609" y="854" on="1"/>
        <pt x="619" y="854" on="0"/>
        <pt x="632" y="841" on="0"/>
        <pt x="632" y="831" on="1"/>
        <pt x="632" y="758" on="1"/>
        <pt x="632" y="748" on="0"/>
        <pt x="619" y="735" on="0"/>
        <pt x="609" y="735" on="1"/>
        <pt x="493" y="735" on="1"/>
        <pt x="483" y="735" on="0"/>
        <pt x="470" y="748" on="0"/>
        <pt x="470" y="758" on="1"/>
        <pt x="470" y="831" on="1"/>
        <pt x="470" y="841" on="0"/>
        <pt x="483" y="854" on="0"/>
      </contour>
      <contour>
        <pt x="242" y="854" on="1"/>
        <pt x="358" y="854" on="1"/>
        <pt x="368" y="854" on="0"/>
        <pt x="381" y="841" on="0"/>
        <pt x="381" y="831" on="1"/>
        <pt x="381" y="758" on="1"/>
        <pt x="381" y="748" on="0"/>
        <pt x="368" y="735" on="0"/>
        <pt x="358" y="735" on="1"/>
        <pt x="242" y="735" on="1"/>
        <pt x="232" y="735" on="0"/>
        <pt x="219" y="748" on="0"/>
        <pt x="219" y="758" on="1"/>
        <pt x="219" y="831" on="1"/>
        <pt x="219" y="841" on="0"/>
        <pt x="232" y="854" on="0"/>
      </contour>
      <contour>
        <pt x="797" y="411" on="1"/>
        <pt x="797" y="289" on="1"/>
        <pt x="797" y="186" on="0"/>
        <pt x="697" y="48" on="0"/>
        <pt x="535" y="-10" on="0"/>
        <pt x="315" y="-10" on="0"/>
        <pt x="153" y="48" on="0"/>
        <pt x="53" y="186" on="0"/>
        <pt x="53" y="291" on="1"/>
        <pt x="53" y="409" on="1"/>
        <pt x="53" y="560" on="0"/>
        <pt x="260" y="710" on="0"/>
        <pt x="590" y="710" on="0"/>
        <pt x="797" y="560" on="0"/>
      </contour>
      <contour>
        <pt x="323" y="430" on="1"/>
        <pt x="323" y="270" on="1"/>
        <pt x="323" y="229" on="0"/>
        <pt x="378" y="185" on="0"/>
        <pt x="472" y="185" on="0"/>
        <pt x="527" y="230" on="0"/>
        <pt x="527" y="271" on="1"/>
        <pt x="527" y="429" on="1"/>
        <pt x="527" y="470" on="0"/>
        <pt x="472" y="515" on="0"/>
        <pt x="378" y="515" on="0"/>
        <pt x="323" y="471" on="0"/>
      </contour>
    </TTGlyph>
    <TTGlyph name="Ogonek" xMin="329" yMin="-150" xMax="522" yMax="82">
      <contour>
        <pt x="495" y="-60" on="1"/>
        <pt x="522" y="-60" on="0"/>
        <pt x="522" y="-85" on="1"/>
        <pt x="522" y="-126" on="1"/>
        <pt x="522" y="-137" on="0"/>
        <pt x="507" y="-150" on="0"/>
        <pt x="495" y="-150" on="1"/>
        <pt x="481" y="-150" on="1"/>
        <pt x="329" y="-150" on="0"/>
        <pt x="329" y="82" on="0"/>
        <pt x="481" y="82" on="1"/>
        <pt x="495" y="82" on="1"/>
        <pt x="522" y="82" on="0"/>
        <pt x="522" y="62" on="1"/>
        <pt x="522" y="12" on="1"/>
        <pt x="522" y="-8" on="0"/>
        <pt x="495" y="-8" on="1"/>
        <pt x="488" y="-8" on="1"/>
        <pt x="445" y="-8" on="0"/>
        <pt x="445" y="-60" on="0"/>
        <pt x="488" y="-60" on="1"/>
      </contour>
    </TTGlyph>
    <TTGlyph name="Ograve" xMin="53" yMin="-10" xMax="797" yMax="850">
      <contour>
        <pt x="797" y="411" on="1"/>
        <pt x="797" y="289" on="1"/>
        <pt x="797" y="186" on="0"/>
        <pt x="697" y="48" on="0"/>
        <pt x="535" y="-10" on="0"/>
        <pt x="315" y="-10" on="0"/>
        <pt x="153" y="48" on="0"/>
        <pt x="53" y="186" on="0"/>
        <pt x="53" y="291" on="1"/>
        <pt x="53" y="409" on="1"/>
        <pt x="53" y="560" on="0"/>
        <pt x="260" y="710" on="0"/>
        <pt x="590" y="710" on="0"/>
        <pt x="797" y="560" on="0"/>
      </contour>
      <contour>
        <pt x="323" y="430" on="1"/>
        <pt x="323" y="270" on="1"/>
        <pt x="323" y="229" on="0"/>
        <pt x="378" y="185" on="0"/>
        <pt x="472" y="185" on="0"/>
        <pt x="527" y="230" on="0"/>
        <pt x="527" y="271" on="1"/>
        <pt x="527" y="429" on="1"/>
        <pt x="527" y="470" on="0"/>
        <pt x="472" y="515" on="0"/>
        <pt x="378" y="515" on="0"/>
        <pt x="323" y="471" on="0"/>
      </contour>
      <contour>
        <pt x="522" y="747" on="1"/>
        <pt x="522" y="731" on="0"/>
        <pt x="506" y="731" on="1"/>
        <pt x="373" y="731" on="1"/>
        <pt x="354" y="731" on="0"/>
        <pt x="345" y="738" on="1"/>
        <pt x="250" y="818" on="1"/>
        <pt x="245" y="823" on="0"/>
        <pt x="245" y="830" on="1"/>
        <pt x="245" y="850" on="0"/>
        <pt x="264" y="850" on="1"/>
        <pt x="422" y="850" on="1"/>
        <pt x="445" y="848" on="0"/>
        <pt x="459" y="831" on="1"/>
        <pt x="517" y="760" on="1"/>
        <pt x="522" y="755" on="0"/>
      </contour>
    </TTGlyph>
    <TTGlyph name="Ohungarumlaut" xMin="53" yMin="-10" xMax="797" yMax="850">
      <contour>
        <pt x="797" y="411" on="1"/>
        <pt x="797" y="289" on="1"/>
        <pt x="797" y="186" on="0"/>
        <pt x="697" y="48" on="0"/>
        <pt x="535" y="-10" on="0"/>
        <pt x="315" y="-10" on="0"/>
        <pt x="153" y="48" on="0"/>
        <pt x="53" y="186" on="0"/>
        <pt x="53" y="291" on="1"/>
        <pt x="53" y="409" on="1"/>
        <pt x="53" y="560" on="0"/>
        <pt x="260" y="710" on="0"/>
        <pt x="590" y="710" on="0"/>
        <pt x="797" y="560" on="0"/>
      </contour>
      <contour>
        <pt x="323" y="430" on="1"/>
        <pt x="323" y="270" on="1"/>
        <pt x="323" y="229" on="0"/>
        <pt x="378" y="185" on="0"/>
        <pt x="472" y="185" on="0"/>
        <pt x="527" y="230" on="0"/>
        <pt x="527" y="271" on="1"/>
        <pt x="527" y="429" on="1"/>
        <pt x="527" y="470" on="0"/>
        <pt x="472" y="515" on="0"/>
        <pt x="378" y="515" on="0"/>
        <pt x="323" y="471" on="0"/>
      </contour>
      <contour>
        <pt x="464" y="850" on="1"/>
        <pt x="483" y="850" on="0"/>
        <pt x="483" y="830" on="1"/>
        <pt x="483" y="823" on="0"/>
        <pt x="478" y="818" on="1"/>
        <pt x="403" y="738" on="1"/>
        <pt x="394" y="731" on="0"/>
        <pt x="375" y="731" on="1"/>
        <pt x="262" y="731" on="1"/>
        <pt x="246" y="731" on="0"/>
        <pt x="246" y="747" on="1"/>
        <pt x="246" y="750" on="0"/>
        <pt x="251" y="760" on="1"/>
        <pt x="289" y="831" on="1"/>
        <pt x="303" y="848" on="0"/>
        <pt x="326" y="850" on="1"/>
      </contour>
      <contour>
        <pt x="697" y="850" on="1"/>
        <pt x="716" y="850" on="0"/>
        <pt x="716" y="830" on="1"/>
        <pt x="716" y="823" on="0"/>
        <pt x="711" y="818" on="1"/>
        <pt x="636" y="738" on="1"/>
        <pt x="627" y="731" on="0"/>
        <pt x="608" y="731" on="1"/>
        <pt x="495" y="731" on="1"/>
        <pt x="479" y="731" on="0"/>
        <pt x="479" y="747" on="1"/>
        <pt x="479" y="750" on="0"/>
        <pt x="484" y="760" on="1"/>
        <pt x="522" y="831" on="1"/>
        <pt x="536" y="848" on="0"/>
        <pt x="559" y="850" on="1"/>
      </contour>
    </TTGlyph>
    <TTGlyph name="Omacron" xMin="53" yMin="-10" xMax="797" yMax="850">
      <contour>
        <pt x="797" y="411" on="1"/>
        <pt x="797" y="289" on="1"/>
        <pt x="797" y="186" on="0"/>
        <pt x="697" y="48" on="0"/>
        <pt x="535" y="-10" on="0"/>
        <pt x="315" y="-10" on="0"/>
        <pt x="153" y="48" on="0"/>
        <pt x="53" y="186" on="0"/>
        <pt x="53" y="291" on="1"/>
        <pt x="53" y="409" on="1"/>
        <pt x="53" y="560" on="0"/>
        <pt x="260" y="710" on="0"/>
        <pt x="590" y="710" on="0"/>
        <pt x="797" y="560" on="0"/>
      </contour>
      <contour>
        <pt x="323" y="430" on="1"/>
        <pt x="323" y="270" on="1"/>
        <pt x="323" y="229" on="0"/>
        <pt x="378" y="185" on="0"/>
        <pt x="472" y="185" on="0"/>
        <pt x="527" y="230" on="0"/>
        <pt x="527" y="271" on="1"/>
        <pt x="527" y="429" on="1"/>
        <pt x="527" y="470" on="0"/>
        <pt x="472" y="515" on="0"/>
        <pt x="378" y="515" on="0"/>
        <pt x="323" y="471" on="0"/>
      </contour>
      <contour>
        <pt x="242" y="850" on="1"/>
        <pt x="609" y="850" on="1"/>
        <pt x="619" y="850" on="0"/>
        <pt x="632" y="837" on="0"/>
        <pt x="632" y="827" on="1"/>
        <pt x="632" y="754" on="1"/>
        <pt x="632" y="744" on="0"/>
        <pt x="619" y="731" on="0"/>
        <pt x="609" y="731" on="1"/>
        <pt x="242" y="731" on="1"/>
        <pt x="232" y="731" on="0"/>
        <pt x="219" y="744" on="0"/>
        <pt x="219" y="754" on="1"/>
        <pt x="219" y="827" on="1"/>
        <pt x="219" y="837" on="0"/>
        <pt x="232" y="850" on="0"/>
      </contour>
    </TTGlyph>
    <TTGlyph name="Oslash" xMin="0" yMin="-10" xMax="850" yMax="711">
      <contour>
        <pt x="797" y="415" on="1"/>
        <pt x="797" y="289" on="1"/>
        <pt x="797" y="186" on="0"/>
        <pt x="697" y="48" on="0"/>
        <pt x="535" y="-10" on="0"/>
        <pt x="425" y="-10" on="1"/>
        <pt x="172" y="-10" on="0"/>
        <pt x="89" y="138" on="1"/>
        <pt x="32" y="116" on="1"/>
        <pt x="24" y="113" on="0"/>
        <pt x="12" y="113" on="0"/>
        <pt x="0" y="125" on="0"/>
        <pt x="0" y="134" on="1"/>
        <pt x="0" y="242" on="1"/>
        <pt x="0" y="267" on="0"/>
        <pt x="22" y="275" on="1"/>
        <pt x="53" y="287" on="1"/>
        <pt x="53" y="410" on="1"/>
        <pt x="53" y="561" on="0"/>
        <pt x="260" y="711" on="0"/>
        <pt x="425" y="711" on="1"/>
        <pt x="539" y="711" on="0"/>
        <pt x="715" y="637" on="0"/>
        <pt x="759" y="563" on="1"/>
        <pt x="818" y="586" on="1"/>
        <pt x="826" y="589" on="0"/>
        <pt x="838" y="589" on="0"/>
        <pt x="850" y="577" on="0"/>
        <pt x="850" y="568" on="1"/>
        <pt x="850" y="460" on="1"/>
        <pt x="850" y="435" on="0"/>
        <pt x="828" y="427" on="1"/>
      </contour>
      <contour>
        <pt x="425" y="185" on="1"/>
        <pt x="472" y="185" on="0"/>
        <pt x="527" y="230" on="0"/>
        <pt x="527" y="271" on="1"/>
        <pt x="527" y="309" on="1"/>
        <pt x="331" y="232" on="1"/>
        <pt x="352" y="185" on="0"/>
      </contour>
      <contour>
        <pt x="323" y="431" on="1"/>
        <pt x="323" y="392" on="1"/>
        <pt x="518" y="469" on="1"/>
        <pt x="495" y="516" on="0"/>
        <pt x="425" y="516" on="1"/>
        <pt x="378" y="516" on="0"/>
        <pt x="323" y="472" on="0"/>
      </contour>
    </TTGlyph>
    <TTGlyph name="Oslashacute" xMin="0" yMin="-10" xMax="850" yMax="850">
      <contour>
        <pt x="797" y="415" on="1"/>
        <pt x="797" y="289" on="1"/>
        <pt x="797" y="186" on="0"/>
        <pt x="697" y="48" on="0"/>
        <pt x="535" y="-10" on="0"/>
        <pt x="425" y="-10" on="1"/>
        <pt x="172" y="-10" on="0"/>
        <pt x="89" y="138" on="1"/>
        <pt x="32" y="116" on="1"/>
        <pt x="24" y="113" on="0"/>
        <pt x="12" y="113" on="0"/>
        <pt x="0" y="125" on="0"/>
        <pt x="0" y="134" on="1"/>
        <pt x="0" y="242" on="1"/>
        <pt x="0" y="267" on="0"/>
        <pt x="22" y="275" on="1"/>
        <pt x="53" y="287" on="1"/>
        <pt x="53" y="410" on="1"/>
        <pt x="53" y="561" on="0"/>
        <pt x="260" y="711" on="0"/>
        <pt x="425" y="711" on="1"/>
        <pt x="539" y="711" on="0"/>
        <pt x="715" y="637" on="0"/>
        <pt x="759" y="563" on="1"/>
        <pt x="818" y="586" on="1"/>
        <pt x="826" y="589" on="0"/>
        <pt x="838" y="589" on="0"/>
        <pt x="850" y="577" on="0"/>
        <pt x="850" y="568" on="1"/>
        <pt x="850" y="460" on="1"/>
        <pt x="850" y="435" on="0"/>
        <pt x="828" y="427" on="1"/>
      </contour>
      <contour>
        <pt x="425" y="185" on="1"/>
        <pt x="472" y="185" on="0"/>
        <pt x="527" y="230" on="0"/>
        <pt x="527" y="271" on="1"/>
        <pt x="527" y="309" on="1"/>
        <pt x="331" y="232" on="1"/>
        <pt x="352" y="185" on="0"/>
      </contour>
      <contour>
        <pt x="323" y="431" on="1"/>
        <pt x="323" y="392" on="1"/>
        <pt x="518" y="469" on="1"/>
        <pt x="495" y="516" on="0"/>
        <pt x="425" y="516" on="1"/>
        <pt x="378" y="516" on="0"/>
        <pt x="323" y="472" on="0"/>
      </contour>
      <contour>
        <pt x="584" y="850" on="1"/>
        <pt x="603" y="850" on="0"/>
        <pt x="603" y="830" on="1"/>
        <pt x="603" y="823" on="0"/>
        <pt x="598" y="818" on="1"/>
        <pt x="503" y="738" on="1"/>
        <pt x="494" y="731" on="0"/>
        <pt x="475" y="731" on="1"/>
        <pt x="342" y="731" on="1"/>
        <pt x="326" y="731" on="0"/>
        <pt x="326" y="747" on="1"/>
        <pt x="326" y="755" on="0"/>
        <pt x="331" y="760" on="1"/>
        <pt x="389" y="831" on="1"/>
        <pt x="403" y="848" on="0"/>
        <pt x="426" y="850" on="1"/>
      </contour>
    </TTGlyph>
    <TTGlyph name="Otilde" xMin="53" yMin="-10" xMax="797" yMax="858">
      <contour>
        <pt x="589" y="757" on="0"/>
        <pt x="532" y="733" on="0"/>
        <pt x="466" y="733" on="0"/>
        <pt x="400" y="757" on="0"/>
        <pt x="360" y="757" on="0"/>
        <pt x="351" y="745" on="1"/>
        <pt x="346" y="736" on="0"/>
        <pt x="336" y="736" on="1"/>
        <pt x="252" y="736" on="1"/>
        <pt x="244" y="736" on="0"/>
        <pt x="233" y="747" on="0"/>
        <pt x="233" y="766" on="0"/>
        <pt x="246" y="797" on="0"/>
        <pt x="273" y="833" on="0"/>
        <pt x="331" y="858" on="0"/>
        <pt x="397" y="858" on="0"/>
        <pt x="463" y="834" on="0"/>
        <pt x="504" y="834" on="0"/>
        <pt x="517" y="855" on="0"/>
        <pt x="527" y="855" on="1"/>
        <pt x="611" y="855" on="1"/>
        <pt x="630" y="855" on="0"/>
        <pt x="630" y="836" on="1"/>
        <pt x="630" y="811" on="0"/>
        <pt x="603" y="776" on="1"/>
      </contour>
      <contour>
        <pt x="797" y="411" on="1"/>
        <pt x="797" y="289" on="1"/>
        <pt x="797" y="186" on="0"/>
        <pt x="697" y="48" on="0"/>
        <pt x="535" y="-10" on="0"/>
        <pt x="315" y="-10" on="0"/>
        <pt x="153" y="48" on="0"/>
        <pt x="53" y="186" on="0"/>
        <pt x="53" y="291" on="1"/>
        <pt x="53" y="409" on="1"/>
        <pt x="53" y="560" on="0"/>
        <pt x="260" y="710" on="0"/>
        <pt x="590" y="710" on="0"/>
        <pt x="797" y="560" on="0"/>
      </contour>
      <contour>
        <pt x="323" y="430" on="1"/>
        <pt x="323" y="270" on="1"/>
        <pt x="323" y="229" on="0"/>
        <pt x="378" y="185" on="0"/>
        <pt x="472" y="185" on="0"/>
        <pt x="527" y="230" on="0"/>
        <pt x="527" y="271" on="1"/>
        <pt x="527" y="429" on="1"/>
        <pt x="527" y="470" on="0"/>
        <pt x="472" y="515" on="0"/>
        <pt x="378" y="515" on="0"/>
        <pt x="323" y="471" on="0"/>
      </contour>
    </TTGlyph>
    <TTGlyph name="P" xMin="126" yMin="0" xMax="835" yMax="700">
      <contour>
        <pt x="153" y="700" on="1"/>
        <pt x="527" y="700" on="1"/>
        <pt x="669" y="700" on="0"/>
        <pt x="835" y="562" on="0"/>
        <pt x="835" y="346" on="0"/>
        <pt x="695" y="219" on="0"/>
        <pt x="527" y="219" on="1"/>
        <pt x="395" y="219" on="1"/>
        <pt x="395" y="27" on="1"/>
        <pt x="395" y="16" on="0"/>
        <pt x="379" y="0" on="0"/>
        <pt x="368" y="0" on="1"/>
        <pt x="153" y="0" on="1"/>
        <pt x="142" y="0" on="0"/>
        <pt x="126" y="16" on="0"/>
        <pt x="126" y="27" on="1"/>
        <pt x="126" y="673" on="1"/>
        <pt x="126" y="684" on="0"/>
        <pt x="142" y="700" on="0"/>
      </contour>
      <contour>
        <pt x="396" y="514" on="1"/>
        <pt x="396" y="404" on="1"/>
        <pt x="523" y="404" on="1"/>
        <pt x="546" y="404" on="0"/>
        <pt x="575" y="432" on="0"/>
        <pt x="575" y="482" on="0"/>
        <pt x="547" y="514" on="0"/>
        <pt x="523" y="514" on="1"/>
      </contour>
    </TTGlyph>
    <TTGlyph name="Q" xMin="52" yMin="-65" xMax="796" yMax="710">
      <contour>
        <pt x="796" y="411" on="1"/>
        <pt x="796" y="289" on="1"/>
        <pt x="796" y="142" on="0"/>
        <pt x="699" y="66" on="1"/>
        <pt x="773" y="-34" on="1"/>
        <pt x="780" y="-48" on="0"/>
        <pt x="765" y="-65" on="0"/>
        <pt x="756" y="-65" on="1"/>
        <pt x="565" y="-65" on="1"/>
        <pt x="533" y="-65" on="0"/>
        <pt x="516" y="-40" on="1"/>
        <pt x="490" y="-7" on="1"/>
        <pt x="458" y="-10" on="0"/>
        <pt x="424" y="-10" on="1"/>
        <pt x="314" y="-10" on="0"/>
        <pt x="152" y="48" on="0"/>
        <pt x="52" y="186" on="0"/>
        <pt x="52" y="291" on="1"/>
        <pt x="52" y="409" on="1"/>
        <pt x="52" y="514" on="0"/>
        <pt x="152" y="652" on="0"/>
        <pt x="314" y="710" on="0"/>
        <pt x="534" y="710" on="0"/>
        <pt x="696" y="652" on="0"/>
        <pt x="796" y="514" on="0"/>
      </contour>
      <contour>
        <pt x="322" y="430" on="1"/>
        <pt x="322" y="270" on="1"/>
        <pt x="322" y="229" on="0"/>
        <pt x="377" y="185" on="0"/>
        <pt x="471" y="185" on="0"/>
        <pt x="526" y="230" on="0"/>
        <pt x="526" y="271" on="1"/>
        <pt x="526" y="429" on="1"/>
        <pt x="526" y="470" on="0"/>
        <pt x="471" y="515" on="0"/>
        <pt x="377" y="515" on="0"/>
        <pt x="322" y="471" on="0"/>
      </contour>
    </TTGlyph>
    <TTGlyph name="R" xMin="91" yMin="0" xMax="824" yMax="700">
      <contour>
        <pt x="822" y="31" on="1"/>
        <pt x="824" y="27" on="0"/>
        <pt x="824" y="13" on="0"/>
        <pt x="811" y="0" on="0"/>
        <pt x="802" y="0" on="1"/>
        <pt x="575" y="0" on="1"/>
        <pt x="545" y="0" on="0"/>
        <pt x="533" y="25" on="1"/>
        <pt x="445" y="223" on="1"/>
        <pt x="361" y="223" on="1"/>
        <pt x="361" y="27" on="1"/>
        <pt x="361" y="16" on="0"/>
        <pt x="345" y="0" on="0"/>
        <pt x="334" y="0" on="1"/>
        <pt x="118" y="0" on="1"/>
        <pt x="107" y="0" on="0"/>
        <pt x="91" y="16" on="0"/>
        <pt x="91" y="27" on="1"/>
        <pt x="91" y="673" on="1"/>
        <pt x="91" y="684" on="0"/>
        <pt x="107" y="700" on="0"/>
        <pt x="118" y="700" on="1"/>
        <pt x="507" y="700" on="1"/>
        <pt x="644" y="700" on="0"/>
        <pt x="804" y="570" on="0"/>
        <pt x="804" y="458" on="1"/>
        <pt x="804" y="322" on="0"/>
        <pt x="699" y="261" on="1"/>
      </contour>
      <contour>
        <pt x="361" y="514" on="1"/>
        <pt x="361" y="408" on="1"/>
        <pt x="486" y="408" on="1"/>
        <pt x="508" y="408" on="0"/>
        <pt x="532" y="437" on="0"/>
        <pt x="532" y="481" on="0"/>
        <pt x="509" y="514" on="0"/>
        <pt x="486" y="514" on="1"/>
      </contour>
    </TTGlyph>
    <TTGlyph name="Racute" xMin="91" yMin="0" xMax="824" yMax="850">
      <contour>
        <pt x="822" y="31" on="1"/>
        <pt x="824" y="27" on="0"/>
        <pt x="824" y="13" on="0"/>
        <pt x="811" y="0" on="0"/>
        <pt x="802" y="0" on="1"/>
        <pt x="575" y="0" on="1"/>
        <pt x="545" y="0" on="0"/>
        <pt x="533" y="25" on="1"/>
        <pt x="445" y="223" on="1"/>
        <pt x="361" y="223" on="1"/>
        <pt x="361" y="27" on="1"/>
        <pt x="361" y="16" on="0"/>
        <pt x="345" y="0" on="0"/>
        <pt x="334" y="0" on="1"/>
        <pt x="118" y="0" on="1"/>
        <pt x="107" y="0" on="0"/>
        <pt x="91" y="16" on="0"/>
        <pt x="91" y="27" on="1"/>
        <pt x="91" y="673" on="1"/>
        <pt x="91" y="684" on="0"/>
        <pt x="107" y="700" on="0"/>
        <pt x="118" y="700" on="1"/>
        <pt x="507" y="700" on="1"/>
        <pt x="644" y="700" on="0"/>
        <pt x="804" y="570" on="0"/>
        <pt x="804" y="458" on="1"/>
        <pt x="804" y="322" on="0"/>
        <pt x="699" y="261" on="1"/>
      </contour>
      <contour>
        <pt x="361" y="514" on="1"/>
        <pt x="361" y="408" on="1"/>
        <pt x="486" y="408" on="1"/>
        <pt x="508" y="408" on="0"/>
        <pt x="532" y="437" on="0"/>
        <pt x="532" y="481" on="0"/>
        <pt x="509" y="514" on="0"/>
        <pt x="486" y="514" on="1"/>
      </contour>
      <contour>
        <pt x="574" y="850" on="1"/>
        <pt x="593" y="850" on="0"/>
        <pt x="593" y="830" on="1"/>
        <pt x="593" y="823" on="0"/>
        <pt x="588" y="818" on="1"/>
        <pt x="493" y="738" on="1"/>
        <pt x="484" y="731" on="0"/>
        <pt x="465" y="731" on="1"/>
        <pt x="332" y="731" on="1"/>
        <pt x="316" y="731" on="0"/>
        <pt x="316" y="747" on="1"/>
        <pt x="316" y="755" on="0"/>
        <pt x="321" y="760" on="1"/>
        <pt x="379" y="831" on="1"/>
        <pt x="393" y="848" on="0"/>
        <pt x="416" y="850" on="1"/>
      </contour>
    </TTGlyph>
    <TTGlyph name="Rcaron" xMin="91" yMin="0" xMax="824" yMax="850">
      <contour>
        <pt x="822" y="31" on="1"/>
        <pt x="824" y="27" on="0"/>
        <pt x="824" y="13" on="0"/>
        <pt x="811" y="0" on="0"/>
        <pt x="802" y="0" on="1"/>
        <pt x="575" y="0" on="1"/>
        <pt x="545" y="0" on="0"/>
        <pt x="533" y="25" on="1"/>
        <pt x="445" y="223" on="1"/>
        <pt x="361" y="223" on="1"/>
        <pt x="361" y="27" on="1"/>
        <pt x="361" y="16" on="0"/>
        <pt x="345" y="0" on="0"/>
        <pt x="334" y="0" on="1"/>
        <pt x="118" y="0" on="1"/>
        <pt x="107" y="0" on="0"/>
        <pt x="91" y="16" on="0"/>
        <pt x="91" y="27" on="1"/>
        <pt x="91" y="673" on="1"/>
        <pt x="91" y="684" on="0"/>
        <pt x="107" y="700" on="0"/>
        <pt x="118" y="700" on="1"/>
        <pt x="507" y="700" on="1"/>
        <pt x="644" y="700" on="0"/>
        <pt x="804" y="570" on="0"/>
        <pt x="804" y="458" on="1"/>
        <pt x="804" y="322" on="0"/>
        <pt x="699" y="261" on="1"/>
      </contour>
      <contour>
        <pt x="361" y="514" on="1"/>
        <pt x="361" y="408" on="1"/>
        <pt x="486" y="408" on="1"/>
        <pt x="508" y="408" on="0"/>
        <pt x="532" y="437" on="0"/>
        <pt x="532" y="481" on="0"/>
        <pt x="509" y="514" on="0"/>
        <pt x="486" y="514" on="1"/>
      </contour>
      <contour>
        <pt x="512" y="850" on="1"/>
        <pt x="593" y="850" on="1"/>
        <pt x="609" y="850" on="0"/>
        <pt x="609" y="834" on="1"/>
        <pt x="609" y="825" on="0"/>
        <pt x="601" y="820" on="1"/>
        <pt x="518" y="750" on="1"/>
        <pt x="491" y="731" on="0"/>
        <pt x="471" y="731" on="1"/>
        <pt x="359" y="731" on="1"/>
        <pt x="339" y="731" on="0"/>
        <pt x="312" y="750" on="1"/>
        <pt x="229" y="820" on="1"/>
        <pt x="221" y="825" on="0"/>
        <pt x="221" y="834" on="1"/>
        <pt x="221" y="850" on="0"/>
        <pt x="237" y="850" on="1"/>
        <pt x="318" y="850" on="1"/>
        <pt x="336" y="850" on="0"/>
        <pt x="358" y="843" on="1"/>
        <pt x="415" y="821" on="1"/>
        <pt x="472" y="843" on="1"/>
        <pt x="494" y="850" on="0"/>
      </contour>
    </TTGlyph>
    <TTGlyph name="Rcommaaccent" xMin="91" yMin="-150" xMax="824" yMax="700">
      <contour>
        <pt x="822" y="31" on="1"/>
        <pt x="824" y="27" on="0"/>
        <pt x="824" y="13" on="0"/>
        <pt x="811" y="0" on="0"/>
        <pt x="802" y="0" on="1"/>
        <pt x="575" y="0" on="1"/>
        <pt x="545" y="0" on="0"/>
        <pt x="533" y="25" on="1"/>
        <pt x="445" y="223" on="1"/>
        <pt x="361" y="223" on="1"/>
        <pt x="361" y="27" on="1"/>
        <pt x="361" y="16" on="0"/>
        <pt x="345" y="0" on="0"/>
        <pt x="334" y="0" on="1"/>
        <pt x="118" y="0" on="1"/>
        <pt x="107" y="0" on="0"/>
        <pt x="91" y="16" on="0"/>
        <pt x="91" y="27" on="1"/>
        <pt x="91" y="673" on="1"/>
        <pt x="91" y="684" on="0"/>
        <pt x="107" y="700" on="0"/>
        <pt x="118" y="700" on="1"/>
        <pt x="507" y="700" on="1"/>
        <pt x="644" y="700" on="0"/>
        <pt x="804" y="570" on="0"/>
        <pt x="804" y="458" on="1"/>
        <pt x="804" y="322" on="0"/>
        <pt x="699" y="261" on="1"/>
      </contour>
      <contour>
        <pt x="361" y="514" on="1"/>
        <pt x="361" y="408" on="1"/>
        <pt x="486" y="408" on="1"/>
        <pt x="508" y="408" on="0"/>
        <pt x="532" y="437" on="0"/>
        <pt x="532" y="481" on="0"/>
        <pt x="509" y="514" on="0"/>
        <pt x="486" y="514" on="1"/>
      </contour>
      <contour>
        <pt x="534" y="-31" on="1"/>
        <pt x="553" y="-31" on="0"/>
        <pt x="553" y="-51" on="1"/>
        <pt x="553" y="-58" on="0"/>
        <pt x="548" y="-63" on="1"/>
        <pt x="453" y="-143" on="1"/>
        <pt x="444" y="-150" on="0"/>
        <pt x="425" y="-150" on="1"/>
        <pt x="292" y="-150" on="1"/>
        <pt x="276" y="-150" on="0"/>
        <pt x="276" y="-134" on="1"/>
        <pt x="276" y="-126" on="0"/>
        <pt x="281" y="-121" on="1"/>
        <pt x="339" y="-50" on="1"/>
        <pt x="353" y="-33" on="0"/>
        <pt x="376" y="-31" on="1"/>
      </contour>
    </TTGlyph>
    <TTGlyph name="Ring" xMin="324" yMin="719" xMax="526" yMax="855">
      <contour>
        <pt x="394" y="807" on="0"/>
        <pt x="394" y="767" on="0"/>
        <pt x="455" y="767" on="0"/>
        <pt x="455" y="807" on="0"/>
      </contour>
      <contour>
        <pt x="324" y="756" on="0"/>
        <pt x="324" y="818" on="0"/>
        <pt x="382" y="855" on="0"/>
        <pt x="468" y="855" on="0"/>
        <pt x="526" y="818" on="0"/>
        <pt x="526" y="756" on="0"/>
        <pt x="468" y="719" on="0"/>
        <pt x="382" y="719" on="0"/>
      </contour>
    </TTGlyph>
    <TTGlyph name="S" xMin="62" yMin="-10" xMax="783" yMax="710">
      <contour>
        <pt x="644" y="427" on="0"/>
        <pt x="783" y="324" on="0"/>
        <pt x="783" y="118" on="0"/>
        <pt x="581" y="-10" on="0"/>
        <pt x="247" y="-10" on="0"/>
        <pt x="62" y="113" on="0"/>
        <pt x="62" y="203" on="1"/>
        <pt x="62" y="225" on="0"/>
        <pt x="85" y="225" on="1"/>
        <pt x="290" y="225" on="1"/>
        <pt x="311" y="225" on="0"/>
        <pt x="324" y="212" on="1"/>
        <pt x="352" y="185" on="0"/>
        <pt x="421" y="185" on="1"/>
        <pt x="516" y="185" on="0"/>
        <pt x="516" y="214" on="1"/>
        <pt x="516" y="232" on="0"/>
        <pt x="456" y="253" on="0"/>
        <pt x="367" y="263" on="1"/>
        <pt x="84" y="297" on="0"/>
        <pt x="84" y="480" on="1"/>
        <pt x="84" y="583" on="0"/>
        <pt x="266" y="710" on="0"/>
        <pt x="571" y="710" on="0"/>
        <pt x="759" y="577" on="0"/>
        <pt x="759" y="503" on="1"/>
        <pt x="759" y="493" on="0"/>
        <pt x="746" y="481" on="0"/>
        <pt x="735" y="481" on="1"/>
        <pt x="520" y="481" on="1"/>
        <pt x="502" y="481" on="0"/>
        <pt x="489" y="493" on="1"/>
        <pt x="465" y="515" on="0"/>
        <pt x="417" y="515" on="1"/>
        <pt x="350" y="515" on="0"/>
        <pt x="350" y="487" on="1"/>
        <pt x="350" y="472" on="0"/>
        <pt x="402" y="455" on="0"/>
        <pt x="480" y="446" on="1"/>
      </contour>
    </TTGlyph>
    <TTGlyph name="Sacute" xMin="62" yMin="-10" xMax="783" yMax="850">
      <contour>
        <pt x="644" y="427" on="0"/>
        <pt x="783" y="324" on="0"/>
        <pt x="783" y="118" on="0"/>
        <pt x="581" y="-10" on="0"/>
        <pt x="247" y="-10" on="0"/>
        <pt x="62" y="113" on="0"/>
        <pt x="62" y="203" on="1"/>
        <pt x="62" y="225" on="0"/>
        <pt x="85" y="225" on="1"/>
        <pt x="290" y="225" on="1"/>
        <pt x="311" y="225" on="0"/>
        <pt x="324" y="212" on="1"/>
        <pt x="352" y="185" on="0"/>
        <pt x="421" y="185" on="1"/>
        <pt x="516" y="185" on="0"/>
        <pt x="516" y="214" on="1"/>
        <pt x="516" y="232" on="0"/>
        <pt x="456" y="253" on="0"/>
        <pt x="367" y="263" on="1"/>
        <pt x="84" y="297" on="0"/>
        <pt x="84" y="480" on="1"/>
        <pt x="84" y="583" on="0"/>
        <pt x="266" y="710" on="0"/>
        <pt x="571" y="710" on="0"/>
        <pt x="759" y="577" on="0"/>
        <pt x="759" y="503" on="1"/>
        <pt x="759" y="493" on="0"/>
        <pt x="746" y="481" on="0"/>
        <pt x="735" y="481" on="1"/>
        <pt x="520" y="481" on="1"/>
        <pt x="502" y="481" on="0"/>
        <pt x="489" y="493" on="1"/>
        <pt x="465" y="515" on="0"/>
        <pt x="417" y="515" on="1"/>
        <pt x="350" y="515" on="0"/>
        <pt x="350" y="487" on="1"/>
        <pt x="350" y="472" on="0"/>
        <pt x="402" y="455" on="0"/>
        <pt x="480" y="446" on="1"/>
      </contour>
      <contour>
        <pt x="564" y="850" on="1"/>
        <pt x="583" y="850" on="0"/>
        <pt x="583" y="830" on="1"/>
        <pt x="583" y="823" on="0"/>
        <pt x="578" y="818" on="1"/>
        <pt x="483" y="738" on="1"/>
        <pt x="474" y="731" on="0"/>
        <pt x="455" y="731" on="1"/>
        <pt x="322" y="731" on="1"/>
        <pt x="306" y="731" on="0"/>
        <pt x="306" y="747" on="1"/>
        <pt x="306" y="755" on="0"/>
        <pt x="311" y="760" on="1"/>
        <pt x="369" y="831" on="1"/>
        <pt x="383" y="848" on="0"/>
        <pt x="406" y="850" on="1"/>
      </contour>
    </TTGlyph>
    <TTGlyph name="Scaron" xMin="62" yMin="-10" xMax="783" yMax="850">
      <contour>
        <pt x="644" y="427" on="0"/>
        <pt x="783" y="324" on="0"/>
        <pt x="783" y="118" on="0"/>
        <pt x="581" y="-10" on="0"/>
        <pt x="247" y="-10" on="0"/>
        <pt x="62" y="113" on="0"/>
        <pt x="62" y="203" on="1"/>
        <pt x="62" y="225" on="0"/>
        <pt x="85" y="225" on="1"/>
        <pt x="290" y="225" on="1"/>
        <pt x="311" y="225" on="0"/>
        <pt x="324" y="212" on="1"/>
        <pt x="352" y="185" on="0"/>
        <pt x="421" y="185" on="1"/>
        <pt x="516" y="185" on="0"/>
        <pt x="516" y="214" on="1"/>
        <pt x="516" y="232" on="0"/>
        <pt x="456" y="253" on="0"/>
        <pt x="367" y="263" on="1"/>
        <pt x="84" y="297" on="0"/>
        <pt x="84" y="480" on="1"/>
        <pt x="84" y="583" on="0"/>
        <pt x="266" y="710" on="0"/>
        <pt x="571" y="710" on="0"/>
        <pt x="759" y="577" on="0"/>
        <pt x="759" y="503" on="1"/>
        <pt x="759" y="493" on="0"/>
        <pt x="746" y="481" on="0"/>
        <pt x="735" y="481" on="1"/>
        <pt x="520" y="481" on="1"/>
        <pt x="502" y="481" on="0"/>
        <pt x="489" y="493" on="1"/>
        <pt x="465" y="515" on="0"/>
        <pt x="417" y="515" on="1"/>
        <pt x="350" y="515" on="0"/>
        <pt x="350" y="487" on="1"/>
        <pt x="350" y="472" on="0"/>
        <pt x="402" y="455" on="0"/>
        <pt x="480" y="446" on="1"/>
      </contour>
      <contour>
        <pt x="518" y="850" on="1"/>
        <pt x="599" y="850" on="1"/>
        <pt x="615" y="850" on="0"/>
        <pt x="615" y="834" on="1"/>
        <pt x="615" y="825" on="0"/>
        <pt x="607" y="820" on="1"/>
        <pt x="524" y="750" on="1"/>
        <pt x="497" y="731" on="0"/>
        <pt x="477" y="731" on="1"/>
        <pt x="365" y="731" on="1"/>
        <pt x="345" y="731" on="0"/>
        <pt x="318" y="750" on="1"/>
        <pt x="235" y="820" on="1"/>
        <pt x="227" y="825" on="0"/>
        <pt x="227" y="834" on="1"/>
        <pt x="227" y="850" on="0"/>
        <pt x="243" y="850" on="1"/>
        <pt x="324" y="850" on="1"/>
        <pt x="342" y="850" on="0"/>
        <pt x="364" y="843" on="1"/>
        <pt x="421" y="821" on="1"/>
        <pt x="478" y="843" on="1"/>
        <pt x="500" y="850" on="0"/>
      </contour>
    </TTGlyph>
    <TTGlyph name="Scedilla" xMin="62" yMin="-150" xMax="783" yMax="710">
      <contour>
        <pt x="644" y="427" on="0"/>
        <pt x="783" y="324" on="0"/>
        <pt x="783" y="123" on="0"/>
        <pt x="596" y="-4" on="0"/>
        <pt x="446" y="-9" on="1"/>
        <pt x="440" y="-26" on="1"/>
        <pt x="449" y="-22" on="0"/>
        <pt x="517" y="-22" on="0"/>
        <pt x="568" y="-54" on="0"/>
        <pt x="568" y="-117" on="0"/>
        <pt x="497" y="-150" on="0"/>
        <pt x="402" y="-150" on="0"/>
        <pt x="326" y="-124" on="0"/>
        <pt x="326" y="-100" on="1"/>
        <pt x="326" y="-89" on="0"/>
        <pt x="339" y="-89" on="1"/>
        <pt x="400" y="-89" on="1"/>
        <pt x="411" y="-89" on="0"/>
        <pt x="433" y="-102" on="0"/>
        <pt x="481" y="-102" on="0"/>
        <pt x="481" y="-83" on="1"/>
        <pt x="481" y="-66" on="0"/>
        <pt x="453" y="-66" on="1"/>
        <pt x="438" y="-66" on="0"/>
        <pt x="414" y="-75" on="0"/>
        <pt x="405" y="-75" on="1"/>
        <pt x="361" y="-75" on="1"/>
        <pt x="346" y="-75" on="0"/>
        <pt x="346" y="-62" on="1"/>
        <pt x="346" y="-59" on="0"/>
        <pt x="348" y="-53" on="1"/>
        <pt x="362" y="-8" on="1"/>
        <pt x="216" y="3" on="0"/>
        <pt x="62" y="121" on="0"/>
        <pt x="62" y="203" on="1"/>
        <pt x="62" y="225" on="0"/>
        <pt x="85" y="225" on="1"/>
        <pt x="290" y="225" on="1"/>
        <pt x="311" y="225" on="0"/>
        <pt x="324" y="212" on="1"/>
        <pt x="352" y="185" on="0"/>
        <pt x="421" y="185" on="1"/>
        <pt x="516" y="185" on="0"/>
        <pt x="516" y="214" on="1"/>
        <pt x="516" y="232" on="0"/>
        <pt x="456" y="253" on="0"/>
        <pt x="367" y="263" on="1"/>
        <pt x="84" y="297" on="0"/>
        <pt x="84" y="480" on="1"/>
        <pt x="84" y="583" on="0"/>
        <pt x="266" y="710" on="0"/>
        <pt x="571" y="710" on="0"/>
        <pt x="759" y="577" on="0"/>
        <pt x="759" y="503" on="1"/>
        <pt x="759" y="493" on="0"/>
        <pt x="746" y="481" on="0"/>
        <pt x="735" y="481" on="1"/>
        <pt x="520" y="481" on="1"/>
        <pt x="502" y="481" on="0"/>
        <pt x="489" y="493" on="1"/>
        <pt x="465" y="515" on="0"/>
        <pt x="417" y="515" on="1"/>
        <pt x="350" y="515" on="0"/>
        <pt x="350" y="487" on="1"/>
        <pt x="350" y="472" on="0"/>
        <pt x="402" y="455" on="0"/>
        <pt x="480" y="446" on="1"/>
      </contour>
    </TTGlyph>
    <TTGlyph name="Scircumflex" xMin="62" yMin="-10" xMax="783" yMax="850">
      <contour>
        <pt x="644" y="427" on="0"/>
        <pt x="783" y="324" on="0"/>
        <pt x="783" y="118" on="0"/>
        <pt x="581" y="-10" on="0"/>
        <pt x="247" y="-10" on="0"/>
        <pt x="62" y="113" on="0"/>
        <pt x="62" y="203" on="1"/>
        <pt x="62" y="225" on="0"/>
        <pt x="85" y="225" on="1"/>
        <pt x="290" y="225" on="1"/>
        <pt x="311" y="225" on="0"/>
        <pt x="324" y="212" on="1"/>
        <pt x="352" y="185" on="0"/>
        <pt x="421" y="185" on="1"/>
        <pt x="516" y="185" on="0"/>
        <pt x="516" y="214" on="1"/>
        <pt x="516" y="232" on="0"/>
        <pt x="456" y="253" on="0"/>
        <pt x="367" y="263" on="1"/>
        <pt x="84" y="297" on="0"/>
        <pt x="84" y="480" on="1"/>
        <pt x="84" y="583" on="0"/>
        <pt x="266" y="710" on="0"/>
        <pt x="571" y="710" on="0"/>
        <pt x="759" y="577" on="0"/>
        <pt x="759" y="503" on="1"/>
        <pt x="759" y="493" on="0"/>
        <pt x="746" y="481" on="0"/>
        <pt x="735" y="481" on="1"/>
        <pt x="520" y="481" on="1"/>
        <pt x="502" y="481" on="0"/>
        <pt x="489" y="493" on="1"/>
        <pt x="465" y="515" on="0"/>
        <pt x="417" y="515" on="1"/>
        <pt x="350" y="515" on="0"/>
        <pt x="350" y="487" on="1"/>
        <pt x="350" y="472" on="0"/>
        <pt x="402" y="455" on="0"/>
        <pt x="480" y="446" on="1"/>
      </contour>
      <contour>
        <pt x="324" y="731" on="1"/>
        <pt x="243" y="731" on="1"/>
        <pt x="227" y="731" on="0"/>
        <pt x="227" y="747" on="1"/>
        <pt x="227" y="756" on="0"/>
        <pt x="235" y="761" on="1"/>
        <pt x="318" y="831" on="1"/>
        <pt x="345" y="850" on="0"/>
        <pt x="365" y="850" on="1"/>
        <pt x="477" y="850" on="1"/>
        <pt x="497" y="850" on="0"/>
        <pt x="524" y="831" on="1"/>
        <pt x="607" y="761" on="1"/>
        <pt x="615" y="756" on="0"/>
        <pt x="615" y="747" on="1"/>
        <pt x="615" y="731" on="0"/>
        <pt x="599" y="731" on="1"/>
        <pt x="518" y="731" on="1"/>
        <pt x="500" y="731" on="0"/>
        <pt x="478" y="738" on="1"/>
        <pt x="421" y="760" on="1"/>
        <pt x="364" y="738" on="1"/>
        <pt x="342" y="731" on="0"/>
      </contour>
    </TTGlyph>
    <TTGlyph name="Scommaaccent" xMin="62" yMin="-150" xMax="783" yMax="710">
      <contour>
        <pt x="644" y="427" on="0"/>
        <pt x="783" y="324" on="0"/>
        <pt x="783" y="118" on="0"/>
        <pt x="581" y="-10" on="0"/>
        <pt x="247" y="-10" on="0"/>
        <pt x="62" y="113" on="0"/>
        <pt x="62" y="203" on="1"/>
        <pt x="62" y="225" on="0"/>
        <pt x="85" y="225" on="1"/>
        <pt x="290" y="225" on="1"/>
        <pt x="311" y="225" on="0"/>
        <pt x="324" y="212" on="1"/>
        <pt x="352" y="185" on="0"/>
        <pt x="421" y="185" on="1"/>
        <pt x="516" y="185" on="0"/>
        <pt x="516" y="214" on="1"/>
        <pt x="516" y="232" on="0"/>
        <pt x="456" y="253" on="0"/>
        <pt x="367" y="263" on="1"/>
        <pt x="84" y="297" on="0"/>
        <pt x="84" y="480" on="1"/>
        <pt x="84" y="583" on="0"/>
        <pt x="266" y="710" on="0"/>
        <pt x="571" y="710" on="0"/>
        <pt x="759" y="577" on="0"/>
        <pt x="759" y="503" on="1"/>
        <pt x="759" y="493" on="0"/>
        <pt x="746" y="481" on="0"/>
        <pt x="735" y="481" on="1"/>
        <pt x="520" y="481" on="1"/>
        <pt x="502" y="481" on="0"/>
        <pt x="489" y="493" on="1"/>
        <pt x="465" y="515" on="0"/>
        <pt x="417" y="515" on="1"/>
        <pt x="350" y="515" on="0"/>
        <pt x="350" y="487" on="1"/>
        <pt x="350" y="472" on="0"/>
        <pt x="402" y="455" on="0"/>
        <pt x="480" y="446" on="1"/>
      </contour>
      <contour>
        <pt x="506" y="-31" on="1"/>
        <pt x="525" y="-31" on="0"/>
        <pt x="525" y="-51" on="1"/>
        <pt x="525" y="-58" on="0"/>
        <pt x="520" y="-63" on="1"/>
        <pt x="425" y="-143" on="1"/>
        <pt x="416" y="-150" on="0"/>
        <pt x="397" y="-150" on="1"/>
        <pt x="264" y="-150" on="1"/>
        <pt x="248" y="-150" on="0"/>
        <pt x="248" y="-134" on="1"/>
        <pt x="248" y="-126" on="0"/>
        <pt x="253" y="-121" on="1"/>
        <pt x="311" y="-50" on="1"/>
        <pt x="325" y="-33" on="0"/>
        <pt x="348" y="-31" on="1"/>
      </contour>
    </TTGlyph>
    <TTGlyph name="T" xMin="53" yMin="0" xMax="797" yMax="700">
      <contour>
        <pt x="80" y="700" on="1"/>
        <pt x="770" y="700" on="1"/>
        <pt x="781" y="700" on="0"/>
        <pt x="797" y="684" on="0"/>
        <pt x="797" y="673" on="1"/>
        <pt x="797" y="512" on="1"/>
        <pt x="797" y="501" on="0"/>
        <pt x="781" y="485" on="0"/>
        <pt x="770" y="485" on="1"/>
        <pt x="555" y="485" on="1"/>
        <pt x="555" y="27" on="1"/>
        <pt x="555" y="16" on="0"/>
        <pt x="539" y="0" on="0"/>
        <pt x="528" y="0" on="1"/>
        <pt x="322" y="0" on="1"/>
        <pt x="311" y="0" on="0"/>
        <pt x="295" y="16" on="0"/>
        <pt x="295" y="27" on="1"/>
        <pt x="295" y="485" on="1"/>
        <pt x="80" y="485" on="1"/>
        <pt x="69" y="485" on="0"/>
        <pt x="53" y="501" on="0"/>
        <pt x="53" y="512" on="1"/>
        <pt x="53" y="673" on="1"/>
        <pt x="53" y="684" on="0"/>
        <pt x="69" y="700" on="0"/>
      </contour>
    </TTGlyph>
    <TTGlyph name="Tbar" xMin="53" yMin="0" xMax="797" yMax="700">
      <contour>
        <pt x="208" y="380" on="1"/>
        <pt x="295" y="380" on="1"/>
        <pt x="295" y="485" on="1"/>
        <pt x="80" y="485" on="1"/>
        <pt x="69" y="485" on="0"/>
        <pt x="53" y="501" on="0"/>
        <pt x="53" y="512" on="1"/>
        <pt x="53" y="673" on="1"/>
        <pt x="53" y="684" on="0"/>
        <pt x="69" y="700" on="0"/>
        <pt x="80" y="700" on="1"/>
        <pt x="770" y="700" on="1"/>
        <pt x="781" y="700" on="0"/>
        <pt x="797" y="684" on="0"/>
        <pt x="797" y="673" on="1"/>
        <pt x="797" y="512" on="1"/>
        <pt x="797" y="501" on="0"/>
        <pt x="781" y="485" on="0"/>
        <pt x="770" y="485" on="1"/>
        <pt x="555" y="485" on="1"/>
        <pt x="555" y="380" on="1"/>
        <pt x="642" y="380" on="1"/>
        <pt x="653" y="380" on="0"/>
        <pt x="669" y="364" on="0"/>
        <pt x="669" y="353" on="1"/>
        <pt x="669" y="282" on="1"/>
        <pt x="669" y="271" on="0"/>
        <pt x="653" y="255" on="0"/>
        <pt x="642" y="255" on="1"/>
        <pt x="555" y="255" on="1"/>
        <pt x="555" y="27" on="1"/>
        <pt x="555" y="16" on="0"/>
        <pt x="539" y="0" on="0"/>
        <pt x="528" y="0" on="1"/>
        <pt x="322" y="0" on="1"/>
        <pt x="311" y="0" on="0"/>
        <pt x="295" y="16" on="0"/>
        <pt x="295" y="27" on="1"/>
        <pt x="295" y="255" on="1"/>
        <pt x="208" y="255" on="1"/>
        <pt x="197" y="255" on="0"/>
        <pt x="181" y="271" on="0"/>
        <pt x="181" y="282" on="1"/>
        <pt x="181" y="353" on="1"/>
        <pt x="181" y="364" on="0"/>
        <pt x="197" y="380" on="0"/>
      </contour>
    </TTGlyph>
    <TTGlyph name="Tcaron" xMin="53" yMin="0" xMax="797" yMax="850">
      <contour>
        <pt x="80" y="700" on="1"/>
        <pt x="770" y="700" on="1"/>
        <pt x="781" y="700" on="0"/>
        <pt x="797" y="684" on="0"/>
        <pt x="797" y="673" on="1"/>
        <pt x="797" y="512" on="1"/>
        <pt x="797" y="501" on="0"/>
        <pt x="781" y="485" on="0"/>
        <pt x="770" y="485" on="1"/>
        <pt x="555" y="485" on="1"/>
        <pt x="555" y="27" on="1"/>
        <pt x="555" y="16" on="0"/>
        <pt x="539" y="0" on="0"/>
        <pt x="528" y="0" on="1"/>
        <pt x="322" y="0" on="1"/>
        <pt x="311" y="0" on="0"/>
        <pt x="295" y="16" on="0"/>
        <pt x="295" y="27" on="1"/>
        <pt x="295" y="485" on="1"/>
        <pt x="80" y="485" on="1"/>
        <pt x="69" y="485" on="0"/>
        <pt x="53" y="501" on="0"/>
        <pt x="53" y="512" on="1"/>
        <pt x="53" y="673" on="1"/>
        <pt x="53" y="684" on="0"/>
        <pt x="69" y="700" on="0"/>
      </contour>
      <contour>
        <pt x="522" y="850" on="1"/>
        <pt x="603" y="850" on="1"/>
        <pt x="619" y="850" on="0"/>
        <pt x="619" y="834" on="1"/>
        <pt x="619" y="825" on="0"/>
        <pt x="611" y="820" on="1"/>
        <pt x="528" y="750" on="1"/>
        <pt x="501" y="731" on="0"/>
        <pt x="481" y="731" on="1"/>
        <pt x="369" y="731" on="1"/>
        <pt x="349" y="731" on="0"/>
        <pt x="322" y="750" on="1"/>
        <pt x="239" y="820" on="1"/>
        <pt x="231" y="825" on="0"/>
        <pt x="231" y="834" on="1"/>
        <pt x="231" y="850" on="0"/>
        <pt x="247" y="850" on="1"/>
        <pt x="328" y="850" on="1"/>
        <pt x="346" y="850" on="0"/>
        <pt x="368" y="843" on="1"/>
        <pt x="425" y="821" on="1"/>
        <pt x="482" y="843" on="1"/>
        <pt x="504" y="850" on="0"/>
      </contour>
    </TTGlyph>
    <TTGlyph name="Tcommaaccent" xMin="53" yMin="-150" xMax="797" yMax="700">
      <contour>
        <pt x="80" y="700" on="1"/>
        <pt x="770" y="700" on="1"/>
        <pt x="781" y="700" on="0"/>
        <pt x="797" y="684" on="0"/>
        <pt x="797" y="673" on="1"/>
        <pt x="797" y="512" on="1"/>
        <pt x="797" y="501" on="0"/>
        <pt x="781" y="485" on="0"/>
        <pt x="770" y="485" on="1"/>
        <pt x="555" y="485" on="1"/>
        <pt x="555" y="27" on="1"/>
        <pt x="555" y="16" on="0"/>
        <pt x="539" y="0" on="0"/>
        <pt x="528" y="0" on="1"/>
        <pt x="322" y="0" on="1"/>
        <pt x="311" y="0" on="0"/>
        <pt x="295" y="16" on="0"/>
        <pt x="295" y="27" on="1"/>
        <pt x="295" y="485" on="1"/>
        <pt x="80" y="485" on="1"/>
        <pt x="69" y="485" on="0"/>
        <pt x="53" y="501" on="0"/>
        <pt x="53" y="512" on="1"/>
        <pt x="53" y="673" on="1"/>
        <pt x="53" y="684" on="0"/>
        <pt x="69" y="700" on="0"/>
      </contour>
      <contour>
        <pt x="504" y="-31" on="1"/>
        <pt x="523" y="-31" on="0"/>
        <pt x="523" y="-51" on="1"/>
        <pt x="523" y="-58" on="0"/>
        <pt x="518" y="-63" on="1"/>
        <pt x="423" y="-143" on="1"/>
        <pt x="414" y="-150" on="0"/>
        <pt x="395" y="-150" on="1"/>
        <pt x="262" y="-150" on="1"/>
        <pt x="246" y="-150" on="0"/>
        <pt x="246" y="-134" on="1"/>
        <pt x="246" y="-126" on="0"/>
        <pt x="251" y="-121" on="1"/>
        <pt x="309" y="-50" on="1"/>
        <pt x="323" y="-33" on="0"/>
        <pt x="346" y="-31" on="1"/>
      </contour>
    </TTGlyph>
    <TTGlyph name="Thorn" xMin="81" yMin="0" xMax="790" yMax="701">
      <contour>
        <pt x="108" y="701" on="1"/>
        <pt x="323" y="701" on="1"/>
        <pt x="334" y="701" on="0"/>
        <pt x="350" y="685" on="0"/>
        <pt x="350" y="674" on="1"/>
        <pt x="350" y="610" on="1"/>
        <pt x="482" y="610" on="1"/>
        <pt x="624" y="610" on="0"/>
        <pt x="790" y="472" on="0"/>
        <pt x="790" y="256" on="0"/>
        <pt x="650" y="129" on="0"/>
        <pt x="482" y="129" on="1"/>
        <pt x="350" y="129" on="1"/>
        <pt x="350" y="27" on="1"/>
        <pt x="350" y="16" on="0"/>
        <pt x="334" y="0" on="0"/>
        <pt x="323" y="0" on="1"/>
        <pt x="108" y="0" on="1"/>
        <pt x="97" y="0" on="0"/>
        <pt x="81" y="16" on="0"/>
        <pt x="81" y="27" on="1"/>
        <pt x="81" y="674" on="1"/>
        <pt x="81" y="685" on="0"/>
        <pt x="97" y="701" on="0"/>
      </contour>
      <contour>
        <pt x="351" y="424" on="1"/>
        <pt x="351" y="314" on="1"/>
        <pt x="478" y="314" on="1"/>
        <pt x="502" y="314" on="0"/>
        <pt x="530" y="342" on="0"/>
        <pt x="530" y="392" on="0"/>
        <pt x="502" y="424" on="0"/>
        <pt x="478" y="424" on="1"/>
      </contour>
    </TTGlyph>
</ttFont>
